<?xml version="1.0" encoding="UTF-8" standalone="no"?>
<svg
   xmlns:dc="http://purl.org/dc/elements/1.1/"
   xmlns:cc="http://creativecommons.org/ns#"
   xmlns:rdf="http://www.w3.org/1999/02/22-rdf-syntax-ns#"
   xmlns:svg="http://www.w3.org/2000/svg"
   xmlns="http://www.w3.org/2000/svg"
   id="svg33"
   viewBox="0 0 8154.0003 8654.0432"
   style="clip-rule:evenodd;fill-rule:evenodd;image-rendering:optimizeQuality;shape-rendering:geometricPrecision;text-rendering:geometricPrecision"
   version="1.1"
   height="8.6540432in"
   width="8.1540003in"
   xml:space="preserve"><metadata
   id="metadata37"><rdf:RDF><cc:Work
       rdf:about=""><dc:format>image/svg+xml</dc:format><dc:type
         rdf:resource="http://purl.org/dc/dcmitype/StillImage" /></cc:Work></rdf:RDF></metadata>
 <defs
   id="defs9">
  <style
   id="style2"
   type="text/css">
   <![CDATA[
    .fil0 {fill:#116240}
    .fil1 {fill:url(#id0)}
   ]]>
  </style>
  <linearGradient
   y2="4806.2598"
   x2="6418.0498"
   y1="4806.2598"
   x1="4263.8901"
   gradientUnits="userSpaceOnUse"
   id="id0">
   <stop
   id="stop4"
   style="stop-opacity:1; stop-color:#188759"
   offset="0" />
   <stop
   id="stop6"
   style="stop-opacity:1; stop-color:#30CC23"
   offset="1" />
  </linearGradient>
 </defs>
 <g
   transform="translate(-153,-1178)"
   id="Layer_x0020_1">
  <metadata
   id="CorelCorpID_0Corel-Layer" />
  <path
   style="fill:#116240"
   id="path12"
   d="m 2219,1222 z m 969,3236 v -923 l 462,-4 461,-3 v -486 c 0,-268 2,-491 4,-498 2,-5 -208,-11 -465,-13 l -469,-3 v -68 c 0,-38 -7,-118 -16,-178 -79,-589 -400,-947 -946,-1060 -66,-14 -168,-29 -226,-35 l -105,-9 4,2178 4,2179 32,150 c 82,384 241,684 486,915 347,326 811,476 1510,488 l 194,2 4,-539 c 2,-295 -1,-537 -7,-537 -7,0 -51,-7 -101,-14 -50,-8 -156,-21 -236,-28 -117,-11 -163,-22 -232,-55 -147,-73 -279,-250 -333,-446 -23,-81 -25,-172 -25,-1013 z"
   class="fil0" />
  <path
   style="fill:url(#id0)"
   id="path14"
   d="m 5139,2563 z m 42,2484 v 985 l -455,-6 -455,-5 -4,530 -3,532 h 1076 1078 l -5,-1740 c -5,-1728 -5,-1739 -34,-1844 -64,-224 -141,-371 -272,-510 -210,-221 -517,-357 -968,-426 -206,-32 -857,-46 -868,-20 -4,11 -6,239 -4,506 l 4,486 187,8 c 431,21 624,142 702,439 18,67 21,236 21,1065 z"
   class="fil1" />
  <polygon
   style="fill:#116240"
   id="polygon16"
   points="958,8347 1153,8347 1153,8236 1153,8125 653,8125 153,8125 153,8236 153,8347 347,8347 542,8347 542,9076 542,9806 653,9806 764,9806 764,9076 764,8347 "
   class="fil0" />
  <path
   style="fill:#116240"
   id="path18"
   d="m 1569,8474 z m -222,491 v 841 h 111 111 v -387 -384 l 34,-50 c 87,-128 287,-127 362,1 27,46 28,77 32,433 l 4,387 h 112 109 v -360 c 0,-197 -7,-392 -14,-433 -26,-141 -107,-259 -211,-313 -59,-31 -189,-40 -254,-19 -29,9 -80,45 -114,79 l -60,62 v -348 -349 h -111 -111 z"
   class="fil0" />
  <path
   style="fill:#116240"
   id="path20"
   d="m 3279,8678 z m -175,-35 c -296,-14 -551,197 -604,500 -44,256 99,522 343,639 86,40 106,44 233,44 124,0 148,-4 216,-37 41,-21 93,-54 114,-74 20,-19 38,-34 41,-34 3,0 3,27 0,62 l -5,63 h 112 113 l 2,-473 c 2,-259 3,-501 5,-539 v -65 h -112 c -106,0 -111,2 -109,31 1,40 -3,40 -61,-11 -27,-24 -78,-56 -113,-71 -40,-18 -104,-31 -175,-35 z m -382,596 c 0,-183 117,-329 293,-363 163,-32 339,56 407,200 25,53 31,248 9,307 -71,185 -325,277 -509,182 -129,-65 -198,-180 -200,-326 z"
   class="fil0" />
  <path
   style="fill:#116240"
   id="path22"
   d="m 3986,9274 v 532 h 111 111 v -542 -542 h -101 c -57,0 -107,4 -111,10 -6,4 -10,249 -10,542 z"
   class="fil0" />
  <path
   style="fill:#116240"
   id="path24"
   d="m 4065,8585 c 66,21 141,-17 177,-89 22,-47 23,-58 5,-104 -11,-28 -40,-66 -65,-82 -71,-49 -132,-39 -196,30 -73,79 -33,207 79,245 z"
   class="fil0" />
  <path
   style="fill:#116240"
   id="path26"
   d="m 4528,8125 v 840 841 h 111 111 v -63 -62 l 63,47 c 105,80 202,110 344,101 100,-5 137,-14 212,-51 121,-59 225,-164 285,-285 46,-93 47,-103 47,-257 0,-154 -1,-164 -47,-257 -62,-126 -168,-230 -287,-287 -74,-35 -116,-45 -211,-49 -142,-8 -235,20 -342,101 l -64,49 v -335 -333 h -111 z m 222,1111 c 0,-178 108,-317 285,-362 151,-41 344,55 419,207 34,70 34,240 0,309 -65,132 -194,211 -343,211 -210,0 -361,-152 -361,-365 z"
   class="fil0" />
  <path
   style="fill:#116240"
   id="path28"
   d="m 6017,8983 c -188,409 123,874 565,848 119,-7 206,-41 283,-109 l 52,-44 v 64 64 h 111 111 v -542 -542 h -111 c -111,0 -111,0 -111,36 v 36 l -50,-44 c -29,-25 -81,-57 -116,-72 -73,-34 -254,-46 -340,-24 -154,38 -326,182 -394,329 z m 397,595 c -136,-60 -220,-189 -220,-342 2,-148 69,-261 198,-325 83,-42 229,-50 308,-17 68,28 161,118 190,182 35,77 35,243 0,320 -32,71 -133,164 -204,189 -72,25 -208,21 -272,-7 z"
   class="fil0" />
  <path
   style="fill:#116240"
   id="path30"
   d="m 7444,8965 v 841 h 112 111 v -392 -390 l 33,-45 c 68,-89 176,-112 279,-62 100,48 104,69 104,507 v 382 h 113 111 l -4,-428 -4,-427 -38,-70 c -74,-141 -161,-200 -303,-212 -109,-6 -182,23 -248,105 l -43,52 v -351 -350 h -111 -112 z"
   class="fil0" />
 </g>
</svg>