<?xml version="1.0" encoding="utf-8"?>
<!-- Generator: Adobe Illustrator 16.0.0, SVG Export Plug-In . SVG Version: 6.00 Build 0)  -->
<!DOCTYPE svg PUBLIC "-//W3C//DTD SVG 1.1//EN" "http://www.w3.org/Graphics/SVG/1.1/DTD/svg11.dtd">
<svg version="1.1" id="Layer_1" xmlns="http://www.w3.org/2000/svg" xmlns:xlink="http://www.w3.org/1999/xlink" x="0px" y="0px"
	 width="811.574px" height="560px" viewBox="0 0 811.574 560" enable-background="new 0 0 811.574 560" xml:space="preserve">
<linearGradient id="SVGID_1_" gradientUnits="userSpaceOnUse" x1="322.3701" y1="393.7402" x2="269.7864" y2="484.8179">
	<stop  offset="0" style="stop-color:#2EC425"/>
	<stop  offset="0.1756" style="stop-color:#2CBE27"/>
	<stop  offset="0.4049" style="stop-color:#28AE2B"/>
	<stop  offset="0.6638" style="stop-color:#209332"/>
	<stop  offset="0.9427" style="stop-color:#156E3D"/>
	<stop  offset="1" style="stop-color:#13653F"/>
</linearGradient>
<path fill="url(#SVGID_1_)" d="M301.024,385.098h-12.962c-12.986,0-23.146,10.16-23.146,23.146v73.762h59.255v-73.762
	C324.171,395.258,314.011,385.098,301.024,385.098z M317.894,475.728h-46.688v-67.483c0-10.554,8.576-16.856,16.856-16.856h12.962
	c8.293,0,16.869,6.303,16.869,16.856V475.728z"/>
<linearGradient id="SVGID_2_" gradientUnits="userSpaceOnUse" x1="250.502" y1="393.7021" x2="197.9189" y2="484.7786">
	<stop  offset="0" style="stop-color:#2EC425"/>
	<stop  offset="0.1756" style="stop-color:#2CBE27"/>
	<stop  offset="0.4049" style="stop-color:#28AE2B"/>
	<stop  offset="0.6638" style="stop-color:#209332"/>
	<stop  offset="0.9427" style="stop-color:#156E3D"/>
	<stop  offset="1" style="stop-color:#13653F"/>
</linearGradient>
<path fill="url(#SVGID_2_)" d="M229.213,385.098h-12.962c-13.416,0-23.134,9.742-23.134,23.146v73.762h59.279v-73.762
	C252.396,395.258,242.199,385.098,229.213,385.098z M246.082,475.728h-46.675v-67.483c0-10.087,6.782-16.856,16.844-16.856h12.962
	c8.293,0,16.869,6.303,16.869,16.856V475.728z"/>
<linearGradient id="SVGID_3_" gradientUnits="userSpaceOnUse" x1="406.8496" y1="43.7217" x2="337.7671" y2="163.3761">
	<stop  offset="0" style="stop-color:#2EC425"/>
	<stop  offset="0.1756" style="stop-color:#2CBE27"/>
	<stop  offset="0.4049" style="stop-color:#28AE2B"/>
	<stop  offset="0.6638" style="stop-color:#209332"/>
	<stop  offset="0.9427" style="stop-color:#156E3D"/>
	<stop  offset="1" style="stop-color:#13653F"/>
</linearGradient>
<path fill="url(#SVGID_3_)" d="M365.747,127.559v22.914h-12.962v21.574h36.194v-21.574h-12.617v-19.301
	c18.208,4.361,37.964-0.074,52.965-13.638c3.514-3.551,7.064-7.07,10.591-10.603c-24.707,11.77-54.157,7.052-73.004-14.129
	c-18.81-21.181-18.81-51.792-3.501-74.158c-4.73,2.356-9.437,5.885-12.938,8.238c-24.731,22.367-27.078,60.036-5.897,84.749
	C350.685,118.713,357.934,124.033,365.747,127.559z"/>
<linearGradient id="SVGID_4_" gradientUnits="userSpaceOnUse" x1="507.1299" y1="233.8711" x2="305.3418" y2="583.3783">
	<stop  offset="0" style="stop-color:#2EC425"/>
	<stop  offset="0.1756" style="stop-color:#2CBE27"/>
	<stop  offset="0.4049" style="stop-color:#28AE2B"/>
	<stop  offset="0.6638" style="stop-color:#209332"/>
	<stop  offset="0.9427" style="stop-color:#156E3D"/>
	<stop  offset="1" style="stop-color:#13653F"/>
</linearGradient>
<path fill="url(#SVGID_4_)" d="M504.161,273.013c-0.565,0-1.131,0.018-1.708,0.018c0.246,0,0.491-0.006,0.737-0.006
	c-7.04-18.244-18.441-36.391-33.283-52.292c-28.54-30.552-64.268-47.375-100.634-47.375c-35.888,0-71.455,16.822-100.155,47.375
	c-23.43,24.94-38.394,55.216-41.244,82.756h-5.701v10.621h5.197v2.994h4.202v33.971h-11.758c-24.609,0-45.409,20.804-45.409,45.4
	v111.308h239.97c23.822,20.886,55.188,33.574,89.786,33.574c72.991,0,133.008-59.998,133.008-134.172
	C637.169,333.039,577.152,273.013,504.161,273.013z M369.273,181.749c34.02,0,67.548,15.889,94.479,44.712
	c13.22,14.141,23.65,30.494,30.408,46.933c0.258-0.037,0.491-0.037,0.749-0.056c-29.24,1.932-55.79,12.916-76.897,30.15h-181.71
	C242.531,247.455,302.413,181.749,369.273,181.749z M402.163,318.803c-2.445,2.752-4.768,5.602-6.979,8.572v-8.572H402.163z
	 M387.653,475.728h-44.636v-67.483c0-10.554,8.552-16.856,16.845-16.856h9.902c-0.614,5.169-0.946,10.452-0.946,15.797
	C368.818,432.238,375.687,455.668,387.653,475.728z M387.211,339.428c-2.027,3.464-3.932,7.027-5.652,10.688h-7.556v-31.313h13.208
	V339.428z M366.029,318.803v31.313h-13.244v-31.313H366.029z M344.849,318.803v31.313h-13.232v-31.313H344.849z M322.476,318.803
	v31.313h-13.207v-31.313H322.476z M301.282,318.803v31.313h-13.22v-31.313H301.282z M280.113,318.803v31.313h-13.244v-31.313
	H280.113z M258.908,318.803v31.313h-13.22v-31.313H258.908z M182.809,499.375v-102.9c0-20.051,16.918-37.012,37.006-37.012h157.764
	c-3.12,8.197-5.455,16.761-6.917,25.635h-10.799c-12.975,0-23.159,10.16-23.159,23.146v73.762h54.942
	c4.165,6.208,8.896,12.004,14.007,17.369H182.809z M504.161,522.528c-64.735,0-116.532-51.773-116.532-115.344
	c0-63.556,51.797-115.365,116.532-115.365c63.543,0,114.173,51.81,114.173,115.365C618.334,470.755,567.704,522.528,504.161,522.528
	z"/>
<linearGradient id="SVGID_5_" gradientUnits="userSpaceOnUse" x1="569.4775" y1="345.0625" x2="523.6212" y2="424.488">
	<stop  offset="0" style="stop-color:#2EC425"/>
	<stop  offset="0.1756" style="stop-color:#2CBE27"/>
	<stop  offset="0.4049" style="stop-color:#28AE2B"/>
	<stop  offset="0.6638" style="stop-color:#209332"/>
	<stop  offset="0.9427" style="stop-color:#156E3D"/>
	<stop  offset="1" style="stop-color:#13653F"/>
</linearGradient>
<path fill="url(#SVGID_5_)" d="M556.254,341.826c-18.589,20.542-37.202,41.094-55.804,61.636c-0.626,0.716-1.007,1.453-1.216,2.212
	c-0.946,2.152-0.541,4.708,2.261,6.011c15.554,7.187,31.107,14.387,46.674,21.571c6.082,2.825,11.427-6.221,5.283-9.064
	c-13.539-6.26-27.091-12.507-40.617-18.776c16.942-18.721,33.885-37.463,50.839-56.175
	C568.195,344.231,560.799,336.798,556.254,341.826z"/>
<linearGradient id="SVGID_6_" gradientUnits="userSpaceOnUse" x1="556.3818" y1="488.6162" x2="550.8191" y2="498.2512">
	<stop  offset="0" style="stop-color:#2EC425"/>
	<stop  offset="0.1756" style="stop-color:#2CBE27"/>
	<stop  offset="0.4049" style="stop-color:#28AE2B"/>
	<stop  offset="0.6638" style="stop-color:#209332"/>
	<stop  offset="0.9427" style="stop-color:#156E3D"/>
	<stop  offset="1" style="stop-color:#13653F"/>
</linearGradient>
<path fill="url(#SVGID_6_)" d="M554.853,488.25c-1.007-1.695-3.231-2.235-4.987-1.207c-1.782,1.032-2.396,3.256-1.401,4.955
	l3.895,6.609c0.983,1.708,3.22,2.245,4.988,1.204c1.77-1.022,2.396-3.25,1.389-4.951L554.853,488.25z"/>
<linearGradient id="SVGID_7_" gradientUnits="userSpaceOnUse" x1="455.1533" y1="316.1221" x2="449.5918" y2="325.7549">
	<stop  offset="0" style="stop-color:#2EC425"/>
	<stop  offset="0.1756" style="stop-color:#2CBE27"/>
	<stop  offset="0.4049" style="stop-color:#28AE2B"/>
	<stop  offset="0.6638" style="stop-color:#209332"/>
	<stop  offset="0.9427" style="stop-color:#156E3D"/>
	<stop  offset="1" style="stop-color:#13653F"/>
</linearGradient>
<path fill="url(#SVGID_7_)" d="M453.629,315.765c-1.008-1.708-3.244-2.245-5.013-1.214c-1.757,1.033-2.359,3.256-1.376,4.961
	l3.895,6.609c0.995,1.708,3.219,2.225,4.988,1.192c1.757-1.017,2.396-3.24,1.388-4.937L453.629,315.765z"/>
<linearGradient id="SVGID_8_" gradientUnits="userSpaceOnUse" x1="456.0781" y1="487.0176" x2="448.6725" y2="499.8445">
	<stop  offset="0" style="stop-color:#2EC425"/>
	<stop  offset="0.1756" style="stop-color:#2CBE27"/>
	<stop  offset="0.4049" style="stop-color:#28AE2B"/>
	<stop  offset="0.6638" style="stop-color:#209332"/>
	<stop  offset="0.9427" style="stop-color:#156E3D"/>
	<stop  offset="1" style="stop-color:#13653F"/>
</linearGradient>
<path fill="url(#SVGID_8_)" d="M456.123,487.043c-1.77-1.028-3.993-0.488-4.988,1.207l-3.895,6.61
	c-1.008,1.701-0.381,3.929,1.376,4.951c1.769,1.041,4.005,0.504,5.013-1.204l3.882-6.609
	C458.506,490.299,457.88,488.075,456.123,487.043z"/>
<linearGradient id="SVGID_9_" gradientUnits="userSpaceOnUse" x1="557.3057" y1="314.5264" x2="549.9087" y2="327.3383">
	<stop  offset="0" style="stop-color:#2EC425"/>
	<stop  offset="0.1756" style="stop-color:#2CBE27"/>
	<stop  offset="0.4049" style="stop-color:#28AE2B"/>
	<stop  offset="0.6638" style="stop-color:#209332"/>
	<stop  offset="0.9427" style="stop-color:#156E3D"/>
	<stop  offset="1" style="stop-color:#13653F"/>
</linearGradient>
<path fill="url(#SVGID_9_)" d="M549.865,327.313c1.756,1.032,3.98,0.516,4.987-1.192l3.883-6.609
	c0.982-1.705,0.381-3.928-1.389-4.961c-1.769-1.031-4.005-0.494-4.988,1.214l-3.895,6.612
	C547.469,324.073,548.083,326.297,549.865,327.313z"/>
<linearGradient id="SVGID_10_" gradientUnits="userSpaceOnUse" x1="605.7871" y1="402.3574" x2="600.2043" y2="412.027">
	<stop  offset="0" style="stop-color:#2EC425"/>
	<stop  offset="0.1756" style="stop-color:#2CBE27"/>
	<stop  offset="0.4049" style="stop-color:#28AE2B"/>
	<stop  offset="0.6638" style="stop-color:#209332"/>
	<stop  offset="0.9427" style="stop-color:#156E3D"/>
	<stop  offset="1" style="stop-color:#13653F"/>
</linearGradient>
<path fill="url(#SVGID_10_)" d="M606.835,403.496h-7.679c-1.966,0-3.563,1.661-3.563,3.704c0,2.039,1.598,3.686,3.563,3.686h7.679
	c1.978,0,3.551-1.646,3.551-3.686C610.386,405.157,608.813,403.496,606.835,403.496z"/>
<linearGradient id="SVGID_11_" gradientUnits="userSpaceOnUse" x1="405.7773" y1="402.3604" x2="400.1945" y2="412.0302">
	<stop  offset="0" style="stop-color:#2EC425"/>
	<stop  offset="0.1756" style="stop-color:#2CBE27"/>
	<stop  offset="0.4049" style="stop-color:#28AE2B"/>
	<stop  offset="0.6638" style="stop-color:#209332"/>
	<stop  offset="0.9427" style="stop-color:#156E3D"/>
	<stop  offset="1" style="stop-color:#13653F"/>
</linearGradient>
<path fill="url(#SVGID_11_)" d="M410.395,407.2c0-2.043-1.609-3.704-3.575-3.704h-7.679c-1.966,0-3.563,1.661-3.563,3.704
	c0,2.039,1.598,3.686,3.563,3.686h7.679C408.785,410.886,410.395,409.239,410.395,407.2z"/>
<linearGradient id="SVGID_12_" gradientUnits="userSpaceOnUse" x1="506.4492" y1="301.1846" x2="499.5247" y2="313.1783">
	<stop  offset="0" style="stop-color:#2EC425"/>
	<stop  offset="0.1756" style="stop-color:#2CBE27"/>
	<stop  offset="0.4049" style="stop-color:#28AE2B"/>
	<stop  offset="0.6638" style="stop-color:#209332"/>
	<stop  offset="0.9427" style="stop-color:#156E3D"/>
	<stop  offset="1" style="stop-color:#13653F"/>
</linearGradient>
<path fill="url(#SVGID_12_)" d="M502.981,314.582c2.039,0,3.71-1.591,3.71-3.561v-7.666c0-1.978-1.671-3.584-3.71-3.584
	c-2.04,0-3.698,1.606-3.698,3.584v7.666C499.283,312.991,500.941,314.582,502.981,314.582z"/>
<linearGradient id="SVGID_13_" gradientUnits="userSpaceOnUse" x1="506.4482" y1="501.1992" x2="499.5266" y2="513.1878">
	<stop  offset="0" style="stop-color:#2EC425"/>
	<stop  offset="0.1756" style="stop-color:#2CBE27"/>
	<stop  offset="0.4049" style="stop-color:#28AE2B"/>
	<stop  offset="0.6638" style="stop-color:#209332"/>
	<stop  offset="0.9427" style="stop-color:#156E3D"/>
	<stop  offset="1" style="stop-color:#13653F"/>
</linearGradient>
<path fill="url(#SVGID_13_)" d="M502.981,499.787c-2.04,0-3.698,1.606-3.698,3.569v7.682c0,1.956,1.658,3.554,3.698,3.554
	c2.039,0,3.71-1.598,3.71-3.554v-7.682C506.691,501.394,505.021,499.787,502.981,499.787z"/>
<linearGradient id="SVGID_14_" gradientUnits="userSpaceOnUse" x1="594.3691" y1="353.6367" x2="587.4972" y2="365.5393">
	<stop  offset="0" style="stop-color:#2EC425"/>
	<stop  offset="0.1756" style="stop-color:#2CBE27"/>
	<stop  offset="0.4049" style="stop-color:#28AE2B"/>
	<stop  offset="0.6638" style="stop-color:#209332"/>
	<stop  offset="0.9427" style="stop-color:#156E3D"/>
	<stop  offset="1" style="stop-color:#13653F"/>
</linearGradient>
<path fill="url(#SVGID_14_)" d="M589.303,364.66l6.77-3.646c1.72-0.946,2.347-3.146,1.363-4.954c-0.97-1.788-3.145-2.491-4.89-1.545
	l-6.745,3.64c-1.732,0.946-2.346,3.164-1.376,4.961C585.396,364.908,587.595,365.608,589.303,364.66z"/>
<linearGradient id="SVGID_15_" gradientUnits="userSpaceOnUse" x1="418.4766" y1="448.834" x2="411.6055" y2="460.7351">
	<stop  offset="0" style="stop-color:#2EC425"/>
	<stop  offset="0.1756" style="stop-color:#2CBE27"/>
	<stop  offset="0.4049" style="stop-color:#28AE2B"/>
	<stop  offset="0.6638" style="stop-color:#209332"/>
	<stop  offset="0.9427" style="stop-color:#156E3D"/>
	<stop  offset="1" style="stop-color:#13653F"/>
</linearGradient>
<path fill="url(#SVGID_15_)" d="M416.66,449.694l-6.758,3.664c-1.731,0.934-2.334,3.146-1.363,4.96
	c0.971,1.791,3.157,2.479,4.89,1.533l6.745-3.634c1.732-0.946,2.347-3.167,1.376-4.948
	C420.579,449.47,418.393,448.764,416.66,449.694z"/>
<linearGradient id="SVGID_16_" gradientUnits="userSpaceOnUse" x1="416.9492" y1="356.291" x2="413.1421" y2="362.8852">
	<stop  offset="0" style="stop-color:#2EC425"/>
	<stop  offset="0.1756" style="stop-color:#2CBE27"/>
	<stop  offset="0.4049" style="stop-color:#28AE2B"/>
	<stop  offset="0.6638" style="stop-color:#209332"/>
	<stop  offset="0.9427" style="stop-color:#156E3D"/>
	<stop  offset="1" style="stop-color:#13653F"/>
</linearGradient>
<path fill="url(#SVGID_16_)" d="M420.174,358.154l-6.745-3.64c-1.744-0.946-3.919-0.243-4.89,1.545
	c-0.971,1.809-0.368,4.008,1.363,4.954l6.758,3.646c1.72,0.948,3.919,0.248,4.89-1.545
	C422.521,361.318,421.906,359.101,420.174,358.154z"/>
<linearGradient id="SVGID_17_" gradientUnits="userSpaceOnUse" x1="592.8428" y1="451.4922" x2="589.0355" y2="458.0865">
	<stop  offset="0" style="stop-color:#2EC425"/>
	<stop  offset="0.1756" style="stop-color:#2CBE27"/>
	<stop  offset="0.4049" style="stop-color:#28AE2B"/>
	<stop  offset="0.6638" style="stop-color:#209332"/>
	<stop  offset="0.9427" style="stop-color:#156E3D"/>
	<stop  offset="1" style="stop-color:#13653F"/>
</linearGradient>
<path fill="url(#SVGID_17_)" d="M596.072,453.358l-6.77-3.664c-1.708-0.931-3.907-0.225-4.878,1.575
	c-0.97,1.781-0.356,4.002,1.376,4.948l6.745,3.634c1.745,0.945,3.92,0.258,4.902-1.533
	C598.419,456.504,597.792,454.292,596.072,453.358z"/>
</svg>
