<?xml version="1.0" encoding="utf-8"?>
<!-- Generator: Adobe Illustrator 16.0.0, SVG Export Plug-In . SVG Version: 6.00 Build 0)  -->
<!DOCTYPE svg PUBLIC "-//W3C//DTD SVG 1.1//EN" "http://www.w3.org/Graphics/SVG/1.1/DTD/svg11.dtd">
<svg version="1.1" id="Layer_1" xmlns="http://www.w3.org/2000/svg" xmlns:xlink="http://www.w3.org/1999/xlink" x="0px" y="0px"
	 width="811.574px" height="560px" viewBox="0 0 811.574 560" enable-background="new 0 0 811.574 560" xml:space="preserve">
<path fill-rule="evenodd" clip-rule="evenodd" fill="#FFFFFF" d="M405.787,541.361c-144.341,0-261.357-117.017-261.357-261.357
	c0-144.345,117.017-261.365,261.357-261.365c144.346,0,261.357,117.021,261.357,261.365
	C667.145,424.345,550.133,541.361,405.787,541.361z"/>
<g>
	<path fill-rule="evenodd" clip-rule="evenodd" fill="#116240" d="M283.358,120.24c5.086,0.604,10.2,1.063,15.265,1.862
		c7.565,1.187,14.815,3.479,21.631,7.033c13.561,7.076,22.566,18.09,27.779,32.334c2.476,6.77,3.993,13.76,4.687,20.921
		c0.314,3.282,0.366,6.591,0.545,9.886c0.017,0.26,0.028,0.523,0.055,0.915c16.792,0.128,33.545-0.021,50.308,0.739
		c0,17.749,0,35.387,0,53.204c-0.493,0-0.867-0.009-1.241,0c-15.827,0.118-31.657,0.237-47.488,0.356
		c-1.264,0.009-1.268,0.009-1.268,1.271c0.026,26.521,0.029,53.046,0.076,79.571c0.014,5.315,0.119,10.635,0.307,15.945
		c0.399,11.825,5.516,21.394,14.33,29.051c3.992,3.47,8.814,5.137,14.031,5.749c6.974,0.816,13.939,1.676,20.904,2.556
		c0.229,0.025,0.578,0.396,0.604,0.634c0.119,1.102,0.188,2.219,0.179,3.325c-0.025,17.782-0.072,35.565-0.119,53.348
		c0,0.233-0.034,0.468-0.06,0.816c-0.374,0-0.723,0.013-1.071,0c-6.728-0.179-13.458-0.204-20.172-0.565
		c-13.71-0.744-27.231-2.709-40.201-7.434c-26.177-9.528-43.721-27.609-52.922-53.854c-2.33-6.642-3.814-13.491-5.21-20.367
		c-0.254-1.255-0.378-2.557-0.378-3.832c-0.11-44.031-0.195-88.075-0.28-132.106c-0.06-31.632-0.123-63.255-0.187-94.887
		c0-0.477-0.068-0.952-0.103-1.429C283.358,123.6,283.358,121.916,283.358,120.24z"/>
	<linearGradient id="SVGID_1_" gradientUnits="userSpaceOnUse" x1="528.2168" y1="316.3438" x2="412.002" y2="316.3438">
		<stop  offset="0" style="stop-color:#2EC425"/>
		<stop  offset="0.1831" style="stop-color:#2BB928"/>
		<stop  offset="0.5075" style="stop-color:#229B30"/>
		<stop  offset="0.9329" style="stop-color:#136A3E"/>
		<stop  offset="1" style="stop-color:#116240"/>
	</linearGradient>
	<path fill-rule="evenodd" clip-rule="evenodd" fill="url(#SVGID_1_)" d="M412.004,439.375c0-0.697-0.004-1.284,0-1.879
		c0.034-9.521,0.06-19.042,0.11-28.563c0.051-8.287,0.11-16.579,0.204-24.87c0.025-2.407-0.11-1.932,1.914-1.918
		c8.023,0.055,16.043,0.136,24.059,0.233c7.237,0.089,14.475,0.229,21.711,0.315c1.51,0.024,1.574,0.398,1.574-1.515
		c0-18.896,0.012-37.789-0.009-56.682c-0.009-10.877-0.025-21.745-0.103-32.618c-0.038-4.979-0.093-9.976-0.387-14.946
		c-0.472-8.011-3.347-15.002-9.419-20.44c-3.66-3.278-8.104-5.082-12.79-6.314c-4.389-1.156-8.87-1.777-13.395-2.033
		c-3.835-0.203-7.675-0.369-11.515-0.557c-0.298-0.012-0.596-0.085-0.893-0.08c-0.554,0.004-0.732-0.289-0.724-0.791
		c0.009-0.298-0.029-0.6-0.034-0.901c-0.068-14.837-0.145-29.672-0.195-44.513c-0.004-2.074,0.103-4.141,0.153-6.216
		c0.025-1.233,0.085-1.349,1.297-1.429c2.181-0.153,4.375-0.366,6.561-0.345c6.966,0.063,13.939,0.123,20.896,0.379
		c5.18,0.194,10.384,0.433,15.521,1.097c13.131,1.692,25.938,4.694,37.836,10.766c10.571,5.393,19.151,12.97,25.063,23.37
		c3.401,5.987,5.706,12.417,7.246,19.11c0.416,1.828,0.497,3.741,0.603,5.621c0.141,2.334,0.18,4.678,0.205,7.016
		c0.098,10.546,0.213,21.082,0.255,31.628c0.085,20.632,0.119,41.268,0.183,61.903c0.056,18.858,0.115,37.721,0.184,56.584
		c0.029,9.129,0.067,18.263,0.102,27.389c0.009,1.173,0,1.173-1.19,1.173c-37.968,0.009-75.936,0.018-113.899,0.025
		C412.795,439.375,412.463,439.375,412.004,439.375z"/>
</g>
</svg>
