<?xml version="1.0" encoding="utf-8"?>
<!-- Generator: Adobe Illustrator 16.0.0, SVG Export Plug-In . SVG Version: 6.00 Build 0)  -->
<!DOCTYPE svg PUBLIC "-//W3C//DTD SVG 1.1//EN" "http://www.w3.org/Graphics/SVG/1.1/DTD/svg11.dtd">
<svg version="1.1" id="Layer_1" xmlns="http://www.w3.org/2000/svg" xmlns:xlink="http://www.w3.org/1999/xlink" x="0px" y="0px"
	 width="811.574px" height="560px" viewBox="0 0 811.574 560" enable-background="new 0 0 811.574 560" xml:space="preserve">
<g>
	<path fill="#009245" d="M531.578,38.854c-32.112-13.401-65.934-20.214-100.497-20.214c-105.898,0-200.679,63.001-241.461,160.519
		c-8.724,20.855-14.664,42.639-17.745,64.83c-13.736,0-27.454,0-41.172,0c-8.575,0-14.015,9.578-9.745,16.956
		c18.136,31.398,36.271,62.807,54.388,94.187c4.232,7.313,15.24,7.313,19.473,0c18.116-31.38,36.252-62.788,54.369-94.187
		c2.357-4.074,1.894-8.028-0.037-11.072c-1.634-3.351-4.845-5.884-9.689-5.884c-11.898,0-23.797,0-35.659,0
		c2.859-18.024,7.815-35.696,14.925-52.653C254.57,105.587,337.916,50.178,431.063,50.178c30.387,0,60.105,5.996,88.357,17.792
		c116.906,48.895,172.26,183.797,123.348,300.693c-35.845,85.759-119.189,141.149-212.317,141.149c-0.019,0-0.019,0-0.019,0
		c-30.405,0-60.124-5.978-88.339-17.773c-22.033-9.216-42.322-21.663-60.365-37.06c-0.742-0.752-1.541-1.448-2.413-2.033
		c-0.892-0.612-1.856-1.16-2.858-1.559c-1.931-0.826-3.973-1.226-6.089-1.226c-4.27,0-8.446,1.754-11.397,4.863
		c-1.393,1.411-2.469,3.044-3.211,4.854c-2.822,6.729-0.594,14.636,5.29,18.905c20.567,17.598,43.752,31.854,68.849,42.351
		c32.113,13.43,65.934,20.224,100.497,20.224c105.936,0,200.697-63.011,241.479-160.519
		C727.468,247.887,664.522,94.486,531.578,38.854z"/>
	<path fill="#009245" d="M589.827,351.938c-47.186-27.222-94.353-54.462-141.52-81.693c0-54.435,0-108.878,0-163.321
		c0-21.802-33.803-21.802-33.803,0c0,57.683,0,115.384,0,173.095c0,1.698,0.26,3.239,0.649,4.688
		c0.929,3.786,3.323,7.35,7.722,9.902c49.971,28.818,99.922,57.664,149.893,86.511C591.665,392.043,608.687,362.845,589.827,351.938
		z"/>
</g>
</svg>
