<?xml version="1.0" encoding="utf-8"?>
<!-- Generator: Adobe Illustrator 16.0.0, SVG Export Plug-In . SVG Version: 6.00 Build 0)  -->
<!DOCTYPE svg PUBLIC "-//W3C//DTD SVG 1.1//EN" "http://www.w3.org/Graphics/SVG/1.1/DTD/svg11.dtd">
<svg version="1.1" id="Layer_1" xmlns="http://www.w3.org/2000/svg" xmlns:xlink="http://www.w3.org/1999/xlink" x="0px" y="0px"
	 width="960px" height="560px" viewBox="0 0 960 560" enable-background="new 0 0 960 560" xml:space="preserve">
<g>
	
		<rect x="228.766" y="28.763" fill="none" stroke="#333333" stroke-width="12.4881" stroke-miterlimit="10" width="502.469" height="502.475"/>
	<path fill="#333333" d="M651.713,205.107c-0.422,0.006-81.891-82.413-107.549-107.031c-27.631-26.515-36.217,3.359-36.217,3.359
		v56.018c0,0,0,1.054,0,2.937h-23.354c-19.756-0.498-47.65-0.292-65.652,3.771c-177.537,40.018-113.77,268.366-62.736,305.21
		c14.137,10.196,13.939-4.977,13.939-4.977s0-21.413,0-93.109c0-64.229,52.281-91.118,92.611-91.118c11.391,0,44.805,0,45.191,0
		v54.521c0,0,8.586,29.875,36.217,3.361c25.658-24.618,107.127-107.036,107.549-107.033c4.971-4.849,6.512-9.245,6.426-12.954
		C658.225,214.354,656.684,209.958,651.713,205.107z"/>
</g>
</svg>
