<?xml version="1.0" encoding="utf-8"?>
<!-- Generator: Adobe Illustrator 16.0.0, SVG Export Plug-In . SVG Version: 6.00 Build 0)  -->
<!DOCTYPE svg PUBLIC "-//W3C//DTD SVG 1.1//EN" "http://www.w3.org/Graphics/SVG/1.1/DTD/svg11.dtd">
<svg version="1.1" id="Layer_1" xmlns="http://www.w3.org/2000/svg" xmlns:xlink="http://www.w3.org/1999/xlink" x="0px" y="0px"
	 width="811.574px" height="560px" viewBox="0 0 811.574 560" enable-background="new 0 0 811.574 560" xml:space="preserve">
<g>
	
		<text transform="matrix(1 0 0 1 298.1865 222.8115)" fill="#009245" font-family="'Roboto-Medium'" font-size="165.1979" letter-spacing="8">Rp</text>
	<path fill="#009245" d="M635.158,173.196v-0.015h-73.521C560.884,87.854,491.3,18.641,405.78,18.641
		c-85.505,0-155.09,69.214-155.844,154.541h-73.521v0.015H163.81v186.789c0,15.351,12.488,27.861,27.846,27.861h201.519v60.285
		c-10.282,0-20.581,0-30.878,0c-6.852,0-11.186,7.634-7.769,13.553c14.5,25.086,29,50.194,43.499,75.28
		c3.374,5.859,12.178,5.859,15.551,0c14.485-25.086,28.971-50.194,43.455-75.28c2.116-3.67,1.376-7.191-0.666-9.721
		c-1.405-2.212-3.699-3.832-7.116-3.832c-10.283,0-20.566,0-30.864,0v-60.285h201.518c15.359,0,27.861-12.511,27.861-27.861V173.196
		H635.158z M405.78,41.566c73.327,0,132.984,59.664,132.984,132.97c0,73.335-59.657,132.991-132.984,132.991
		c-73.328,0-132.97-59.656-132.97-132.991C272.811,101.23,332.452,41.566,405.78,41.566z M622.552,359.985
		c0,1.465-1.184,2.648-2.648,2.648H191.655c-1.449,0-2.633-1.184-2.633-2.648V198.394h62.867
		c11.541,74.66,76.05,132.06,153.891,132.06c77.84,0,142.364-57.399,153.905-132.06h62.866V359.985z"/>
</g>
</svg>
