<?xml version="1.0" encoding="utf-8"?>
<!-- Generator: Adobe Illustrator 16.0.0, SVG Export Plug-In . SVG Version: 6.00 Build 0)  -->
<!DOCTYPE svg PUBLIC "-//W3C//DTD SVG 1.1//EN" "http://www.w3.org/Graphics/SVG/1.1/DTD/svg11.dtd">
<svg version="1.1" id="Layer_1" xmlns="http://www.w3.org/2000/svg" xmlns:xlink="http://www.w3.org/1999/xlink" x="0px" y="0px"
	 width="811.574px" height="560px" viewBox="0 0 811.574 560" enable-background="new 0 0 811.574 560" xml:space="preserve">
<linearGradient id="SVGID_1_" gradientUnits="userSpaceOnUse" x1="495.3916" y1="65.1719" x2="326.0455" y2="358.4879">
	<stop  offset="0" style="stop-color:#2EC425"/>
	<stop  offset="0.1756" style="stop-color:#2CBE27"/>
	<stop  offset="0.4049" style="stop-color:#28AE2B"/>
	<stop  offset="0.6638" style="stop-color:#209332"/>
	<stop  offset="0.9427" style="stop-color:#156E3D"/>
	<stop  offset="1" style="stop-color:#13653F"/>
</linearGradient>
<path fill="url(#SVGID_1_)" d="M686.309,175.75l-2.877-2.012L406,298.128L128.924,168.089l-3.063,2.99
	c-1.106,1.093-26.986,26.922-16.42,60.248l0.818,2.577l292.798,137.05l2.586,1.224l303.315-138.69l0.119-3.82
	C709.127,228.152,709.994,192.323,686.309,175.75z"/>
<linearGradient id="SVGID_2_" gradientUnits="userSpaceOnUse" x1="194.209" y1="444.9258" x2="420.9961" y2="444.9258">
	<stop  offset="0" style="stop-color:#2EC425"/>
	<stop  offset="0.1756" style="stop-color:#2CBE27"/>
	<stop  offset="0.4049" style="stop-color:#28AE2B"/>
	<stop  offset="0.6638" style="stop-color:#209332"/>
	<stop  offset="0.9427" style="stop-color:#156E3D"/>
	<stop  offset="1" style="stop-color:#13653F"/>
</linearGradient>
<polygon fill="none" stroke="url(#SVGID_2_)" stroke-width="12.3474" stroke-miterlimit="10" points="215.957,357.8 
	201.239,531.355 405.677,441.464 "/>
<linearGradient id="SVGID_3_" gradientUnits="userSpaceOnUse" x1="390.3574" y1="444.9258" x2="617.1455" y2="444.9258">
	<stop  offset="0" style="stop-color:#2EC425"/>
	<stop  offset="0.1756" style="stop-color:#2CBE27"/>
	<stop  offset="0.4049" style="stop-color:#28AE2B"/>
	<stop  offset="0.6638" style="stop-color:#209332"/>
	<stop  offset="0.9427" style="stop-color:#156E3D"/>
	<stop  offset="1" style="stop-color:#13653F"/>
</linearGradient>
<polygon fill="none" stroke="url(#SVGID_3_)" stroke-width="12.3474" stroke-miterlimit="10" points="595.393,357.8 
	610.115,531.355 405.677,441.464 "/>
<g>
	<polygon fill="none" points="413.192,309.256 413.214,316.334 413.164,316.29 413.164,430.337 775.027,270.785 633.596,26.309 
		606.219,35.923 691.516,178.664 	"/>
	<polygon fill="none" points="398.155,309.256 119.836,178.664 205.169,35.854 177.996,26.309 36.565,270.785 398.41,430.337 
		398.41,316.198 398.14,316.334 	"/>
	<linearGradient id="SVGID_4_" gradientUnits="userSpaceOnUse" x1="405.7949" y1="447.8652" x2="412.9243" y2="447.8652">
		<stop  offset="0" style="stop-color:#545400"/>
		<stop  offset="0.0989" style="stop-color:#626600"/>
		<stop  offset="0.7228" style="stop-color:#B8D300"/>
		<stop  offset="1" style="stop-color:#DAFF00"/>
	</linearGradient>
	<line fill="url(#SVGID_4_)" x1="412.924" y1="446.296" x2="405.795" y2="449.435"/>
	<linearGradient id="SVGID_5_" gradientUnits="userSpaceOnUse" x1="398.645" y1="447.8652" x2="405.7949" y2="447.8652">
		<stop  offset="0" style="stop-color:#545400"/>
		<stop  offset="0.0989" style="stop-color:#626600"/>
		<stop  offset="0.7228" style="stop-color:#B8D300"/>
		<stop  offset="1" style="stop-color:#DAFF00"/>
	</linearGradient>
	<line fill="url(#SVGID_5_)" x1="405.795" y1="449.435" x2="398.645" y2="446.296"/>
	<linearGradient id="SVGID_6_" gradientUnits="userSpaceOnUse" x1="580.7969" y1="-25.6133" x2="308.3167" y2="446.3361">
		<stop  offset="0" style="stop-color:#2EC425"/>
		<stop  offset="0.1756" style="stop-color:#2CBE27"/>
		<stop  offset="0.4049" style="stop-color:#28AE2B"/>
		<stop  offset="0.6638" style="stop-color:#209332"/>
		<stop  offset="0.9427" style="stop-color:#156E3D"/>
		<stop  offset="1" style="stop-color:#13653F"/>
	</linearGradient>
	<path fill="url(#SVGID_6_)" d="M640.129,8.643l-44.154,15.505c1.174,0.491,2.264,1.034,3.285,1.686l1.479,0.918l5.48,9.171
		l27.377-9.614l141.432,244.476L413.164,430.337V316.29l-0.239-0.092v53.087l-7.248,2.893l-7.032-3.003v-53.097l-0.235,0.12v114.139
		L36.565,270.785L177.996,26.309l27.173,9.545l5.445-9.103l1.477-0.918c1.042-0.664,2.161-1.242,3.373-1.719L171.46,8.643
		L15.908,277.514l382.737,168.782l7.15,3.139l7.129-3.139l382.742-168.782L640.129,8.643z"/>
	<linearGradient id="SVGID_7_" gradientUnits="userSpaceOnUse" x1="413.1636" y1="285.5488" x2="413.1758" y2="285.5488">
		<stop  offset="0" style="stop-color:#545400"/>
		<stop  offset="0.0989" style="stop-color:#626600"/>
		<stop  offset="0.7228" style="stop-color:#B8D300"/>
		<stop  offset="1" style="stop-color:#DAFF00"/>
	</linearGradient>
	<polygon fill="url(#SVGID_7_)" points="413.164,277.846 413.164,293.253 413.176,293.253 	"/>
	<linearGradient id="SVGID_8_" gradientUnits="userSpaceOnUse" x1="413.1636" y1="312.7949" x2="413.2144" y2="312.7949">
		<stop  offset="0" style="stop-color:#545400"/>
		<stop  offset="0.0989" style="stop-color:#626600"/>
		<stop  offset="0.7228" style="stop-color:#B8D300"/>
		<stop  offset="1" style="stop-color:#DAFF00"/>
	</linearGradient>
	<polygon fill="url(#SVGID_8_)" points="413.192,309.256 413.164,309.29 413.164,316.29 413.214,316.334 	"/>
	<linearGradient id="SVGID_9_" gradientUnits="userSpaceOnUse" x1="412.9243" y1="198.5952" x2="413.1636" y2="198.5952">
		<stop  offset="0" style="stop-color:#545400"/>
		<stop  offset="0.0989" style="stop-color:#626600"/>
		<stop  offset="0.7228" style="stop-color:#B8D300"/>
		<stop  offset="1" style="stop-color:#DAFF00"/>
	</linearGradient>
	<polygon fill="url(#SVGID_9_)" points="412.924,293.381 413.164,293.253 413.164,277.846 412.924,103.81 412.924,108.799 	"/>
	<linearGradient id="SVGID_10_" gradientUnits="userSpaceOnUse" x1="412.9243" y1="312.79" x2="413.1636" y2="312.79">
		<stop  offset="0" style="stop-color:#545400"/>
		<stop  offset="0.0989" style="stop-color:#626600"/>
		<stop  offset="0.7228" style="stop-color:#B8D300"/>
		<stop  offset="1" style="stop-color:#DAFF00"/>
	</linearGradient>
	<polygon fill="url(#SVGID_10_)" points="413.164,309.29 412.924,309.392 412.924,316.198 413.164,316.29 	"/>
	<linearGradient id="SVGID_11_" gradientUnits="userSpaceOnUse" x1="412.6694" y1="201.1494" x2="412.9243" y2="201.1494">
		<stop  offset="0" style="stop-color:#545400"/>
		<stop  offset="0.0989" style="stop-color:#626600"/>
		<stop  offset="0.7228" style="stop-color:#B8D300"/>
		<stop  offset="1" style="stop-color:#DAFF00"/>
	</linearGradient>
	<polygon fill="url(#SVGID_11_)" points="412.669,293.5 412.924,293.381 412.924,108.799 	"/>
	<linearGradient id="SVGID_12_" gradientUnits="userSpaceOnUse" x1="398.645" y1="93.1855" x2="402.3247" y2="93.1855">
		<stop  offset="0" style="stop-color:#545400"/>
		<stop  offset="0.0989" style="stop-color:#626600"/>
		<stop  offset="0.7228" style="stop-color:#B8D300"/>
		<stop  offset="1" style="stop-color:#DAFF00"/>
	</linearGradient>
	<path fill="url(#SVGID_12_)" d="M402.325,92.192l-3.68,1.292v0.693l3.594-1.935C402.256,92.226,402.303,92.208,402.325,92.192z"/>
	<linearGradient id="SVGID_13_" gradientUnits="userSpaceOnUse" x1="398.1396" y1="312.7949" x2="398.4102" y2="312.7949">
		<stop  offset="0" style="stop-color:#545400"/>
		<stop  offset="0.0989" style="stop-color:#626600"/>
		<stop  offset="0.7228" style="stop-color:#B8D300"/>
		<stop  offset="1" style="stop-color:#DAFF00"/>
	</linearGradient>
	<polygon fill="url(#SVGID_13_)" points="398.155,309.256 398.14,316.334 398.41,316.198 398.41,309.392 	"/>
	<linearGradient id="SVGID_14_" gradientUnits="userSpaceOnUse" x1="398.1729" y1="201.1816" x2="398.4102" y2="201.1816">
		<stop  offset="0" style="stop-color:#545400"/>
		<stop  offset="0.0989" style="stop-color:#626600"/>
		<stop  offset="0.7228" style="stop-color:#B8D300"/>
		<stop  offset="1" style="stop-color:#DAFF00"/>
	</linearGradient>
	<polygon fill="url(#SVGID_14_)" points="398.41,108.999 398.173,293.253 398.41,293.364 	"/>
	<linearGradient id="SVGID_15_" gradientUnits="userSpaceOnUse" x1="398.4102" y1="312.7949" x2="398.645" y2="312.7949">
		<stop  offset="0" style="stop-color:#545400"/>
		<stop  offset="0.0989" style="stop-color:#626600"/>
		<stop  offset="0.7228" style="stop-color:#B8D300"/>
		<stop  offset="1" style="stop-color:#DAFF00"/>
	</linearGradient>
	<polygon fill="url(#SVGID_15_)" points="398.41,309.392 398.41,316.198 398.645,316.078 398.645,309.494 	"/>
	<linearGradient id="SVGID_16_" gradientUnits="userSpaceOnUse" x1="398.4102" y1="198.6279" x2="398.645" y2="198.6279">
		<stop  offset="0" style="stop-color:#545400"/>
		<stop  offset="0.0989" style="stop-color:#626600"/>
		<stop  offset="0.7228" style="stop-color:#B8D300"/>
		<stop  offset="1" style="stop-color:#DAFF00"/>
	</linearGradient>
	<polygon fill="url(#SVGID_16_)" points="398.41,293.364 398.645,293.481 398.645,275.905 398.428,103.775 398.41,108.999 	"/>
	<linearGradient id="SVGID_17_" gradientUnits="userSpaceOnUse" x1="398.645" y1="284.7031" x2="398.6792" y2="284.7031">
		<stop  offset="0" style="stop-color:#545400"/>
		<stop  offset="0.0989" style="stop-color:#626600"/>
		<stop  offset="0.7228" style="stop-color:#B8D300"/>
		<stop  offset="1" style="stop-color:#DAFF00"/>
	</linearGradient>
	<polygon fill="url(#SVGID_17_)" points="398.679,293.5 398.645,275.905 398.645,293.481 	"/>
	<linearGradient id="SVGID_18_" gradientUnits="userSpaceOnUse" x1="408.6035" y1="95.3486" x2="412.9243" y2="95.3486">
		<stop  offset="0" style="stop-color:#545400"/>
		<stop  offset="0.0989" style="stop-color:#626600"/>
		<stop  offset="0.7228" style="stop-color:#B8D300"/>
		<stop  offset="1" style="stop-color:#DAFF00"/>
	</linearGradient>
	<path fill="url(#SVGID_18_)" d="M412.907,94.286l0.017,4.441v-5.242l-4.321-1.514c0.217,0.103,0.408,0.2,0.51,0.272L412.907,94.286
		z"/>
	<linearGradient id="SVGID_19_" gradientUnits="userSpaceOnUse" x1="413.1636" y1="301.2715" x2="413.1919" y2="301.2715">
		<stop  offset="0" style="stop-color:#545400"/>
		<stop  offset="0.0989" style="stop-color:#626600"/>
		<stop  offset="0.7228" style="stop-color:#B8D300"/>
		<stop  offset="1" style="stop-color:#DAFF00"/>
	</linearGradient>
	<polygon fill="url(#SVGID_19_)" points="413.176,293.253 413.164,293.253 413.164,309.29 413.192,309.256 	"/>
	<linearGradient id="SVGID_20_" gradientUnits="userSpaceOnUse" x1="405.0815" y1="90.6846" x2="406.3735" y2="90.6846">
		<stop  offset="0" style="stop-color:#545400"/>
		<stop  offset="0.0989" style="stop-color:#626600"/>
		<stop  offset="0.7228" style="stop-color:#B8D300"/>
		<stop  offset="1" style="stop-color:#DAFF00"/>
	</linearGradient>
	<path fill="url(#SVGID_20_)" d="M405.795,90.968l0.579-0.205c-0.221-0.118-0.446-0.243-0.697-0.361
		c-0.222,0.119-0.41,0.225-0.595,0.328L405.795,90.968z"/>
	<linearGradient id="SVGID_21_" gradientUnits="userSpaceOnUse" x1="398.1553" y1="301.3223" x2="398.4102" y2="301.3223">
		<stop  offset="0" style="stop-color:#545400"/>
		<stop  offset="0.0989" style="stop-color:#626600"/>
		<stop  offset="0.7228" style="stop-color:#B8D300"/>
		<stop  offset="1" style="stop-color:#DAFF00"/>
	</linearGradient>
	<polygon fill="url(#SVGID_21_)" points="398.173,293.253 398.155,309.256 398.41,309.392 398.41,293.364 	"/>
	<linearGradient id="SVGID_22_" gradientUnits="userSpaceOnUse" x1="402.3247" y1="91.4609" x2="405.7949" y2="91.4609">
		<stop  offset="0" style="stop-color:#545400"/>
		<stop  offset="0.0989" style="stop-color:#626600"/>
		<stop  offset="0.7228" style="stop-color:#B8D300"/>
		<stop  offset="1" style="stop-color:#DAFF00"/>
	</linearGradient>
	<path fill="url(#SVGID_22_)" d="M405.082,90.729c-1.396,0.732-2.332,1.242-2.757,1.463l3.47-1.225L405.082,90.729z"/>
	<linearGradient id="SVGID_23_" gradientUnits="userSpaceOnUse" x1="398.4277" y1="185.042" x2="398.645" y2="185.042">
		<stop  offset="0" style="stop-color:#545400"/>
		<stop  offset="0.0989" style="stop-color:#626600"/>
		<stop  offset="0.7228" style="stop-color:#B8D300"/>
		<stop  offset="1" style="stop-color:#DAFF00"/>
	</linearGradient>
	<polygon fill="url(#SVGID_23_)" points="398.645,94.178 398.445,94.286 398.428,103.775 398.645,275.905 	"/>
	<linearGradient id="SVGID_24_" gradientUnits="userSpaceOnUse" x1="398.4102" y1="301.4297" x2="398.645" y2="301.4297">
		<stop  offset="0" style="stop-color:#545400"/>
		<stop  offset="0.0989" style="stop-color:#626600"/>
		<stop  offset="0.7228" style="stop-color:#B8D300"/>
		<stop  offset="1" style="stop-color:#DAFF00"/>
	</linearGradient>
	<polygon fill="url(#SVGID_24_)" points="398.41,309.392 398.645,309.494 398.645,293.481 398.41,293.364 	"/>
	<linearGradient id="SVGID_25_" gradientUnits="userSpaceOnUse" x1="412.9243" y1="103.7627" x2="412.9243" y2="103.7627">
		<stop  offset="0" style="stop-color:#545400"/>
		<stop  offset="0.0989" style="stop-color:#626600"/>
		<stop  offset="0.7228" style="stop-color:#B8D300"/>
		<stop  offset="1" style="stop-color:#DAFF00"/>
	</linearGradient>
	<polygon fill="url(#SVGID_25_)" points="412.924,103.81 412.924,98.727 412.924,108.799 	"/>
	<linearGradient id="SVGID_26_" gradientUnits="userSpaceOnUse" x1="412.9243" y1="301.3223" x2="413.1636" y2="301.3223">
		<stop  offset="0" style="stop-color:#545400"/>
		<stop  offset="0.0989" style="stop-color:#626600"/>
		<stop  offset="0.7228" style="stop-color:#B8D300"/>
		<stop  offset="1" style="stop-color:#DAFF00"/>
	</linearGradient>
	<polygon fill="url(#SVGID_26_)" points="412.924,293.381 412.924,309.392 413.164,309.29 413.164,293.253 	"/>
	<linearGradient id="SVGID_27_" gradientUnits="userSpaceOnUse" x1="405.7949" y1="91.3672" x2="408.6035" y2="91.3672">
		<stop  offset="0" style="stop-color:#545400"/>
		<stop  offset="0.0989" style="stop-color:#626600"/>
		<stop  offset="0.7228" style="stop-color:#B8D300"/>
		<stop  offset="1" style="stop-color:#DAFF00"/>
	</linearGradient>
	<path fill="url(#SVGID_27_)" d="M406.374,90.763l-0.579,0.205l2.809,1.003C408.105,91.699,407.357,91.286,406.374,90.763z"/>
	<g>
		<linearGradient id="SVGID_28_" gradientUnits="userSpaceOnUse" x1="362.1592" y1="65.2764" x2="252.4803" y2="255.2457">
			<stop  offset="0" style="stop-color:#2EC425"/>
			<stop  offset="0.1756" style="stop-color:#2CBE27"/>
			<stop  offset="0.4049" style="stop-color:#28AE2B"/>
			<stop  offset="0.6638" style="stop-color:#209332"/>
			<stop  offset="0.9427" style="stop-color:#156E3D"/>
			<stop  offset="1" style="stop-color:#13653F"/>
		</linearGradient>
		<path fill="url(#SVGID_28_)" d="M402.325,92.192c0.425-0.221,1.36-0.731,2.757-1.463c0.186-0.103,0.374-0.209,0.595-0.328
			c-21.304-11.315-131.308-68.502-176.841-68.502c-5.309,0-9.731,0.73-13.373,2.215c-1.212,0.477-2.331,1.055-3.373,1.719
			l-1.477,0.918l-5.445,9.103l-85.333,142.809l278.319,130.592l0.018-16.003L140.51,172.346l78.628-131.583l1.957-3.296
			c1.429-0.528,3.828-1.072,7.741-1.072c41.309,0,148.085,55.235,169.592,66.585v0.795l0.017-9.489l0.2-0.107v-0.693L402.325,92.192
			z"/>
		<linearGradient id="SVGID_29_" gradientUnits="userSpaceOnUse" x1="606.5195" y1="30.0049" x2="433.5283" y2="329.6344">
			<stop  offset="0" style="stop-color:#2EC425"/>
			<stop  offset="0.1756" style="stop-color:#2CBE27"/>
			<stop  offset="0.4049" style="stop-color:#28AE2B"/>
			<stop  offset="0.6638" style="stop-color:#209332"/>
			<stop  offset="0.9427" style="stop-color:#156E3D"/>
			<stop  offset="1" style="stop-color:#13653F"/>
		</linearGradient>
		<path fill="url(#SVGID_29_)" d="M606.219,35.923l-5.48-9.171l-1.479-0.918c-1.021-0.651-2.111-1.194-3.285-1.686
			c-3.658-1.505-8.1-2.249-13.459-2.249c-45.553,0-155.536,57.187-176.839,68.502c0.251,0.119,0.476,0.243,0.697,0.361
			c0.984,0.523,1.732,0.936,2.23,1.208l4.321,1.514v5.242l-0.017-4.441l-3.794-2.042c-0.102-0.073-0.293-0.17-0.51-0.272
			l-2.809-1.003l-3.47,1.225c-0.022,0.016-0.068,0.034-0.085,0.051l-3.594,1.935v181.727l0.034,17.595l-0.034-0.019v16.013
			l7.032,3.3l7.248-3.402v-16.011l-0.255,0.119l0.255-184.701v-4.989v-0.83c21.508-11.367,128.261-66.585,169.591-66.585
			c3.914,0,6.313,0.544,7.74,1.072l1.994,3.374l78.594,131.505L413.176,293.253l0.016,16.003l278.324-130.592L606.219,35.923z"/>
	</g>
</g>
<g>
	<g>
		<g>
			<linearGradient id="SVGID_30_" gradientUnits="userSpaceOnUse" x1="313.6147" y1="68.1748" x2="298.5278" y2="94.3061">
				<stop  offset="0" style="stop-color:#2EC425"/>
				<stop  offset="0.1756" style="stop-color:#2CBE27"/>
				<stop  offset="0.4049" style="stop-color:#28AE2B"/>
				<stop  offset="0.6638" style="stop-color:#209332"/>
				<stop  offset="0.9427" style="stop-color:#156E3D"/>
				<stop  offset="1" style="stop-color:#13653F"/>
			</linearGradient>
			<polygon fill="url(#SVGID_30_)" points="391.349,115.347 220.053,48.999 220.784,47.148 392.082,113.478 			"/>
		</g>
		<g>
			<linearGradient id="SVGID_31_" gradientUnits="userSpaceOnUse" x1="310.8521" y1="79.2905" x2="296.183" y2="104.6981">
				<stop  offset="0" style="stop-color:#2EC425"/>
				<stop  offset="0.1756" style="stop-color:#2CBE27"/>
				<stop  offset="0.4049" style="stop-color:#28AE2B"/>
				<stop  offset="0.6638" style="stop-color:#209332"/>
				<stop  offset="0.9427" style="stop-color:#156E3D"/>
				<stop  offset="1" style="stop-color:#13653F"/>
			</linearGradient>
			<polygon fill="url(#SVGID_31_)" points="391.349,128.043 214.952,57.799 215.685,55.95 392.082,126.188 			"/>
		</g>
		<g>
			<linearGradient id="SVGID_32_" gradientUnits="userSpaceOnUse" x1="308.1416" y1="90.6431" x2="293.8525" y2="115.3924">
				<stop  offset="0" style="stop-color:#2EC425"/>
				<stop  offset="0.1756" style="stop-color:#2CBE27"/>
				<stop  offset="0.4049" style="stop-color:#28AE2B"/>
				<stop  offset="0.6638" style="stop-color:#209332"/>
				<stop  offset="0.9427" style="stop-color:#156E3D"/>
				<stop  offset="1" style="stop-color:#13653F"/>
			</linearGradient>
			<polygon fill="url(#SVGID_32_)" points="391.349,140.971 209.895,66.92 210.643,65.065 392.098,139.116 			"/>
		</g>
		<g>
			<linearGradient id="SVGID_33_" gradientUnits="userSpaceOnUse" x1="305.4902" y1="101.9468" x2="291.6816" y2="125.864">
				<stop  offset="0" style="stop-color:#2EC425"/>
				<stop  offset="0.1756" style="stop-color:#2CBE27"/>
				<stop  offset="0.4049" style="stop-color:#28AE2B"/>
				<stop  offset="0.6638" style="stop-color:#209332"/>
				<stop  offset="0.9427" style="stop-color:#156E3D"/>
				<stop  offset="1" style="stop-color:#13653F"/>
			</linearGradient>
			<polygon fill="url(#SVGID_33_)" points="391.332,153.805 205.067,75.857 205.833,74.016 392.098,151.95 			"/>
		</g>
		<g>
			<linearGradient id="SVGID_34_" gradientUnits="userSpaceOnUse" x1="302.6992" y1="112.1826" x2="289.2585" y2="135.4626">
				<stop  offset="0" style="stop-color:#2EC425"/>
				<stop  offset="0.1756" style="stop-color:#2CBE27"/>
				<stop  offset="0.4049" style="stop-color:#28AE2B"/>
				<stop  offset="0.6638" style="stop-color:#209332"/>
				<stop  offset="0.9427" style="stop-color:#156E3D"/>
				<stop  offset="1" style="stop-color:#13653F"/>
			</linearGradient>
			<polygon fill="url(#SVGID_34_)" points="391.332,165.644 199.843,83.838 200.626,81.996 392.111,163.805 			"/>
		</g>
		<g>
			<linearGradient id="SVGID_35_" gradientUnits="userSpaceOnUse" x1="300.2939" y1="123.457" x2="287.2872" y2="145.9853">
				<stop  offset="0" style="stop-color:#2EC425"/>
				<stop  offset="0.1756" style="stop-color:#2CBE27"/>
				<stop  offset="0.4049" style="stop-color:#28AE2B"/>
				<stop  offset="0.6638" style="stop-color:#209332"/>
				<stop  offset="0.9427" style="stop-color:#156E3D"/>
				<stop  offset="1" style="stop-color:#13653F"/>
			</linearGradient>
			<polygon fill="url(#SVGID_35_)" points="391.316,178.303 195.469,92.975 196.27,91.133 392.111,176.468 			"/>
		</g>
		<g>
			<linearGradient id="SVGID_36_" gradientUnits="userSpaceOnUse" x1="297.585" y1="134.8091" x2="284.9675" y2="156.6631">
				<stop  offset="0" style="stop-color:#2EC425"/>
				<stop  offset="0.1756" style="stop-color:#2CBE27"/>
				<stop  offset="0.4049" style="stop-color:#28AE2B"/>
				<stop  offset="0.6638" style="stop-color:#209332"/>
				<stop  offset="0.9427" style="stop-color:#156E3D"/>
				<stop  offset="1" style="stop-color:#13653F"/>
			</linearGradient>
			<polygon fill="url(#SVGID_36_)" points="391.316,191.221 190.417,102.074 191.233,100.257 392.131,189.395 			"/>
		</g>
		<g>
			<linearGradient id="SVGID_37_" gradientUnits="userSpaceOnUse" x1="295.3618" y1="144.3696" x2="282.3599" y2="166.8897">
				<stop  offset="0" style="stop-color:#2EC425"/>
				<stop  offset="0.1756" style="stop-color:#2CBE27"/>
				<stop  offset="0.4049" style="stop-color:#28AE2B"/>
				<stop  offset="0.6638" style="stop-color:#209332"/>
				<stop  offset="0.9427" style="stop-color:#156E3D"/>
				<stop  offset="1" style="stop-color:#13653F"/>
			</linearGradient>
			<polygon fill="url(#SVGID_37_)" points="391.316,202.061 185.597,111.024 186.4,109.208 392.131,200.24 			"/>
		</g>
		<g>
			<linearGradient id="SVGID_38_" gradientUnits="userSpaceOnUse" x1="292.311" y1="156.6113" x2="280.4058" y2="177.2319">
				<stop  offset="0" style="stop-color:#2EC425"/>
				<stop  offset="0.1756" style="stop-color:#2CBE27"/>
				<stop  offset="0.4049" style="stop-color:#28AE2B"/>
				<stop  offset="0.6638" style="stop-color:#209332"/>
				<stop  offset="0.9427" style="stop-color:#156E3D"/>
				<stop  offset="1" style="stop-color:#13653F"/>
			</linearGradient>
			<polygon fill="url(#SVGID_38_)" points="391.298,216.064 180.582,119.599 181.415,117.783 392.131,214.243 			"/>
		</g>
		<g>
			<linearGradient id="SVGID_39_" gradientUnits="userSpaceOnUse" x1="290.0483" y1="166.144" x2="277.6273" y2="187.6579">
				<stop  offset="0" style="stop-color:#2EC425"/>
				<stop  offset="0.1756" style="stop-color:#2CBE27"/>
				<stop  offset="0.4049" style="stop-color:#28AE2B"/>
				<stop  offset="0.6638" style="stop-color:#209332"/>
				<stop  offset="0.9427" style="stop-color:#156E3D"/>
				<stop  offset="1" style="stop-color:#13653F"/>
			</linearGradient>
			<polygon fill="url(#SVGID_39_)" points="391.298,226.902 175.545,128.72 176.379,126.899 392.131,225.082 			"/>
		</g>
		<g>
			<linearGradient id="SVGID_40_" gradientUnits="userSpaceOnUse" x1="287.8135" y1="175.7588" x2="275.0303" y2="197.8999">
				<stop  offset="0" style="stop-color:#2EC425"/>
				<stop  offset="0.1756" style="stop-color:#2CBE27"/>
				<stop  offset="0.4049" style="stop-color:#28AE2B"/>
				<stop  offset="0.6638" style="stop-color:#209332"/>
				<stop  offset="0.9427" style="stop-color:#156E3D"/>
				<stop  offset="1" style="stop-color:#13653F"/>
			</linearGradient>
			<polygon fill="url(#SVGID_40_)" points="391.298,237.809 170.708,137.67 171.546,135.85 392.131,235.988 			"/>
		</g>
		<g>
			<linearGradient id="SVGID_41_" gradientUnits="userSpaceOnUse" x1="285.4536" y1="184.2754" x2="272.1998" y2="207.2316">
				<stop  offset="0" style="stop-color:#2EC425"/>
				<stop  offset="0.1756" style="stop-color:#2CBE27"/>
				<stop  offset="0.4049" style="stop-color:#28AE2B"/>
				<stop  offset="0.6638" style="stop-color:#209332"/>
				<stop  offset="0.9427" style="stop-color:#156E3D"/>
				<stop  offset="1" style="stop-color:#13653F"/>
			</linearGradient>
			<polygon fill="url(#SVGID_41_)" points="391.316,247.712 165.507,145.633 166.323,143.817 392.131,245.866 			"/>
		</g>
		<g>
			<linearGradient id="SVGID_42_" gradientUnits="userSpaceOnUse" x1="283.4736" y1="193.8418" x2="269.7983" y2="217.5281">
				<stop  offset="0" style="stop-color:#2EC425"/>
				<stop  offset="0.1756" style="stop-color:#2CBE27"/>
				<stop  offset="0.4049" style="stop-color:#28AE2B"/>
				<stop  offset="0.6638" style="stop-color:#209332"/>
				<stop  offset="0.9427" style="stop-color:#156E3D"/>
				<stop  offset="1" style="stop-color:#13653F"/>
			</linearGradient>
			<polygon fill="url(#SVGID_42_)" points="391.316,258.397 161.133,154.791 161.966,152.953 392.131,256.576 			"/>
		</g>
		<g>
			<linearGradient id="SVGID_43_" gradientUnits="userSpaceOnUse" x1="281.1875" y1="203.4463" x2="267.0426" y2="227.946">
				<stop  offset="0" style="stop-color:#2EC425"/>
				<stop  offset="0.1756" style="stop-color:#2CBE27"/>
				<stop  offset="0.4049" style="stop-color:#28AE2B"/>
				<stop  offset="0.6638" style="stop-color:#209332"/>
				<stop  offset="0.9427" style="stop-color:#156E3D"/>
				<stop  offset="1" style="stop-color:#13653F"/>
			</linearGradient>
			<polygon fill="url(#SVGID_43_)" points="391.316,269.321 156.097,163.891 156.914,162.073 392.131,267.5 			"/>
		</g>
	</g>
	<g>
		<g>
			<linearGradient id="SVGID_44_" gradientUnits="userSpaceOnUse" x1="541.7568" y1="18.9697" x2="469.5842" y2="143.9763">
				<stop  offset="0" style="stop-color:#2EC425"/>
				<stop  offset="0.1756" style="stop-color:#2CBE27"/>
				<stop  offset="0.4049" style="stop-color:#28AE2B"/>
				<stop  offset="0.6638" style="stop-color:#209332"/>
				<stop  offset="0.9427" style="stop-color:#156E3D"/>
				<stop  offset="1" style="stop-color:#13653F"/>
			</linearGradient>
			<polygon fill="url(#SVGID_44_)" points="420.378,115.567 419.664,113.712 590.955,47.375 591.67,49.245 			"/>
		</g>
		<g>
			<linearGradient id="SVGID_45_" gradientUnits="userSpaceOnUse" x1="545.7852" y1="27.1538" x2="470.6514" y2="157.2894">
				<stop  offset="0" style="stop-color:#2EC425"/>
				<stop  offset="0.1756" style="stop-color:#2CBE27"/>
				<stop  offset="0.4049" style="stop-color:#28AE2B"/>
				<stop  offset="0.6638" style="stop-color:#209332"/>
				<stop  offset="0.9427" style="stop-color:#156E3D"/>
				<stop  offset="1" style="stop-color:#13653F"/>
			</linearGradient>
			<polygon fill="url(#SVGID_45_)" points="420.395,128.273 419.646,126.423 596.045,56.171 596.791,58.021 			"/>
		</g>
		<g>
			<linearGradient id="SVGID_46_" gradientUnits="userSpaceOnUse" x1="549.7568" y1="35.6553" x2="471.7161" y2="170.8259">
				<stop  offset="0" style="stop-color:#2EC425"/>
				<stop  offset="0.1756" style="stop-color:#2CBE27"/>
				<stop  offset="0.4049" style="stop-color:#28AE2B"/>
				<stop  offset="0.6638" style="stop-color:#209332"/>
				<stop  offset="0.9427" style="stop-color:#156E3D"/>
				<stop  offset="1" style="stop-color:#13653F"/>
			</linearGradient>
			<polygon fill="url(#SVGID_46_)" points="420.395,141.196 419.646,139.337 601.08,65.287 601.828,67.146 			"/>
		</g>
		<g>
			<linearGradient id="SVGID_47_" gradientUnits="userSpaceOnUse" x1="553.6143" y1="44.0566" x2="472.6995" y2="184.2052">
				<stop  offset="0" style="stop-color:#2EC425"/>
				<stop  offset="0.1756" style="stop-color:#2CBE27"/>
				<stop  offset="0.4049" style="stop-color:#28AE2B"/>
				<stop  offset="0.6638" style="stop-color:#209332"/>
				<stop  offset="0.9427" style="stop-color:#156E3D"/>
				<stop  offset="1" style="stop-color:#13653F"/>
			</linearGradient>
			<polygon fill="url(#SVGID_47_)" points="420.412,154.017 419.628,152.183 605.895,74.241 606.674,76.096 			"/>
		</g>
		<g>
			<linearGradient id="SVGID_48_" gradientUnits="userSpaceOnUse" x1="557.708" y1="51.3945" x2="473.8157" y2="196.7003">
				<stop  offset="0" style="stop-color:#2EC425"/>
				<stop  offset="0.1756" style="stop-color:#2CBE27"/>
				<stop  offset="0.4049" style="stop-color:#28AE2B"/>
				<stop  offset="0.6638" style="stop-color:#209332"/>
				<stop  offset="0.9427" style="stop-color:#156E3D"/>
				<stop  offset="1" style="stop-color:#13653F"/>
			</linearGradient>
			<polygon fill="url(#SVGID_48_)" points="420.412,165.868 419.628,164.026 611.1,82.221 611.9,84.06 			"/>
		</g>
		<g>
			<linearGradient id="SVGID_49_" gradientUnits="userSpaceOnUse" x1="561.1904" y1="60.0278" x2="474.686" y2="209.8578">
				<stop  offset="0" style="stop-color:#2EC425"/>
				<stop  offset="0.1756" style="stop-color:#2CBE27"/>
				<stop  offset="0.4049" style="stop-color:#28AE2B"/>
				<stop  offset="0.6638" style="stop-color:#209332"/>
				<stop  offset="0.9427" style="stop-color:#156E3D"/>
				<stop  offset="1" style="stop-color:#13653F"/>
			</linearGradient>
			<polygon fill="url(#SVGID_49_)" points="420.412,178.522 419.612,176.703 615.457,91.358 616.256,93.196 			"/>
		</g>
		<g>
			<linearGradient id="SVGID_50_" gradientUnits="userSpaceOnUse" x1="565.1689" y1="68.5278" x2="475.7539" y2="223.3992">
				<stop  offset="0" style="stop-color:#2EC425"/>
				<stop  offset="0.1756" style="stop-color:#2CBE27"/>
				<stop  offset="0.4049" style="stop-color:#28AE2B"/>
				<stop  offset="0.6638" style="stop-color:#209332"/>
				<stop  offset="0.9427" style="stop-color:#156E3D"/>
				<stop  offset="1" style="stop-color:#13653F"/>
			</linearGradient>
			<polygon fill="url(#SVGID_50_)" points="420.425,191.455 419.612,189.618 620.51,100.479 621.311,102.311 			"/>
		</g>
		<g>
			<linearGradient id="SVGID_51_" gradientUnits="userSpaceOnUse" x1="568.5977" y1="76.6729" x2="477.1572" y2="235.0523">
				<stop  offset="0" style="stop-color:#2EC425"/>
				<stop  offset="0.1756" style="stop-color:#2CBE27"/>
				<stop  offset="0.4049" style="stop-color:#28AE2B"/>
				<stop  offset="0.6638" style="stop-color:#209332"/>
				<stop  offset="0.9427" style="stop-color:#156E3D"/>
				<stop  offset="1" style="stop-color:#13653F"/>
			</linearGradient>
			<polygon fill="url(#SVGID_51_)" points="420.425,202.298 419.612,200.456 625.326,109.425 626.145,111.266 			"/>
		</g>
		<g>
			<linearGradient id="SVGID_52_" gradientUnits="userSpaceOnUse" x1="572.8965" y1="84.8418" x2="477.8621" y2="249.4462">
				<stop  offset="0" style="stop-color:#2EC425"/>
				<stop  offset="0.1756" style="stop-color:#2CBE27"/>
				<stop  offset="0.4049" style="stop-color:#28AE2B"/>
				<stop  offset="0.6638" style="stop-color:#209332"/>
				<stop  offset="0.9427" style="stop-color:#156E3D"/>
				<stop  offset="1" style="stop-color:#13653F"/>
			</linearGradient>
			<polygon fill="url(#SVGID_52_)" points="420.425,216.285 419.595,214.464 630.33,118.001 631.162,119.825 			"/>
		</g>
		<g>
			<linearGradient id="SVGID_53_" gradientUnits="userSpaceOnUse" x1="576.4209" y1="93.0928" x2="479.3853" y2="261.1635">
				<stop  offset="0" style="stop-color:#2EC425"/>
				<stop  offset="0.1756" style="stop-color:#2CBE27"/>
				<stop  offset="0.4049" style="stop-color:#28AE2B"/>
				<stop  offset="0.6638" style="stop-color:#209332"/>
				<stop  offset="0.9427" style="stop-color:#156E3D"/>
				<stop  offset="1" style="stop-color:#13653F"/>
			</linearGradient>
			<polygon fill="url(#SVGID_53_)" points="420.425,227.123 419.612,225.303 635.365,127.125 636.199,128.941 			"/>
		</g>
		<g>
			<linearGradient id="SVGID_54_" gradientUnits="userSpaceOnUse" x1="579.8691" y1="101.2432" x2="480.7703" y2="272.8875">
				<stop  offset="0" style="stop-color:#2EC425"/>
				<stop  offset="0.1756" style="stop-color:#2CBE27"/>
				<stop  offset="0.4049" style="stop-color:#28AE2B"/>
				<stop  offset="0.6638" style="stop-color:#209332"/>
				<stop  offset="0.9427" style="stop-color:#156E3D"/>
				<stop  offset="1" style="stop-color:#13653F"/>
			</linearGradient>
			<polygon fill="url(#SVGID_54_)" points="420.425,238.048 419.612,236.227 640.197,136.074 641.031,137.892 			"/>
		</g>
		<g>
			<linearGradient id="SVGID_55_" gradientUnits="userSpaceOnUse" x1="583.5381" y1="108.3257" x2="482.3123" y2="283.654">
				<stop  offset="0" style="stop-color:#2EC425"/>
				<stop  offset="0.1756" style="stop-color:#2CBE27"/>
				<stop  offset="0.4049" style="stop-color:#28AE2B"/>
				<stop  offset="0.6638" style="stop-color:#209332"/>
				<stop  offset="0.9427" style="stop-color:#156E3D"/>
				<stop  offset="1" style="stop-color:#13653F"/>
			</linearGradient>
			<polygon fill="url(#SVGID_55_)" points="420.425,247.924 419.612,246.112 645.422,144.055 646.234,145.871 			"/>
		</g>
		<g>
			<linearGradient id="SVGID_56_" gradientUnits="userSpaceOnUse" x1="586.5947" y1="116.7129" x2="483.5979" y2="295.1086">
				<stop  offset="0" style="stop-color:#2EC425"/>
				<stop  offset="0.1756" style="stop-color:#2CBE27"/>
				<stop  offset="0.4049" style="stop-color:#28AE2B"/>
				<stop  offset="0.6638" style="stop-color:#209332"/>
				<stop  offset="0.9427" style="stop-color:#156E3D"/>
				<stop  offset="1" style="stop-color:#13653F"/>
			</linearGradient>
			<polygon fill="url(#SVGID_56_)" points="420.425,258.636 419.612,256.797 649.777,153.191 650.59,155.007 			"/>
		</g>
		<g>
			<linearGradient id="SVGID_57_" gradientUnits="userSpaceOnUse" x1="590.1543" y1="124.9492" x2="485.1152" y2="306.8822">
				<stop  offset="0" style="stop-color:#2EC425"/>
				<stop  offset="0.1756" style="stop-color:#2CBE27"/>
				<stop  offset="0.4049" style="stop-color:#28AE2B"/>
				<stop  offset="0.6638" style="stop-color:#209332"/>
				<stop  offset="0.9427" style="stop-color:#156E3D"/>
				<stop  offset="1" style="stop-color:#13653F"/>
			</linearGradient>
			<polygon fill="url(#SVGID_57_)" points="420.425,269.534 419.612,267.721 654.832,162.292 655.643,164.134 			"/>
		</g>
	</g>
</g>
</svg>
