<?xml version="1.0" encoding="utf-8"?>
<!-- Generator: Adobe Illustrator 16.0.0, SVG Export Plug-In . SVG Version: 6.00 Build 0)  -->
<!DOCTYPE svg PUBLIC "-//W3C//DTD SVG 1.1//EN" "http://www.w3.org/Graphics/SVG/1.1/DTD/svg11.dtd">
<svg version="1.1" id="Layer_1" xmlns="http://www.w3.org/2000/svg" xmlns:xlink="http://www.w3.org/1999/xlink" x="0px" y="0px"
	 width="811.574px" height="560px" viewBox="0 0 811.574 560" enable-background="new 0 0 811.574 560" xml:space="preserve">
<g>
	<g>
		<g>
			<linearGradient id="SVGID_1_" gradientUnits="userSpaceOnUse" x1="468.2266" y1="309.3916" x2="343.0725" y2="526.1648">
				<stop  offset="0" style="stop-color:#2EC425"/>
				<stop  offset="0.1756" style="stop-color:#2CBE27"/>
				<stop  offset="0.4049" style="stop-color:#28AE2B"/>
				<stop  offset="0.6638" style="stop-color:#209332"/>
				<stop  offset="0.9427" style="stop-color:#156E3D"/>
				<stop  offset="1" style="stop-color:#13653F"/>
			</linearGradient>
			<path fill="url(#SVGID_1_)" d="M484.763,364.518c0-43.541-35.438-78.985-78.994-78.985c-43.532,0-78.971,35.444-78.971,78.985
				c0,8.854,1.897,19.81,4.632,26.671c9.94,25.073,41.721,81.024,59.311,111.336c-23.884,1.792-45.293,7.941-45.293,19.147
				c0,13.525,31.275,19.685,60.321,19.685c29.082,0,60.357-6.159,60.357-19.685c0-11.116-21.076-17.267-44.702-19.107
				c17.381-30.281,48.841-86.318,58.708-111.348C482.854,384.291,484.763,373.318,484.763,364.518z M457.886,521.672
				c0,3.313-18.256,11.432-52.117,11.432c-33.825,0-52.08-8.118-52.08-11.432c0-2.962,14.522-9.765,41.671-11.206
				c4.103,7.016,6.775,11.551,7.256,12.373l3.572,6.009l3.535-6.036c0.468-0.801,3.116-5.33,7.156-12.312
				C443.584,512.012,457.886,518.719,457.886,521.672z M472.47,388.189c-9.965,25.239-43.544,84.781-60.259,113.866
				c-1.786,3.099-3.351,5.836-4.706,8.151c-0.468,0.856-0.936,1.639-1.354,2.368c-0.432-0.729-0.899-1.527-1.393-2.368
				c-1.367-2.331-2.956-5.075-4.754-8.163c-16.913-29.089-50.898-88.615-60.925-113.895c-2.008-5.063-4.04-14.794-4.04-23.632
				c0-39.002,31.743-70.745,70.729-70.745c39.011,0,70.754,31.743,70.754,70.745C476.522,373.297,474.478,383.071,472.47,388.189z"
				/>
		</g>
		<linearGradient id="SVGID_2_" gradientUnits="userSpaceOnUse" x1="428.8076" y1="324.2959" x2="382.7449" y2="404.0789">
			<stop  offset="0" style="stop-color:#2EC425"/>
			<stop  offset="0.1756" style="stop-color:#2CBE27"/>
			<stop  offset="0.4049" style="stop-color:#28AE2B"/>
			<stop  offset="0.6638" style="stop-color:#209332"/>
			<stop  offset="0.9427" style="stop-color:#156E3D"/>
			<stop  offset="1" style="stop-color:#13653F"/>
		</linearGradient>
		<path fill="url(#SVGID_2_)" d="M451.837,364.179c0,25.437-20.632,46.065-46.068,46.065c-25.425,0-46.045-20.629-46.045-46.065
			s20.62-46.047,46.045-46.047C431.205,318.132,451.837,338.742,451.837,364.179z"/>
	</g>
	<linearGradient id="SVGID_3_" gradientUnits="userSpaceOnUse" x1="424.4512" y1="61.2896" x2="407.8137" y2="90.1065">
		<stop  offset="0" style="stop-color:#2EC425"/>
		<stop  offset="0.1756" style="stop-color:#2CBE27"/>
		<stop  offset="0.4049" style="stop-color:#28AE2B"/>
		<stop  offset="0.6638" style="stop-color:#209332"/>
		<stop  offset="0.9427" style="stop-color:#156E3D"/>
		<stop  offset="1" style="stop-color:#13653F"/>
	</linearGradient>
	<polygon fill="url(#SVGID_3_)" points="412.666,76.476 406.692,89.459 417.199,79.762 427.719,89.459 421.732,76.476 
		434.21,69.458 420.008,71.124 417.199,57.103 414.391,71.124 400.2,69.458 	"/>
</g>
<linearGradient id="SVGID_4_" gradientUnits="userSpaceOnUse" x1="566.2959" y1="113.8418" x2="314.1767" y2="550.525">
	<stop  offset="0" style="stop-color:#2EC425"/>
	<stop  offset="0.1756" style="stop-color:#2CBE27"/>
	<stop  offset="0.4049" style="stop-color:#28AE2B"/>
	<stop  offset="0.6638" style="stop-color:#209332"/>
	<stop  offset="0.9427" style="stop-color:#156E3D"/>
	<stop  offset="1" style="stop-color:#13653F"/>
</linearGradient>
<path fill="url(#SVGID_4_)" d="M581.003,350.223v0.182L529.6,350.38v-12.559l-14.473,0.013c1.725-6.095,2.586-12.543,2.032-19.028
	c-0.246-4.249-1.294-8.392-2.587-12.41c-0.751-1.977-1.429-3.976-2.414-5.842c-0.469-0.945-0.887-1.915-1.404-2.817l-1.602-2.688
	c-4.373-7.126-10.026-13.221-16.186-18.471c-5.949-5.044-11.887-10.002-17.898-14.923c-12.01-9.824-24.438-19.21-36.398-28.76
	c-5.95-4.798-11.764-9.639-16.617-14.987c-4.878-5.34-8.66-11.271-11.48-17.972l-1.786-4.229l-0.062-1.9
	c1.367-0.938,2.279-2.51,2.279-4.28c0-1.928-1.06-3.569-2.587-4.483l-0.851-23.349c0.789-0.566,1.331-1.497,1.331-2.541
	c0-1.146-0.616-2.118-1.516-2.657l-0.579-15.545c18.107,2.026,36.93-3.874,50.799-17.757c8.943-8.931,14.561-19.927,16.9-31.441
	c-2.734,8.124-7.354,15.785-13.845,22.28c-22.53,22.508-59.016,22.508-81.545,0c-22.517-22.523-22.517-59.03,0-81.535
	c6.491-6.491,14.141-11.12,22.296-13.854c-11.542,2.331-22.53,7.967-31.473,16.896c-24.192,24.224-24.192,63.45,0,87.654
	c9.817,9.824,22.086,15.647,34.835,17.51l-0.566,15.792c-0.912,0.539-1.527,1.512-1.527,2.657c0,1.044,0.542,1.975,1.343,2.541
	l-0.851,23.349c-1.539,0.914-2.587,2.556-2.587,4.483c0,1.771,0.899,3.342,2.267,4.28l-0.062,1.553l-1.835,4.699
	c-2.673,6.812-6.233,12.872-11,18.236c-4.742,5.37-10.544,10.153-16.556,14.874c-12.071,9.411-24.66,18.661-36.744,28.451
	c-6.072,4.881-12.034,9.857-17.984,14.893c-6.158,5.247-11.861,11.354-16.223,18.474c-1.084,1.773-2.143,3.581-3.018,5.524
	c-0.973,1.854-1.663,3.853-2.414,5.832c-1.306,4.013-2.341,8.186-2.6,12.42c-0.566,6.488,0.296,12.949,2.021,19.059h-17.245v12.583
	H230.57v-0.182h-7.587v0.182v7.594v139.876h7.587V357.998h56.515v-11.807h21.052l-2.008-5.719c-2.414-6.809-3.535-13.965-2.87-20.94
	c0.246-3.477,1.183-6.87,2.291-10.195c0.665-1.63,1.231-3.265,2.106-4.811c0.739-1.62,1.675-3.126,2.611-4.662
	c3.818-5.999,8.894-11.33,14.572-16.022c5.925-4.872,11.936-9.722,17.984-14.452c12.084-9.596,24.451-18.637,36.854-28.192
	c6.172-4.813,12.441-9.839,17.972-16.075c3.166-3.495,5.938-7.4,8.303-11.523c2.476,4.021,5.334,7.841,8.499,11.268
	c5.593,6.073,11.752,11.099,17.849,15.971c12.257,9.654,24.537,18.914,36.56,28.525c6.023,4.801,12.022,9.647,17.935,14.517
	c5.679,4.695,10.742,10.042,14.548,16.028l1.38,2.288c0.468,0.742,0.813,1.57,1.231,2.35c0.851,1.549,1.429,3.202,2.095,4.825
	c1.096,3.316,2.044,6.71,2.291,10.209c0.665,6.929-0.469,14.094-2.87,20.894l-2.008,5.703l18.193,0.016v11.831l59.348-0.04v139.892
	h7.588V357.968v-7.563v-0.182H581.003z"/>
<g id="path13_55_">
	<linearGradient id="SVGID_5_" gradientUnits="userSpaceOnUse" x1="324.3867" y1="404.2471" x2="272.7765" y2="493.6386">
		<stop  offset="0" style="stop-color:#2EC425"/>
		<stop  offset="0.1756" style="stop-color:#2CBE27"/>
		<stop  offset="0.4049" style="stop-color:#28AE2B"/>
		<stop  offset="0.6638" style="stop-color:#209332"/>
		<stop  offset="0.9427" style="stop-color:#156E3D"/>
		<stop  offset="1" style="stop-color:#13653F"/>
	</linearGradient>
	<path fill="url(#SVGID_5_)" d="M315.108,497.874h-34.995v-90.57c0-8.798,7.206-14.945,17.504-14.945h1.269
		c9.251,0,16.223,6.424,16.223,14.945V497.874z M284.844,493.144h25.535v-85.84c0-6.707-5.777-10.209-11.493-10.209h-1.269
		c-7.637,0-12.773,4.103-12.773,10.209V493.144z"/>
</g>
<g id="path13_54_">
	<linearGradient id="SVGID_6_" gradientUnits="userSpaceOnUse" x1="289.1299" y1="404.25" x2="237.5251" y2="493.632">
		<stop  offset="0" style="stop-color:#2EC425"/>
		<stop  offset="0.1756" style="stop-color:#2CBE27"/>
		<stop  offset="0.4049" style="stop-color:#28AE2B"/>
		<stop  offset="0.6638" style="stop-color:#209332"/>
		<stop  offset="0.9427" style="stop-color:#156E3D"/>
		<stop  offset="1" style="stop-color:#13653F"/>
	</linearGradient>
	<path fill="url(#SVGID_6_)" d="M279.843,497.874h-34.971v-90.57c0-8.798,7.193-14.945,17.504-14.945h1.256
		c9.238,0,16.211,6.424,16.211,14.945V497.874z M249.602,493.144h25.511v-85.84c0-6.707-5.777-10.209-11.48-10.209h-1.256
		c-7.649,0-12.774,4.103-12.774,10.209V493.144z"/>
</g>
<g id="path13_53_">
	<linearGradient id="SVGID_7_" gradientUnits="userSpaceOnUse" x1="575.9912" y1="404.25" x2="524.3824" y2="493.639">
		<stop  offset="0" style="stop-color:#2EC425"/>
		<stop  offset="0.1756" style="stop-color:#2CBE27"/>
		<stop  offset="0.4049" style="stop-color:#28AE2B"/>
		<stop  offset="0.6638" style="stop-color:#209332"/>
		<stop  offset="0.9427" style="stop-color:#156E3D"/>
		<stop  offset="1" style="stop-color:#13653F"/>
	</linearGradient>
	<path fill="url(#SVGID_7_)" d="M566.714,497.874h-34.995v-90.57c0-8.798,7.206-14.945,17.504-14.945h1.269
		c9.238,0,16.223,6.424,16.223,14.945V497.874z M536.449,493.144h25.522v-85.84c0-6.707-5.777-10.209-11.48-10.209h-1.269
		c-7.637,0-12.773,4.103-12.773,10.209V493.144z"/>
</g>
<g id="path13_52_">
	<linearGradient id="SVGID_8_" gradientUnits="userSpaceOnUse" x1="540.7354" y1="404.2451" x2="489.1222" y2="493.6417">
		<stop  offset="0" style="stop-color:#2EC425"/>
		<stop  offset="0.1756" style="stop-color:#2CBE27"/>
		<stop  offset="0.4049" style="stop-color:#28AE2B"/>
		<stop  offset="0.6638" style="stop-color:#209332"/>
		<stop  offset="0.9427" style="stop-color:#156E3D"/>
		<stop  offset="1" style="stop-color:#13653F"/>
	</linearGradient>
	<path fill="url(#SVGID_8_)" d="M531.46,497.874h-35.007v-90.57c0-8.798,7.218-14.945,17.54-14.945h1.244
		c9.251,0,16.223,6.424,16.223,14.945V497.874z M501.183,493.144h25.548v-85.84c0-6.707-5.777-10.209-11.493-10.209h-1.244
		c-7.661,0-12.811,4.103-12.811,10.209V493.144z"/>
</g>
</svg>
