<?xml version="1.0" encoding="utf-8"?>
<!-- Generator: Adobe Illustrator 16.0.0, SVG Export Plug-In . SVG Version: 6.00 Build 0)  -->
<!DOCTYPE svg PUBLIC "-//W3C//DTD SVG 1.1//EN" "http://www.w3.org/Graphics/SVG/1.1/DTD/svg11.dtd">
<svg version="1.1" id="Layer_1" xmlns="http://www.w3.org/2000/svg" xmlns:xlink="http://www.w3.org/1999/xlink" x="0px" y="0px"
	 width="811.574px" height="560px" viewBox="0 0 811.574 560" enable-background="new 0 0 811.574 560" xml:space="preserve">
<g>
	
		<text transform="matrix(1 0 0 1 260.3594 351.1865)" fill="#009245" font-family="'Roboto-Medium'" font-size="209.4362" letter-spacing="10">Rp</text>
	<path fill="#009245" d="M637.902,218.854l-0.41-1.299l-0.203-0.687c-0.316-0.789-0.688-1.56-1.133-2.283
		c-2.152-3.563-5.699-6.116-9.727-7.017c-6.496-1.43-12.975,1.467-16.316,7.017c-1.447,2.376-2.189,5.104-2.189,7.843
		c0,1.066,0.129,2.152,0.389,3.341l0.502,1.727c5.977,20.242,9.002,41.273,9.002,62.49c0,121.872-99.164,221.033-221.041,221.033
		c-121.881,0-221.047-99.161-221.047-221.033c0-121.89,99.166-221.051,221.047-221.051c22.943,0,45.59,3.518,67.307,10.47
		c0.947,0.417,1.908,0.732,2.877,0.928c1.041,0.232,2.08,0.324,3.119,0.324c6.33,0,11.898-3.814,14.182-9.717
		c0.688-1.773,1.059-3.629,1.059-5.504c0-6.998-4.92-13.198-11.732-14.813c-24.781-7.982-50.639-12.01-76.811-12.01
		c-138.625,0-251.393,112.767-251.393,251.372c0,138.606,112.768,251.373,251.393,251.373
		c138.605,0,251.367-112.767,251.367-251.373C648.143,265.818,644.695,241.892,637.902,218.854z"/>
	<path fill="#009245" d="M649.986,107.332h-72.469V34.846c0-8.929-7.258-16.205-16.205-16.205c-8.928,0-16.205,7.276-16.205,16.205
		v72.486h-72.467c-8.93,0-16.205,7.258-16.205,16.187c0,8.919,7.275,16.195,16.205,16.195h72.467v72.478
		c0,8.938,7.277,16.205,16.205,16.205c8.947,0,16.205-7.268,16.205-16.205v-72.478h72.469c8.928,0,16.205-7.276,16.205-16.195
		C666.191,114.59,658.914,107.332,649.986,107.332z"/>
</g>
</svg>
