<?xml version="1.0" encoding="utf-8"?>
<!-- Generator: Adobe Illustrator 16.0.0, SVG Export Plug-In . SVG Version: 6.00 Build 0)  -->
<!DOCTYPE svg PUBLIC "-//W3C//DTD SVG 1.1//EN" "http://www.w3.org/Graphics/SVG/1.1/DTD/svg11.dtd">
<svg version="1.1" id="Layer_1" xmlns="http://www.w3.org/2000/svg" xmlns:xlink="http://www.w3.org/1999/xlink" x="0px" y="0px"
	 width="811.574px" height="560px" viewBox="0 0 811.574 560" enable-background="new 0 0 811.574 560" xml:space="preserve">
<g id="path7_10_">
	<linearGradient id="SVGID_1_" gradientUnits="userSpaceOnUse" x1="577.8672" y1="-7.4316" x2="233.7122" y2="588.6621">
		<stop  offset="0" style="stop-color:#2EC425"/>
		<stop  offset="0.1756" style="stop-color:#2CBE27"/>
		<stop  offset="0.4049" style="stop-color:#28AE2B"/>
		<stop  offset="0.6638" style="stop-color:#209332"/>
		<stop  offset="0.9427" style="stop-color:#156E3D"/>
		<stop  offset="1" style="stop-color:#13653F"/>
	</linearGradient>
	<path fill="url(#SVGID_1_)" d="M628.943,541.359H183.262c-53.311,0-96.674-34.291-96.674-76.441V115.965
		c0-41.807,43.363-75.832,96.674-75.832h10.172v-3.209c0-10.074,10.465-18.283,23.328-18.283c12.525,0,22.711,8.209,22.711,18.283
		v3.209h29.814v-3.209c0-10.074,10.186-18.283,22.711-18.283c12.863,0,23.342,8.209,23.342,18.283v3.209h29.816v-3.209
		c0-10.074,10.172-18.283,22.697-18.283c12.861,0,23.342,8.209,23.342,18.283v3.209h29.814v-3.209
		c0-10.074,10.186-18.283,22.711-18.283c12.863,0,23.342,8.209,23.342,18.283v3.209h29.816v-3.209
		c0-10.074,10.186-18.283,22.711-18.283c12.512,0,22.697,8.209,22.697,18.283v3.209h30.432v-3.209
		c0-10.074,10.186-18.283,22.711-18.283s22.725,8.209,22.725,18.283v3.209h10.789c52.961,0,96.043,34.025,96.043,75.832v348.953
		C724.986,507.068,681.904,541.359,628.943,541.359z M183.262,46.354c-49.879,0-90.453,31.23-90.453,69.611v348.953
		c0,38.711,40.574,70.221,90.453,70.221h445.682c49.527,0,89.822-31.51,89.822-70.221V115.965c0-38.381-40.295-69.611-89.822-69.611
		h-17.01v-9.43c0-6.535-7.564-12.063-16.504-12.063s-16.49,5.527-16.49,12.063v9.43h-42.873v-9.43
		c0-6.535-7.553-12.063-16.477-12.063c-8.939,0-16.49,5.527-16.49,12.063v9.43h-42.258v-9.43c0-6.535-7.846-12.063-17.121-12.063
		c-8.938,0-16.49,5.527-16.49,12.063v9.43h-42.256v-9.43c0-6.641-7.678-12.063-17.121-12.063c-8.939,0-16.477,5.527-16.477,12.063
		v9.43h-42.258v-9.43c0-6.535-7.846-12.063-17.121-12.063c-8.938,0-16.49,5.527-16.49,12.063v9.43h-42.256v-9.43
		c0-6.535-7.553-12.063-16.49-12.063c-9.43,0-17.107,5.422-17.107,12.063v9.43H183.262z M628.943,504.063H183.262
		c-26.816,0-48.631-17.563-48.631-39.145V115.965c0-21.598,21.814-39.16,48.631-39.16h16.393v43.924l-1.332,0.939
		c-6.066,4.252-9.414,9.863-9.414,15.783c0,11.531,12.496,20.91,27.854,20.91c15.271,0,27.236-9.184,27.236-20.91
		c0-6.402-3.223-11.832-9.316-15.713l-1.43-0.91V76.805h42.256v43.924l-1.33,0.939c-6.066,4.252-9.416,9.863-9.416,15.783
		c0,11.531,12.498,20.91,27.867,20.91c14.754,0,27.236-9.582,27.236-20.91c0-5.92-3.348-11.531-9.428-15.783l-1.318-0.939V76.805
		h42.258v43.924l-1.332,0.939c-6.066,4.246-9.414,9.857-9.414,15.783c0,11.328,12.469,20.91,27.223,20.91
		c15.369,0,27.881-9.379,27.881-20.91c0-5.926-3.348-11.531-9.43-15.783l-1.33-0.939V76.805h42.256v43.924l-1.33,0.939
		c-6.066,4.246-9.402,9.857-9.402,15.783c0,11.727,11.951,20.91,27.223,20.91c15.355,0,27.854-9.379,27.854-20.91
		c0-5.926-3.348-11.537-9.414-15.783l-1.318-0.939V76.805H503.1v44.023l-1.443,0.91c-6.096,3.881-9.318,9.311-9.318,15.713
		c0,11.727,11.967,20.91,27.252,20.91c15.355,0,27.854-9.379,27.854-20.91c0-5.926-3.35-11.537-9.416-15.783l-1.33-0.939V76.805
		h42.242v44.008l-1.443,0.926c-4.525,2.887-9.92,7.957-9.92,15.713c0,11.531,12.498,20.91,27.854,20.91
		c15.369,0,27.881-9.379,27.881-20.91c0-7.762-5.408-12.834-9.934-15.713l-1.443-0.91V76.805h17.01
		c26.816,0,48.631,17.563,48.631,39.16v348.953C677.574,486.5,655.76,504.063,628.943,504.063z M183.262,83.02
		c-23.385,0-42.41,14.781-42.41,32.945v348.953c0,18.158,19.025,32.924,42.41,32.924h445.682c23.385,0,42.41-14.766,42.41-32.924
		V115.965c0-18.164-19.025-32.945-42.41-32.945h-10.789v34.432c7.357,5.191,11.377,12.238,11.377,20
		c0,14.957-15.299,27.131-34.102,27.131c-18.789,0-34.074-12.174-34.074-27.131c0-7.756,4.021-14.803,11.363-19.986V83.02h-29.801
		v34.521c6.936,5.34,10.746,12.352,10.746,19.91c0,14.957-15.285,27.131-34.074,27.131c-18.775,0-33.473-11.922-33.473-27.131
		c0-8.105,3.713-14.984,10.762-19.986V83.02h-29.816v34.521c6.936,5.346,10.732,12.365,10.732,19.91
		c0,14.957-15.285,27.131-34.074,27.131c-18.76,0-33.443-11.922-33.443-27.131c0-7.545,3.797-14.564,10.732-19.91V83.02h-29.814
		v34.521c6.949,5.346,10.76,12.365,10.76,19.91c0,14.957-15.299,27.131-34.102,27.131c-18.439,0-33.443-12.174-33.443-27.131
		c0-7.559,3.797-14.57,10.746-19.91V83.02H315.34v34.521c6.936,5.354,10.746,12.365,10.746,19.91
		c0,14.957-15.004,27.131-33.457,27.131c-18.803,0-34.088-12.174-34.088-27.131c0-7.545,3.797-14.557,10.746-19.91V83.02h-29.814
		v34.445c7.033,5.016,10.746,11.895,10.746,19.986c0,15.209-14.697,27.131-33.457,27.131c-18.789,0-34.074-12.174-34.074-27.131
		c0-7.545,3.797-14.557,10.746-19.91V83.02H183.262z M595.43,148.148c-7.061,0-12.582-4.693-12.582-10.697V36.924
		c0-5.688,5.871-10.689,12.582-10.689c7.174,0,13.24,4.902,13.24,10.689v100.527C608.67,143.553,602.982,148.148,595.43,148.148z
		 M595.43,32.461c-3.629,0-6.361,2.711-6.361,4.463v100.527c0,2.473,2.844,4.477,6.361,4.477c3.992,0,7.02-1.92,7.02-4.477V36.924
		C602.449,35.145,599.646,32.461,595.43,32.461z M519.59,148.148c-7.063,0-12.596-4.693-12.596-10.697V36.924
		c0-5.688,5.885-10.689,12.596-10.689c7.16,0,13.211,4.902,13.211,10.689v100.527C532.801,143.553,527.113,148.148,519.59,148.148z
		 M519.59,32.461c-3.643,0-6.375,2.711-6.375,4.463v100.527c0,2.473,2.857,4.477,6.375,4.477c3.979,0,6.99-1.92,6.99-4.477V36.924
		C526.58,35.145,523.793,32.461,519.59,32.461z M443.721,148.148c-7.061,0-12.596-4.693-12.596-10.697V36.924
		c0-5.688,5.885-10.689,12.596-10.689c7.16,0,13.227,4.902,13.227,10.689v100.527C456.947,143.553,451.26,148.148,443.721,148.148z
		 M443.721,32.461c-3.643,0-6.375,2.711-6.375,4.463v100.527c0,2.473,2.859,4.477,6.375,4.477c3.994,0,7.006-1.92,7.006-4.477
		V36.924C450.727,35.145,447.924,32.461,443.721,32.461z M367.854,148.148c-7.063,0-12.582-4.693-12.582-10.697V36.924
		c0-5.688,5.871-10.689,12.582-10.689c7.158,0,13.227,4.902,13.227,10.689v100.527C381.08,143.553,375.391,148.148,367.854,148.148z
		 M367.854,32.461c-3.629,0-6.361,2.711-6.361,4.463v100.527c0,2.473,2.844,4.477,6.361,4.477c3.992,0,7.006-1.92,7.006-4.477
		V36.924C374.859,35.145,372.057,32.461,367.854,32.461z M292.629,148.148c-7.537,0-13.227-4.596-13.227-10.697V36.924
		c0-5.787,6.053-10.689,13.227-10.689c6.711,0,12.596,5.002,12.596,10.689v100.527C305.225,143.455,299.691,148.148,292.629,148.148
		z M292.629,32.461c-4.217,0-7.006,2.684-7.006,4.463v100.527c0,2.557,3.014,4.477,7.006,4.477c3.518,0,6.375-2.004,6.375-4.477
		V36.924C299.004,35.172,296.258,32.461,292.629,32.461z M216.762,148.148c-7.539,0-13.227-4.596-13.227-10.697V36.924
		c0-5.787,6.053-10.689,13.227-10.689c6.711,0,12.596,5.002,12.596,10.689v100.527C229.357,143.455,223.822,148.148,216.762,148.148
		z M216.762,32.461c-4.219,0-7.006,2.684-7.006,4.463v100.527c0,2.557,3.012,4.477,7.006,4.477c3.516,0,6.375-2.004,6.375-4.477
		V36.924C223.137,35.172,220.391,32.461,216.762,32.461z"/>
</g>
<g id="path9_10_">
	<linearGradient id="SVGID_2_" gradientUnits="userSpaceOnUse" x1="576.4102" y1="312.6816" x2="491.5945" y2="459.5867">
		<stop  offset="0" style="stop-color:#2EC425"/>
		<stop  offset="0.1756" style="stop-color:#2CBE27"/>
		<stop  offset="0.4049" style="stop-color:#28AE2B"/>
		<stop  offset="0.6638" style="stop-color:#209332"/>
		<stop  offset="0.9427" style="stop-color:#156E3D"/>
		<stop  offset="1" style="stop-color:#13653F"/>
	</linearGradient>
	<path fill="url(#SVGID_2_)" d="M591.016,321.42c-2.521-0.631-5.057-1.906-6.949-3.168c-15.174-5.688-33.514-9.484-49.961-9.484
		c-29.059,0-61.941,10.115-80.268,34.145c-21.508,28.449-22.754,67.014,3.152,92.934c53.744,55.621,177.012,25.904,175.105-59.42
		C631.465,350.492,613.139,332.166,591.016,321.42z M506.293,450.998c-41.723-10.096-73.332-46.762-53.086-90.398
		c5.688-10.738,13.268-23.377,24.014-29.709c12.639-7.58,27.182-13.268,41.725-15.16c17.695-1.904,33.514,3.783,49.947,10.117
		c12.639,4.412,24.66,8.854,36.021,15.789c20.246,13.283,20.246,42.369,11.393,61.969
		C597.965,445.961,548.018,461.135,506.293,450.998z"/>
</g>
<g id="path11_10_">
	<linearGradient id="SVGID_3_" gradientUnits="userSpaceOnUse" x1="245.2578" y1="198.582" x2="199.985" y2="276.9969">
		<stop  offset="0" style="stop-color:#2EC425"/>
		<stop  offset="0.1756" style="stop-color:#2CBE27"/>
		<stop  offset="0.4049" style="stop-color:#28AE2B"/>
		<stop  offset="0.6638" style="stop-color:#209332"/>
		<stop  offset="0.9427" style="stop-color:#156E3D"/>
		<stop  offset="1" style="stop-color:#13653F"/>
	</linearGradient>
	<path fill="url(#SVGID_3_)" d="M253.428,253.775c-7.58-8.855-15.805-17.064-23.385-25.289c6.963-7.594,14.543-15.174,19.602-24.016
		c1.891-2.557-2.537-6.332-5.059-3.797c-6.963,7.58-13.912,14.529-20.861,21.494c-5.689-6.334-12.021-12.639-17.709-18.971
		c-0.631-0.631-1.262-1.283-1.893-1.893h-0.631c-2.521-0.631-5.057,1.893-4.426,4.42c3.152,8.85,10.746,16.443,17.695,23.393
		c-1.262,1.26-3.152,3.166-4.428,4.426c-6.949,7.596-25.906,23.385-24.645,34.775c0,1.893,2.535,3.783,4.412,2.521
		c5.703-3.166,8.225-8.84,12.652-13.281c5.688-7.58,12.008-15.174,18.971-22.123c7.58,8.855,15.16,20.246,25.92,24.658
		C253.428,261.355,255.963,256.297,253.428,253.775z"/>
</g>
<g id="path13_51_">
	<linearGradient id="SVGID_4_" gradientUnits="userSpaceOnUse" x1="335.0273" y1="198.583" x2="289.7549" y2="276.9972">
		<stop  offset="0" style="stop-color:#2EC425"/>
		<stop  offset="0.1756" style="stop-color:#2CBE27"/>
		<stop  offset="0.4049" style="stop-color:#28AE2B"/>
		<stop  offset="0.6638" style="stop-color:#209332"/>
		<stop  offset="0.9427" style="stop-color:#156E3D"/>
		<stop  offset="1" style="stop-color:#13653F"/>
	</linearGradient>
	<path fill="url(#SVGID_4_)" d="M343.207,253.775c-7.594-8.855-15.172-17.064-23.396-25.289c6.949-7.594,14.543-15.174,19.6-24.016
		c1.893-2.557-2.535-6.332-5.057-3.797c-6.318,7.58-13.912,14.529-20.861,21.494c-5.689-6.334-12.008-12.639-17.697-18.971
		c0-0.631-0.645-1.283-1.904-1.893c0,0,0,0-0.631,0c-2.535-0.631-5.059,1.893-4.428,4.42c3.166,8.85,10.746,16.443,17.709,23.393
		c-1.273,1.26-2.535,3.166-4.426,4.426c-6.965,7.596-25.92,23.385-24.66,34.775c0,1.893,2.537,3.783,4.428,2.521
		c5.689-3.166,8.842-8.84,12.639-13.281c5.688-7.58,12.65-15.174,18.971-22.123c7.578,8.855,15.172,20.246,25.918,24.658
		C343.207,261.355,345.73,256.297,343.207,253.775z"/>
</g>
<g id="path15_12_">
	<linearGradient id="SVGID_5_" gradientUnits="userSpaceOnUse" x1="425.084" y1="198.6758" x2="379.8" y2="277.1099">
		<stop  offset="0" style="stop-color:#2EC425"/>
		<stop  offset="0.1756" style="stop-color:#2CBE27"/>
		<stop  offset="0.4049" style="stop-color:#28AE2B"/>
		<stop  offset="0.6638" style="stop-color:#209332"/>
		<stop  offset="0.9427" style="stop-color:#156E3D"/>
		<stop  offset="1" style="stop-color:#13653F"/>
	</linearGradient>
	<path fill="url(#SVGID_5_)" d="M432.961,253.775c-7.58-8.855-15.16-17.064-23.383-25.289c7.594-7.594,14.543-15.174,19.6-24.016
		c1.906-2.557-2.521-6.332-4.428-3.797c-6.949,7.58-13.912,14.529-20.848,21.494c-6.332-6.334-12.021-12.639-18.34-18.971
		c0-0.631-0.631-1.283-1.904-1.893l0,0c-2.523-0.631-5.689,1.893-4.414,4.42c3.152,8.85,10.115,16.443,17.695,23.393
		c-1.906,1.26-3.166,3.166-4.428,4.426c-6.949,7.596-26.551,23.385-25.289,34.775c0,1.893,2.535,3.783,5.059,2.521
		c5.057-3.166,8.223-8.84,12.021-13.281c6.318-7.58,12.637-15.174,18.955-22.123c7.58,8.855,15.16,20.246,26.551,24.658
		C433.592,261.355,435.496,256.297,432.961,253.775z"/>
</g>
<g id="path17_12_">
	<linearGradient id="SVGID_6_" gradientUnits="userSpaceOnUse" x1="239.3555" y1="287.54" x2="194.0593" y2="365.9952">
		<stop  offset="0" style="stop-color:#2EC425"/>
		<stop  offset="0.1756" style="stop-color:#2CBE27"/>
		<stop  offset="0.4049" style="stop-color:#28AE2B"/>
		<stop  offset="0.6638" style="stop-color:#209332"/>
		<stop  offset="0.9427" style="stop-color:#156E3D"/>
		<stop  offset="1" style="stop-color:#13653F"/>
	</linearGradient>
	<path fill="url(#SVGID_6_)" d="M247.738,342.281c-8.209-8.225-15.803-16.434-24.014-24.658c7.58-7.58,14.529-15.182,19.586-24.029
		c1.906-3.166-1.891-6.326-4.426-3.783c-6.949,6.949-13.9,13.914-20.85,20.863c-6.332-5.703-12.02-12.021-17.709-18.342
		c-0.631-1.26-1.26-1.904-2.521-1.904l0,0c-2.521-1.254-5.059,1.904-4.428,3.811c3.166,9.486,10.115,17.059,17.695,24.014
		c-1.891,1.262-3.152,3.168-4.428,4.428c-6.949,7.58-26.549,22.754-25.275,34.145c0,2.521,2.523,3.775,5.059,3.152
		c5.674-3.152,8.211-8.854,12.008-13.912c6.318-7.588,12.637-14.529,18.971-21.5c8.209,8.232,15.158,20.238,26.535,24.035
		C247.738,350.492,249.645,344.803,247.738,342.281z"/>
</g>
<g id="path19_10_">
	<linearGradient id="SVGID_7_" gradientUnits="userSpaceOnUse" x1="329.1924" y1="287.4258" x2="283.8868" y2="365.8973">
		<stop  offset="0" style="stop-color:#2EC425"/>
		<stop  offset="0.1756" style="stop-color:#2CBE27"/>
		<stop  offset="0.4049" style="stop-color:#28AE2B"/>
		<stop  offset="0.6638" style="stop-color:#209332"/>
		<stop  offset="0.9427" style="stop-color:#156E3D"/>
		<stop  offset="1" style="stop-color:#13653F"/>
	</linearGradient>
	<path fill="url(#SVGID_7_)" d="M337.52,342.281c-7.594-8.225-15.805-16.434-23.398-24.658c6.949-7.58,13.914-15.182,19.602-24.029
		c1.891-3.166-2.535-6.326-5.059-3.783c-6.949,6.949-13.912,13.914-20.861,20.863c-6.318-5.703-12.008-12.021-17.709-18.342
		c-0.631-1.26-1.262-1.904-1.893-1.904c-0.629,0-0.629,0-0.629,0c-2.537-1.254-5.059,1.904-4.414,3.811
		c3.152,9.486,10.732,17.059,17.695,24.014c-1.275,1.262-3.166,3.168-4.428,4.428c-6.963,7.58-25.92,22.754-25.303,34.145
		c0.645,2.521,2.535,3.775,5.072,3.152c5.688-3.152,8.209-8.854,12.006-13.912c6.32-7.588,12.652-14.529,18.971-21.5
		c8.225,8.232,15.805,20.238,26.551,24.035C337.52,350.492,339.41,344.803,337.52,342.281z"/>
</g>
<g id="path21_9_">
	<linearGradient id="SVGID_8_" gradientUnits="userSpaceOnUse" x1="419.043" y1="287.4766" x2="373.8171" y2="365.81">
		<stop  offset="0" style="stop-color:#2EC425"/>
		<stop  offset="0.1756" style="stop-color:#2CBE27"/>
		<stop  offset="0.4049" style="stop-color:#28AE2B"/>
		<stop  offset="0.6638" style="stop-color:#209332"/>
		<stop  offset="0.9427" style="stop-color:#156E3D"/>
		<stop  offset="1" style="stop-color:#13653F"/>
	</linearGradient>
	<path fill="url(#SVGID_8_)" d="M427.287,342.281c-7.594-8.225-15.805-16.434-23.385-24.658c6.936-7.58,14.516-15.182,19.588-24.029
		c1.891-3.166-2.537-6.326-5.072-3.783c-6.936,6.949-13.898,13.914-20.848,20.863c-5.689-5.703-12.008-12.021-17.695-18.342
		c-0.631-1.26-1.275-1.904-1.906-1.904h-0.631c-2.521-1.254-5.057,1.904-4.428,3.811c3.168,9.486,10.748,17.059,17.711,24.014
		c-1.262,1.262-3.166,3.168-4.428,4.428c-6.949,7.58-25.92,22.754-24.66,34.145c0,2.521,2.523,3.775,4.428,3.152
		c5.689-3.152,8.211-8.854,12.639-13.912c5.703-7.588,12.021-14.529,18.971-21.5c7.594,8.232,15.174,20.238,25.92,24.035
		C427.287,350.492,429.809,344.803,427.287,342.281z"/>
</g>
<g id="path23_9_">
	<linearGradient id="SVGID_9_" gradientUnits="userSpaceOnUse" x1="228.9229" y1="376.0176" x2="183.7236" y2="454.3049">
		<stop  offset="0" style="stop-color:#2EC425"/>
		<stop  offset="0.1756" style="stop-color:#2CBE27"/>
		<stop  offset="0.4049" style="stop-color:#28AE2B"/>
		<stop  offset="0.6638" style="stop-color:#209332"/>
		<stop  offset="0.9427" style="stop-color:#156E3D"/>
		<stop  offset="1" style="stop-color:#13653F"/>
	</linearGradient>
	<path fill="url(#SVGID_9_)" d="M237.006,430.787c-7.607-8.225-15.174-17.078-23.396-25.289c7.578-6.949,14.543-14.543,19.6-23.398
		c1.893-3.152-2.535-6.318-4.426-3.797c-6.951,6.963-13.914,13.912-20.863,20.877c-6.332-6.334-12.021-12.652-18.34-18.971
		c0-0.631-0.631-1.262-1.891-1.262v-0.645c-2.537-0.617-5.689,1.906-4.428,4.428c3.166,9.484,10.115,17.078,17.709,23.398
		c-1.904,1.904-3.166,3.152-4.428,5.057c-6.963,6.965-26.564,22.754-25.289,34.145c0,2.521,2.521,3.783,5.059,2.521
		c5.057-3.166,8.209-8.223,12.006-13.281c6.32-7.58,12.652-14.543,18.971-21.492c8.211,8.225,15.174,20.23,26.537,24.027
		C237.623,438.367,239.529,433.309,237.006,430.787z"/>
</g>
<g id="path25_9_">
	<linearGradient id="SVGID_10_" gradientUnits="userSpaceOnUse" x1="318.8994" y1="375.9541" x2="273.6819" y2="454.2732">
		<stop  offset="0" style="stop-color:#2EC425"/>
		<stop  offset="0.1756" style="stop-color:#2CBE27"/>
		<stop  offset="0.4049" style="stop-color:#28AE2B"/>
		<stop  offset="0.6638" style="stop-color:#209332"/>
		<stop  offset="0.9427" style="stop-color:#156E3D"/>
		<stop  offset="1" style="stop-color:#13653F"/>
	</linearGradient>
	<path fill="url(#SVGID_10_)" d="M327.391,430.787c-7.58-8.225-15.805-17.078-23.385-25.289
		c6.963-6.949,13.898-14.543,19.602-23.398c1.275-3.152-2.537-6.318-5.059-3.797c-6.963,6.963-13.912,13.912-20.861,20.877
		c-6.318-6.334-12.021-12.652-17.695-18.971c-0.645-0.631-1.262-1.262-2.537-1.262v-0.645c-2.521-0.617-5.057,1.906-4.428,4.428
		c3.168,9.484,10.748,17.078,17.697,23.398c-1.893,1.904-3.152,3.152-4.414,5.057c-6.963,6.965-25.92,22.754-25.289,34.145
		c0.631,2.521,2.521,3.783,5.057,2.521c5.689-3.166,8.211-8.223,12.008-13.281c6.318-7.58,12.639-14.543,18.971-21.492
		c8.211,8.225,15.791,20.23,26.551,24.027C327.391,438.367,329.295,433.309,327.391,430.787z"/>
</g>
<g id="path27_9_">
	<linearGradient id="SVGID_11_" gradientUnits="userSpaceOnUse" x1="408.8086" y1="375.917" x2="363.5393" y2="454.3257">
		<stop  offset="0" style="stop-color:#2EC425"/>
		<stop  offset="0.1756" style="stop-color:#2CBE27"/>
		<stop  offset="0.4049" style="stop-color:#28AE2B"/>
		<stop  offset="0.6638" style="stop-color:#209332"/>
		<stop  offset="0.9427" style="stop-color:#156E3D"/>
		<stop  offset="1" style="stop-color:#13653F"/>
	</linearGradient>
	<path fill="url(#SVGID_11_)" d="M417.172,430.787c-7.594-8.225-15.818-17.078-23.398-25.289
		c6.949-6.949,14.543-14.543,19.615-23.398c1.877-3.152-2.551-6.318-5.072-3.797c-6.963,6.963-13.898,13.912-20.861,20.877
		c-5.689-6.334-12.008-12.652-17.697-18.971c-0.645-0.631-1.275-1.262-1.904-1.262c-0.631,0-0.631-0.645-0.631-0.645
		c-2.521-0.617-5.045,1.906-4.428,4.428c3.166,9.484,10.746,17.078,17.709,23.398c-1.26,1.904-3.166,3.152-4.426,5.057
		c-6.965,6.965-25.92,22.754-25.291,34.145c0.631,2.521,2.523,3.783,5.059,2.521c5.688-3.166,8.211-8.223,12.637-13.281
		c5.689-7.58,12.021-14.543,18.328-21.492c8.223,8.225,15.816,20.23,26.578,24.027C417.172,438.367,419.693,433.309,417.172,430.787
		z"/>
</g>
<g id="path29_9_">
	<linearGradient id="SVGID_12_" gradientUnits="userSpaceOnUse" x1="515.0654" y1="198.6191" x2="469.761" y2="277.0887">
		<stop  offset="0" style="stop-color:#2EC425"/>
		<stop  offset="0.1756" style="stop-color:#2CBE27"/>
		<stop  offset="0.4049" style="stop-color:#28AE2B"/>
		<stop  offset="0.6638" style="stop-color:#209332"/>
		<stop  offset="0.9427" style="stop-color:#156E3D"/>
		<stop  offset="1" style="stop-color:#13653F"/>
	</linearGradient>
	<path fill="url(#SVGID_12_)" d="M523.373,253.775c-7.594-8.855-15.805-17.064-23.385-25.289
		c6.936-7.594,13.898-15.174,19.602-24.016c1.246-2.557-2.537-6.332-5.059-3.797c-6.963,7.58-13.912,14.529-20.875,21.494
		c-6.305-6.334-12.008-12.639-17.695-18.971c-0.631-0.631-1.275-1.283-2.523-1.893l0,0c-2.535-0.631-5.057,1.893-4.426,4.42
		c3.152,8.85,10.73,16.443,17.695,23.393c-1.893,1.26-3.168,3.166-4.428,4.426c-6.949,7.596-25.92,23.385-25.289,34.775
		c0.629,1.893,2.535,3.783,5.057,2.521c5.703-3.166,8.225-8.84,12.008-13.281c6.332-7.58,12.652-15.174,18.971-22.123
		c8.225,8.855,15.805,20.246,26.564,24.658C523.373,261.355,525.264,256.297,523.373,253.775z"/>
</g>
<g id="path31_9_">
	<linearGradient id="SVGID_13_" gradientUnits="userSpaceOnUse" x1="604.9668" y1="198.582" x2="559.615" y2="277.1337">
		<stop  offset="0" style="stop-color:#2EC425"/>
		<stop  offset="0.1756" style="stop-color:#2CBE27"/>
		<stop  offset="0.4049" style="stop-color:#28AE2B"/>
		<stop  offset="0.6638" style="stop-color:#209332"/>
		<stop  offset="0.9427" style="stop-color:#156E3D"/>
		<stop  offset="1" style="stop-color:#13653F"/>
	</linearGradient>
	<path fill="url(#SVGID_13_)" d="M613.139,253.775c-7.58-8.855-15.803-17.064-23.396-25.289c6.963-7.594,14.543-15.174,19.6-24.016
		c1.906-2.557-2.521-6.332-5.057-3.797c-6.949,7.58-13.914,14.529-20.848,21.494c-5.703-6.334-12.021-12.639-17.711-18.971
		c-0.631-0.631-1.26-1.283-1.891-1.893c-0.631,0-0.631,0-0.631,0c-2.521-0.631-5.072,1.893-4.428,4.42
		c3.152,8.85,10.746,16.443,17.695,23.393c-1.246,1.26-3.152,3.166-4.428,4.426c-6.949,7.596-25.904,23.385-25.275,34.775
		c0.631,1.893,2.523,3.783,5.059,2.521c5.674-3.166,8.211-8.84,12.639-13.281c5.688-7.58,12.006-15.174,18.326-22.123
		c8.223,8.855,15.816,20.246,26.549,24.658C613.139,261.355,615.676,256.297,613.139,253.775z"/>
</g>
<g id="path33_9_">
	<linearGradient id="SVGID_14_" gradientUnits="userSpaceOnUse" x1="554.1338" y1="336.7939" x2="503.0303" y2="425.3078">
		<stop  offset="0" style="stop-color:#2EC425"/>
		<stop  offset="0.1756" style="stop-color:#2CBE27"/>
		<stop  offset="0.4049" style="stop-color:#28AE2B"/>
		<stop  offset="0.6638" style="stop-color:#209332"/>
		<stop  offset="0.9427" style="stop-color:#156E3D"/>
		<stop  offset="1" style="stop-color:#13653F"/>
	</linearGradient>
	<path fill="url(#SVGID_14_)" d="M525.895,353.027c0,0,14.543,21.492,29.717,12.008c15.174-9.492,18.971-16.436,18.971-16.436
		s-5.689,28.441-23.398,30.979c-17.078,1.891-25.289-15.174-25.289-15.174s16.449,45.521,16.449,59.42
		c0,14.543-10.117,18.34-10.117,18.34s-17.064-77.76-29.086-89.137c-2.521-1.904,13.912-10.115,13.912-10.115L525.895,353.027z"/>
</g>
</svg>
