<?xml version="1.0" encoding="utf-8"?>
<!-- Generator: Adobe Illustrator 16.0.0, SVG Export Plug-In . SVG Version: 6.00 Build 0)  -->
<!DOCTYPE svg PUBLIC "-//W3C//DTD SVG 1.1//EN" "http://www.w3.org/Graphics/SVG/1.1/DTD/svg11.dtd">
<svg version="1.1" id="Layer_1" xmlns="http://www.w3.org/2000/svg" xmlns:xlink="http://www.w3.org/1999/xlink" x="0px" y="0px"
	 width="811.574px" height="560px" viewBox="0 0 811.574 560" enable-background="new 0 0 811.574 560" xml:space="preserve">
<g>
	<g>
		<linearGradient id="SVGID_1_" gradientUnits="userSpaceOnUse" x1="470.5908" y1="256.5215" x2="351.3479" y2="463.0563">
			<stop  offset="0" style="stop-color:#2EC425"/>
			<stop  offset="0.1756" style="stop-color:#2CBE27"/>
			<stop  offset="0.4049" style="stop-color:#28AE2B"/>
			<stop  offset="0.6638" style="stop-color:#209332"/>
			<stop  offset="0.9427" style="stop-color:#156E3D"/>
			<stop  offset="1" style="stop-color:#13653F"/>
		</linearGradient>
		<path fill="url(#SVGID_1_)" d="M503.865,276.767c-15.383-16.743-40.208,8.202-24.877,24.894
			c18.292,19.909,35.223,46.232,36.805,73.78c2.246,39.272-87.018,39.612-110.006,39.885c-28.824-0.341-95.832,0.748-109.036-33.419
			c-9.665-24.979,19.942-62.958,35.818-80.246c15.331-16.691-9.512-41.637-24.894-24.894
			c-27.226,29.624-54.161,72.776-44.871,114.481c12.234,54.994,100.427,58.771,142.982,59.266
			c44.479-0.511,121.525-3.778,141.008-54.195C562.773,354.953,530.937,306.221,503.865,276.767z"/>
		<g>
			<linearGradient id="SVGID_2_" gradientUnits="userSpaceOnUse" x1="452.1143" y1="110.2617" x2="359.4453" y2="270.769">
				<stop  offset="0" style="stop-color:#2EC425"/>
				<stop  offset="0.1756" style="stop-color:#2CBE27"/>
				<stop  offset="0.4049" style="stop-color:#28AE2B"/>
				<stop  offset="0.6638" style="stop-color:#209332"/>
				<stop  offset="0.9427" style="stop-color:#156E3D"/>
				<stop  offset="1" style="stop-color:#13653F"/>
			</linearGradient>
			<path fill="url(#SVGID_2_)" d="M405.787,283.199c-51.115,0-92.701-41.569-92.701-92.685c0-51.114,41.586-92.684,92.701-92.684
				c51.098,0,92.684,41.569,92.684,92.684C498.471,241.63,456.885,283.199,405.787,283.199z M405.787,128
				c-34.474,0-62.532,28.041-62.532,62.515c0,34.457,28.059,62.516,62.532,62.516c34.457,0,62.516-28.059,62.516-62.516
				C468.303,156.041,440.244,128,405.787,128z"/>
		</g>
	</g>
	<g>
		<linearGradient id="SVGID_3_" gradientUnits="userSpaceOnUse" x1="536.4404" y1="53.7031" x2="275.1352" y2="506.297">
			<stop  offset="0" style="stop-color:#2EC425"/>
			<stop  offset="0.1756" style="stop-color:#2CBE27"/>
			<stop  offset="0.4049" style="stop-color:#28AE2B"/>
			<stop  offset="0.6638" style="stop-color:#209332"/>
			<stop  offset="0.9427" style="stop-color:#156E3D"/>
			<stop  offset="1" style="stop-color:#13653F"/>
		</linearGradient>
		<path fill="url(#SVGID_3_)" d="M405.787,541.359c-144.105,0-261.359-117.254-261.359-261.359S261.682,18.641,405.787,18.641
			S667.146,135.895,667.146,280S549.893,541.359,405.787,541.359z M405.787,58.865c-121.934,0-221.135,99.201-221.135,221.135
			c0,121.951,99.201,221.135,221.135,221.135S626.922,401.951,626.922,280C626.922,158.066,527.721,58.865,405.787,58.865z"/>
	</g>
</g>
</svg>
