<?xml version="1.0" encoding="utf-8"?>
<!-- Generator: Adobe Illustrator 16.0.0, SVG Export Plug-In . SVG Version: 6.00 Build 0)  -->
<!DOCTYPE svg PUBLIC "-//W3C//DTD SVG 1.1//EN" "http://www.w3.org/Graphics/SVG/1.1/DTD/svg11.dtd">
<svg version="1.1" id="Layer_1" xmlns="http://www.w3.org/2000/svg" xmlns:xlink="http://www.w3.org/1999/xlink" x="0px" y="0px"
	 width="811.574px" height="560px" viewBox="0 0 811.574 560" enable-background="new 0 0 811.574 560" xml:space="preserve">
<linearGradient id="SVGID_1_" gradientUnits="userSpaceOnUse" x1="471.041" y1="131.6221" x2="340.5388" y2="357.6585">
	<stop  offset="0" style="stop-color:#2EC425"/>
	<stop  offset="0.1756" style="stop-color:#2CBE27"/>
	<stop  offset="0.4049" style="stop-color:#28AE2B"/>
	<stop  offset="0.6638" style="stop-color:#209332"/>
	<stop  offset="0.9427" style="stop-color:#156E3D"/>
	<stop  offset="1" style="stop-color:#13653F"/>
</linearGradient>
<path fill="url(#SVGID_1_)" d="M501.325,205.07v-55.964H445.36l-39.573-39.579l-39.586,39.579H310.25v55.964l-39.573,39.573
	l39.573,39.563v55.965l55.964,0.011l39.573,39.572l39.573-39.572h55.965v-55.965l39.551-39.573L501.325,205.07z M495.248,281.703
	v8.59v43.822h-43.822h-8.585l-6.076,6.066l-30.978,30.988l-30.988-30.988l-6.076-6.066l-8.574-0.021h-43.833v-43.822v-8.585
	l-6.065-6.065l-30.988-30.978l30.988-30.987l6.065-6.066v-8.585v-43.812h43.812h8.585l6.087-6.087l30.988-30.988l30.985,30.988
	l6.068,6.087h8.585h43.822v43.812v8.585l6.077,6.076l30.977,30.978l-30.977,30.988L495.248,281.703z"/>
<linearGradient id="SVGID_2_" gradientUnits="userSpaceOnUse" x1="550.6582" y1="20.6045" x2="284.1948" y2="482.1326">
	<stop  offset="0" style="stop-color:#2EC425"/>
	<stop  offset="0.1756" style="stop-color:#2CBE27"/>
	<stop  offset="0.4049" style="stop-color:#28AE2B"/>
	<stop  offset="0.6638" style="stop-color:#209332"/>
	<stop  offset="0.9427" style="stop-color:#156E3D"/>
	<stop  offset="1" style="stop-color:#13653F"/>
</linearGradient>
<path fill="url(#SVGID_2_)" d="M561.084,26.624h-14.391v-7.979h-36.827v7.979H250.49v436.05h259.376v78.682l18.414-21.733
	l18.413,21.733v-78.682h14.391V26.624z M515.586,24.364h25.388v2.26h-25.388V24.364z M540.974,525.759l-12.693-14.98l-12.694,14.98
	v-63.085h25.388V525.759z M554.965,456.549H256.609V32.744h298.355V456.549z"/>
<g>
	<linearGradient id="SVGID_3_" gradientUnits="userSpaceOnUse" x1="446.5537" y1="219.2959" x2="388.8207" y2="319.2924">
		<stop  offset="0" style="stop-color:#2EC425"/>
		<stop  offset="0.1756" style="stop-color:#2CBE27"/>
		<stop  offset="0.4049" style="stop-color:#28AE2B"/>
		<stop  offset="0.6638" style="stop-color:#209332"/>
		<stop  offset="0.9427" style="stop-color:#156E3D"/>
		<stop  offset="1" style="stop-color:#13653F"/>
	</linearGradient>
	<path fill-rule="evenodd" clip-rule="evenodd" fill="url(#SVGID_3_)" d="M483.668,261.766c-0.529,1.832-1.135,3.659-1.514,5.53
		c-0.281,1.405-1.049,2.103-2.324,2.476c-5.611,1.601-11.215,3.255-16.846,4.822c-6.974,1.946-14.002,3.698-20.933,5.773
		c-4.509,1.363-8.704,3.568-12.672,6.18c-1.73,1.157-1.763,1.39-0.887,3.281c2.584,5.585,7.36,8.293,12.975,9.915
		c0.584,0.173,1.179,0.373,1.771,0.422c1.395,0.13,1.873,0.951,1.838,2.194c-0.051,2.012-0.127,4.012-0.216,6.023
		c-0.03,0.821-0.387,1.178-1.252,1.026c-9.039-1.384-17.473-4.222-24.479-10.401c-5.409-4.779-8.617-10.888-10.718-17.678
		c-1.468-4.698-2.225-9.515-2.636-14.392c-0.032-0.335-0.098-0.67-0.216-1.438c-0.4,0.746-0.639,1.124-0.812,1.524
		c-2.356,5.374-5.471,10.304-9.634,14.402c-7.86,7.72-16.413,14.531-26.9,18.435c-4.195,1.546-8.488,1.849-12.78,0.064
		c-2.584-1.07-4.109-3.027-4.974-5.568c-1.373-4.054-1.081-8.152-0.292-12.271c1.352-7.071,4.217-13.462,7.893-19.57
		c0.076-0.151,0.217-0.271,0.541-0.319c-0.241,0.605-0.465,1.2-0.706,1.801c-1.792,4.563-3.771,9.093-5.349,13.742
		c-0.671,1.979-0.768,4.217-0.735,6.325c0.054,3.86,1.74,5.839,5.428,7.104c3.957,1.341,7.839,0.854,11.71-0.313
		c4.098-1.222,7.709-3.438,11.317-5.644c8.479-5.19,15.843-11.635,22.06-19.365c0.649-0.8,0.94-1.589,0.865-2.616
		c-0.768-9.461-2.087-18.841-4.368-28.048c-1.449-5.806-3.189-11.515-4.79-17.277c-0.108-0.4-0.194-0.865-0.098-1.266
		c0.552-2.454,1.168-4.887,1.828-7.644c1.038,1.811,2.029,3.379,2.843,5.043c3.374,6.969,5.652,14.3,6.866,21.912
		c1.555,9.741,2.844,19.511,4.228,29.279c0.043,0.271,0.13,0.552,0.433,0.876c0.292-0.692,0.595-1.384,0.854-2.108
		c2.465-6.52,6.833-11.526,12.758-14.965c5.426-3.135,11.17-5.73,16.792-8.541c2.649-1.319,2.206-0.974,1.309-3.304
		c-1.139-2.914-1.979-5.871-1.2-9.055c0.908-3.752,3.546-5.86,7.396-5.958c2.94-0.086,5.611,0.682,7.652,2.801
		c2.608,2.735,5.052,5.644,7.518,8.53c0.303,0.347,0.248,1.006,0.291,1.536c0.022,0.237-0.097,0.508-0.173,0.756
		c-1.784,5.623-1.784,5.58-7.515,6.888c-2.162,0.487-4.292,1.179-6.443,1.72c-1.027,0.27-1.579,0.751-1.471,1.892
		c0.054,0.454-0.108,0.94-0.184,1.449c-0.108-0.076-0.217-0.119-0.238-0.173c-0.832-2.087-0.844-2.108-2.94-1.417
		c-8.932,2.963-17.333,6.952-24.771,12.802c-0.497,0.4-0.951,0.854-1.676,1.492c0.627,0.141,0.962,0.249,1.309,0.281
		c15.245,1.595,30.531,1.73,45.833,1.125c5.795-0.228,11.591-0.763,17.375-1.125c0.347-0.032,0.692-0.011,1.06-0.011
		C483.668,261.067,483.668,261.414,483.668,261.766z M425.368,293.083c0.105-0.682,0.238-1.287,0.303-1.893
		c0.605-5.871,3.319-10.585,8.207-13.807c3.06-2.022,6.52-3.481,9.807-5.18c0.897-0.476,1.827-0.876,3.092-1.47
		c-12.337-0.605-24.263-1.168-36.188-1.73C409.95,276.562,418.74,291.094,425.368,293.083z M454.508,235.01
		c-1.081-0.854-1.882-1.567-2.779-2.173c-2.356-1.568-4.822-2.682-7.828-2.098c-1.254,0.26-1.438,0.8-0.919,1.763
		c0.822,1.546,1.641,3.07,2.541,4.563c0.205,0.313,0.778,0.573,1.2,0.589C449.566,237.908,451.912,236.648,454.508,235.01z"/>
	<linearGradient id="SVGID_4_" gradientUnits="userSpaceOnUse" x1="383.3394" y1="207.9082" x2="346.0391" y2="272.5142">
		<stop  offset="0" style="stop-color:#2EC425"/>
		<stop  offset="0.1756" style="stop-color:#2CBE27"/>
		<stop  offset="0.4049" style="stop-color:#28AE2B"/>
		<stop  offset="0.6638" style="stop-color:#209332"/>
		<stop  offset="0.9427" style="stop-color:#156E3D"/>
		<stop  offset="1" style="stop-color:#13653F"/>
	</linearGradient>
	<path fill-rule="evenodd" clip-rule="evenodd" fill="url(#SVGID_4_)" d="M327.903,256.786c0.359-0.962,0.728-1.914,1.084-2.865
		c0.065,0.021,0.119,0.032,0.194,0.064c-0.075,0.963-0.227,1.957-0.205,2.931c0.021,2.465,1.092,4.379,3.524,5.092
		c1.677,0.477,3.515,0.795,5.255,0.671c3.601-0.271,6.993-1.449,10.143-3.266c0.994-0.573,1.87-1.352,2.811-2.043
		c-0.021-0.162-0.043-0.341-0.054-0.497c-2.595-0.682-5.214-1.352-7.871-2.044c0.216-1.373,1.135-1.989,2.021-2.584
		c0.93-0.638,2-1.119,2.854-1.827c0.703-0.563,1.189-1.385,1.784-2.119c-0.356-0.281-0.443-0.411-0.552-0.433
		c-2.227-0.357-3.352-1.816-3.968-3.86c-0.465-1.557-1.017-1.859-2.336-0.94c-0.994,0.681-1.783,1.729-2.422,2.768
		c-0.734,1.189-1.092,2.595-1.838,3.763c-0.378,0.616-1.168,1.266-1.859,1.373c-0.963,0.151-1.646-0.627-2.022-1.557
		c-0.184-0.433-0.432-0.833-0.757-1.438c-0.705,0.563-1.329,1.06-2.162,1.709c0.281-0.931,0.497-1.665,0.725-2.411
		c0.205-0.735,0.399-1.492,0.691-2.52c0.454,0.962,0.746,1.687,1.125,2.357c0.346,0.595,0.754,1.151,1.219,1.665
		c0.63,0.687,1.333,0.644,1.906-0.065c0.627-0.821,1.222-1.708,1.729-2.605c0.616-1.06,1.092-2.195,1.72-3.232
		c0.356-0.639,0.821-1.266,1.362-1.72c2.119-1.784,2.8-1.601,3.676,0.974c0.433,1.232,0.905,2.346,2.281,2.821
		c0.938,0.335,1.471,0.081,1.611-0.843c0.162-1.125,0.335-2.26,0.303-3.385c-0.141-4.368-0.346-8.726-0.552-13.094
		c-0.021-0.41-0.187-0.821-0.378-1.665c-1.179,1.017-2.228,1.708-3.017,2.639c-1.59,1.849-3.03,3.827-4.541,5.741
		c-0.4,0.519-0.822,1.027-1.287,1.471c-1.546,1.508-3.168,1.167-3.99-0.844c-0.132-0.303-0.194-0.648-0.227-0.757
		c0.778,0.184,1.687,0.648,2.443,0.476c0.822-0.173,1.654-0.821,2.268-1.471c0.933-0.973,1.744-2.076,2.458-3.211
		c1.438-2.222,2.476-4.769,5.222-5.807c0.217-0.086,0.313-0.572,0.347-0.886c0.173-1.168,0.259-2.363,0.432-3.515
		c0.055-0.433,0.271-0.843,0.487-1.503c1.275,1.266,0.724,2.769,1.297,4.142c0.627,0,1.341-0.055,2.065,0.011
		c1.124,0.108,2.281,0.184,3.352,0.519c1.665,0.498,3.341-0.356,3.438-2.13c0.052-0.951-0.194-1.979-0.486-2.925
		c-0.692-2.135-1.524-4.222-2.249-6.368c-0.13-0.368,0.019-0.806,0.043-1.206c0.151-0.043,0.292-0.092,0.43-0.107
		c0.446,1.211,0.89,2.411,1.333,3.616c0.075-0.005,0.141-0.026,0.205-0.026c0-4.336,0-8.65,0-12.986
		c0.141-0.043,0.292-0.075,0.433-0.141c0.433,1.179,1.103,2.325,1.263,3.547c0.413,2.714,0.543,5.471,0.792,8.206
		c0.075,0.682,0.173,1.374,0.237,2.033c1.763,0.194,2.931-0.682,2.876-2.422c-0.054-2.347-0.378-4.682-0.594-7.028
		c-0.044-0.443-0.098-0.897-0.152-1.341c0.152-0.054,0.301-0.108,0.455-0.179c0.465,0.979,1.016,1.941,1.373,2.958
		c0.584,1.589,0.962,3.265,1.567,4.854c0.541,1.46,1.611,2.087,3.027,2c1.479-0.097,1.752-0.519,1.2-1.936
		c-0.821-2.043-1.786-4.076-2.39-6.195c-0.316-1.124-0.107-2.416,0.011-3.59c0.108-0.919,0.812-1.308,1.633-0.864
		c1.546,0.838,3.276,1.567,4.52,2.772c4.336,4.19,6.217,9.499,6.423,15.424c0.086,2.271,0.021,4.531,0.021,6.779
		c-0.26,0-0.508,0.012-0.768,0.012c0-1.59,0.054-3.19,0-4.79c-0.184-5.449-2.076-10.239-5.634-14.326
		c-1.243-1.46-2.725-2.682-4.844-3.428c0.584,2.184,1.2,4.13,1.622,6.108c0.281,1.298,0.433,2.655,0.433,4.012
		c-0.011,1.46-0.887,2.4-2.087,2.639c-1.449,0.291-2.952-0.336-3.611-1.525c-0.227-0.453-0.465-0.908-0.813-1.578
		c-0.462,0.6-0.809,1.06-1.176,1.524c-0.9,1.179-1.809,2.313-2.682,3.503c-0.216,0.281-0.356,0.703-0.324,1.027
		c0.108,1.222,1.425,2.66,2.692,2.66c1.081,0,2.032-0.563,2.563-1.687c0.346-0.735,0.897-1.374,1.492-2.249
		c0.213,0.476,0.303,0.584,0.303,0.691c-0.09,1.752,0.389,2.304,2.119,1.795c0.94-0.281,1.74-1.13,2.52-1.827
		c0.356-0.292,0.476-0.865,0.994-1.292c0.055,0.46-0.011,0.979,0.206,1.324c0.289,0.509,0.702,1.06,1.208,1.244
		c0.856,0.313,1.332-0.087,1.127-1.093c-0.119-0.573-0.187-1.184-0.271-1.762c0.162-0.055,0.324-0.108,0.476-0.151
		c0.195,0.281,0.477,0.535,0.563,0.843c0.13,0.649,0.26,1.309,0.205,1.957c-0.097,0.822-0.324,2.271-0.594,2.304
		c-0.995,0.092-2.044-0.292-3.061-0.52c-0.151-0.021-0.283-0.194-0.476-0.335c-0.273,0.227-0.541,0.454-0.789,0.67
		c-1.601,1.471-3.027,1.622-4.877,0.563c-0.292-0.162-0.864-0.228-1.081-0.064c-2.087,1.557-2.064,1.567-5.017,2.119
		c0.335,4.854,0.67,9.73,1.017,14.866c4.541-1.719,8.444-3.567,11.007-7.396c0.887-1.319,0.714-1.654-0.908-1.892
		c-1.081-0.162-2.174-0.238-3.255-0.347c-1.092-0.13-1.44-0.778-1.405-1.816c0.108-2.865,2.065-4.52,4.271-3.411
		c0.897,0.46,1.695,1.411,2.206,2.309c1.914,3.373,0.821,7.579-2.682,9.861c-2.219,1.459-4.606,2.659-6.984,3.832
		c-1.157,0.563-1.189,1.217-0.628,2.157c0.787,1.309,2.098,1.839,3.493,2.076c3.46,0.595,6.779-0.141,10.012-1.286
		c0.833-0.271,0.951-0.865,0.313-1.471c-0.659-0.639-1.373-1.222-2.054-1.844c-1.816-1.616-1.492-4.211,0.702-5.271
		c0.854-0.41,1.806-0.638,2.703-0.94c1.968-0.67,3.925-1.329,5.958-2.021c-0.011,0.086,0,0.433-0.13,0.67
		c-1.073,1.85-2.174,3.601-4.801,3.212c-0.973-0.141-2.011,0.086-3.017,0.184c-0.995,0.098-1.275,0.595-0.757,1.514
		c1.243,2.205,3.309,3.092,5.622,2.801c2.228-0.292,4.368-1.114,6.531-1.72c0.399-0.124,0.757-0.335,1.135-0.508
		c0.087,0.118,0.173,0.243,0.249,0.367c-1.341,1.06-2.628,2.228-4.055,3.168c-4.293,2.85-8.877,5.104-14.045,5.752
		c-1.538,0.195-3.149,0.151-4.671-0.118c-1.257-0.228-2.573-0.725-3.561-1.492c-0.981-0.768-1.554-2.012-2.365-3.114
		c-0.422,0.751-0.876,1.611-1.384,2.422c-0.378,0.584-0.811,1.146-1.309,1.622c-1.524,1.46-2.865,1.373-4.26-0.205
		c-0.335-0.39-0.67-0.784-0.994-1.157c-1.374,1.049-1.679,2.065-1.189,3.605c0.832,2.639,4.39,5.217,7.157,5.406
		c3.773,0.287,7.244-0.697,10.672-2.13c1.601-0.665,3.255-1.228,4.876-1.887c0.931-0.379,1.49-0.249,1.654,0.854
		c0.063,0.356,0.29,0.681,0.573,1.265c0.563-0.67,0.93-1.179,1.373-1.622c1.492-1.47,2.854-3.103,4.53-4.313
		c2.563-1.86,5.568-1.385,7.342,0.908c0.346,0.454,0.563,1.211,0.465,1.773c-0.54,3.405-3.416,5.859-7.168,6.13
		c-1.611,0.108-3.223,0-4.845,0.032c-0.778,0-1.546,0.119-2.446,0.189c-0.116-0.416-0.245-1.087-0.454-1.735
		c-0.44-1.481-0.603-1.481-2.019-0.94c-2.963,1.124-5.914,2.303-8.975,3.157c-2.486,0.714-5.093,0.751-7.655,0.156
		c-3.232-0.751-5.514-2.514-6.336-5.876c-0.119-0.552-0.303-1.081-0.584-2.044c-1.286,1.957-2.411,3.666-3.732,5.649
		c0.976,0.266,1.722,0.524,2.489,0.687c2.055,0.443,2.454,1.189,1.633,3.152c-0.768,1.821-2.065,3.249-3.72,4.287
		c-3.416,2.173-7.168,3.373-11.223,3.59c-2.101,0.097-4.131-0.411-5.839-1.601c-0.919-0.627-1.492-1.752-2.13-2.725
		c-0.324-0.476-0.4-1.136-0.587-1.709C327.903,258.354,327.903,257.575,327.903,256.786z M354.959,241.422
		c0.691,2.87,1.316,3.524,2.995,3.254c1.902-0.324,2.865-1.395,2.67-3.06c-0.983,0.292-1.968,0.584-2.954,0.87
		c-0.041-0.129-0.084-0.243-0.127-0.373c0.808-0.356,1.654-0.659,2.43-1.081c0.306-0.173,0.682-0.595,0.682-0.897
		c-0.041-4.184-0.095-8.385-0.268-12.563c-0.065-1.189-0.498-2.357-0.844-3.914c-0.778,1.06-1.298,1.697-1.752,2.379
		c-1.87,2.821-2.011,3.168-4.021,0.054c-0.479-0.746-1.017-1.449-2.339-1.173c0.176,6.222,0.382,12.461,0.555,18.699
		c0.138,0.044,0.292,0.087,0.433,0.141C353.25,242.989,354.072,242.243,354.959,241.422z M381.763,252.851
		c0.021,0.086,0.032,0.184,0.064,0.265c2.195-0.438,4.422-0.827,6.606-1.352c1.168-0.271,1.925-1.119,1.795-2.384
		c-0.141-1.179-0.974-1.784-2.098-2.055c-1.862-0.443-3.711-0.216-5.333,0.648c-1.133,0.605-2.235,1.558-2.928,2.628
		c-1.006,1.557-0.476,2.249,1.373,2.249C381.414,252.851,381.589,252.851,381.763,252.851z"/>
	<linearGradient id="SVGID_5_" gradientUnits="userSpaceOnUse" x1="411.4458" y1="174.5674" x2="391.6926" y2="208.7809">
		<stop  offset="0" style="stop-color:#2EC425"/>
		<stop  offset="0.1756" style="stop-color:#2CBE27"/>
		<stop  offset="0.4049" style="stop-color:#28AE2B"/>
		<stop  offset="0.6638" style="stop-color:#209332"/>
		<stop  offset="0.9427" style="stop-color:#156E3D"/>
		<stop  offset="1" style="stop-color:#13653F"/>
	</linearGradient>
	<path fill-rule="evenodd" clip-rule="evenodd" fill="url(#SVGID_5_)" d="M412.609,175.239c1.168,3.807,2.336,7.623,3.504,11.429
		c-0.108,0.076-0.206,0.119-0.316,0.184c-0.692-0.821-1.403-1.643-2.365-2.768c-5.46,10.467-14.369,17.181-23.614,23.614
		c0.563-0.778,1.103-1.579,1.708-2.336c1.644-2.124,3.039-4.379,3.709-7.006c0.508-2.033,0.379-3.968-1.092-5.655
		c-0.746-0.832-1.72-0.902-2.498-0.48c-0.735,0.395-1.232,1.227-1.773,1.919c-0.054,0.06,0.347,0.67,0.617,0.778
		c1.459,0.529,2.335-0.379,3.211-1.471c0.4,1.244,0.13,2.347-0.8,2.974c-0.857,0.563-1.968,0.757-2.974,1.027
		c-0.141,0.021-0.573-0.433-0.605-0.703c-0.206-1.827-0.162-3.644,0.757-5.341c0.876-1.654,1.914-2.276,3.428-2.006
		c0.962,0.189,2.086,1.584,2.292,2.936c0.443,2.854,0.086,5.654-0.595,8.434c-0.108,0.454-0.184,0.919,0,1.611
		c1.557-1.223,3.146-2.412,4.649-3.677c4.39-3.72,8.434-7.741,11.566-12.585c1.289-1.969,1.235-1.969-0.603-3.287
		c-0.781-0.563-1.99-1.336-1.99-2.012c-0.011-1.492,0.487-3.038,1.038-4.486c0.184-0.52,1.104-0.735,1.687-1.093
		C411.896,175.239,412.242,175.239,412.609,175.239z M412.815,181.187c0.389-2.055-0.194-3.341-1.601-3.503
		c-0.54-0.076-1.419,0.141-1.665,0.529c-0.446,0.67-0.097,1.46,0.671,1.838C411.01,180.473,411.853,180.775,412.815,181.187z"/>
	<linearGradient id="SVGID_6_" gradientUnits="userSpaceOnUse" x1="440.0747" y1="182.2559" x2="417.6072" y2="221.1708">
		<stop  offset="0" style="stop-color:#2EC425"/>
		<stop  offset="0.1756" style="stop-color:#2CBE27"/>
		<stop  offset="0.4049" style="stop-color:#28AE2B"/>
		<stop  offset="0.6638" style="stop-color:#209332"/>
		<stop  offset="0.9427" style="stop-color:#156E3D"/>
		<stop  offset="1" style="stop-color:#13653F"/>
	</linearGradient>
	<path fill-rule="evenodd" clip-rule="evenodd" fill="url(#SVGID_6_)" d="M403.149,212.823c0.646-2.195,2.054-3.665,4.055-4.541
		c14.326-6.185,28.49-12.813,43.616-16.922c1.157-0.313,2.357-0.562,3.536-0.859c0.075,0.157,0.141,0.298,0.227,0.449
		c-0.811,0.454-1.567,1.026-2.433,1.341c-4.13,1.514-8.293,2.973-12.435,4.443c-11.515,4.098-22.792,8.779-33.626,14.467
		C405.106,211.709,404.133,212.277,403.149,212.823z"/>
	<linearGradient id="SVGID_7_" gradientUnits="userSpaceOnUse" x1="458.3457" y1="195.7305" x2="437.2167" y2="232.327">
		<stop  offset="0" style="stop-color:#2EC425"/>
		<stop  offset="0.1756" style="stop-color:#2CBE27"/>
		<stop  offset="0.4049" style="stop-color:#28AE2B"/>
		<stop  offset="0.6638" style="stop-color:#209332"/>
		<stop  offset="0.9427" style="stop-color:#156E3D"/>
		<stop  offset="1" style="stop-color:#13653F"/>
	</linearGradient>
	<path fill-rule="evenodd" clip-rule="evenodd" fill="url(#SVGID_7_)" d="M460.605,208.065c-0.986-1.427-1.827-2.659-2.854-4.13
		c-7.504,10.174-16.337,18.641-27.571,24.328c1.211-0.99,2.452-1.957,3.698-2.952c4.725-3.85,9.612-7.568,14.175-11.612
		c2.66-2.357,4.897-5.212,7.212-7.947c1.448-1.719,1.33-2.249-0.476-3.568c-1.125-0.821-1.525-1.816-1.211-3.055
		c0.324-1.237,0.702-2.514,1.34-3.627c0.628-1.092,1.611-1.081,2.52-0.184c1.07,1.054,1.252,2.411,0.94,3.763
		c-0.324,1.352-0.075,2.411,0.725,3.514c0.981,1.352,2.195,2.703,1.741,4.611C460.801,207.406,460.735,207.601,460.605,208.065z
		 M458.032,200.789c-0.508-1.275-0.768-2.357-1.352-3.232c-0.281-0.411-1.214-0.563-1.806-0.498
		c-0.216,0.011-0.519,0.995-0.476,1.509C454.508,199.881,455.535,200.524,458.032,200.789z"/>
	<linearGradient id="SVGID_8_" gradientUnits="userSpaceOnUse" x1="469.2495" y1="287.1611" x2="461.2954" y2="300.938">
		<stop  offset="0" style="stop-color:#2EC425"/>
		<stop  offset="0.1756" style="stop-color:#2CBE27"/>
		<stop  offset="0.4049" style="stop-color:#28AE2B"/>
		<stop  offset="0.6638" style="stop-color:#209332"/>
		<stop  offset="0.9427" style="stop-color:#156E3D"/>
		<stop  offset="1" style="stop-color:#13653F"/>
	</linearGradient>
	<path fill-rule="evenodd" clip-rule="evenodd" fill="url(#SVGID_8_)" d="M464.098,287.255c-1.557,0.238-3.113,0.476-4.671,0.703
		c0.238-2.206,3.223-3.319,6.672-2.616c-0.044,1.432-0.541,2.713-1.547,3.74c-1.34,1.373-2.843,2.584-4.108,4.012
		c-0.735,0.832-1.135,1.979-1.697,2.974c1.081,0.465,2.141,1.124,3.266,1.33c3.211,0.562,6.065-0.801,8.963-1.903
		c1.319-0.497,2.605-1.081,3.957-1.535c-2.151,2.443-4.876,4.011-7.957,4.952c-2.477,0.757-5.028,0.983-7.634,0.681
		c-0.93-0.108-1.287-0.519-1.362-1.395c-0.173-2.422,0.702-4.455,2.303-6.195c1.319-1.438,2.649-2.865,3.979-4.298
		C464.206,287.558,464.152,287.417,464.098,287.255z"/>
	<linearGradient id="SVGID_9_" gradientUnits="userSpaceOnUse" x1="424.4629" y1="213.4922" x2="416.895" y2="226.6001">
		<stop  offset="0" style="stop-color:#2EC425"/>
		<stop  offset="0.1756" style="stop-color:#2CBE27"/>
		<stop  offset="0.4049" style="stop-color:#28AE2B"/>
		<stop  offset="0.6638" style="stop-color:#209332"/>
		<stop  offset="0.9427" style="stop-color:#156E3D"/>
		<stop  offset="1" style="stop-color:#13653F"/>
	</linearGradient>
	<path fill-rule="evenodd" clip-rule="evenodd" fill="url(#SVGID_9_)" d="M420.63,213.942c0.284,0.881,0.598,1.768,0.856,2.654
		c0.411,1.514,0.682,3.07,1.22,4.541c0.662,1.773,2.717,2.336,4.068,1.298c0.572-0.465,0.681-0.865,0.321-1.558
		c-0.765-1.459-1.5-2.968-2.116-4.486c-0.357-0.887-0.477-1.871-0.477-2.876c1.795,2.389,3.449,4.854,3.547,7.914
		c0.011,0.908-0.5,1.936-1.049,2.746c-0.865,1.287-1.893,1.428-3.309,0.735c-0.552-0.281-1.06-0.605-1.687-0.962
		c-0.486,0.584-0.94,1.146-1.417,1.703c-1.57,1.908-3.773,1.762-4.887-0.46c-0.584-1.141-0.844-2.465-1.073-3.73
		c-0.289-1.676-0.397-3.373-0.581-5.06c0.127-0.033,0.271-0.06,0.39-0.087c0.259,1.07,0.54,2.141,0.778,3.233
		c0.205,0.93,0.292,1.902,0.54,2.821c0.487,1.709,2.379,2.682,4.044,2.108c1.222-0.399,1.46-1.497,1.362-2.563
		c-0.194-2.205-0.532-4.411-0.789-6.617c-0.054-0.421-0.13-0.854-0.184-1.265C420.341,214.002,420.481,213.98,420.63,213.942z"/>
	<linearGradient id="SVGID_10_" gradientUnits="userSpaceOnUse" x1="430.6177" y1="227.8633" x2="417.9658" y2="249.7769">
		<stop  offset="0" style="stop-color:#2EC425"/>
		<stop  offset="0.1756" style="stop-color:#2CBE27"/>
		<stop  offset="0.4049" style="stop-color:#28AE2B"/>
		<stop  offset="0.6638" style="stop-color:#209332"/>
		<stop  offset="0.9427" style="stop-color:#156E3D"/>
		<stop  offset="1" style="stop-color:#13653F"/>
	</linearGradient>
	<path fill-rule="evenodd" clip-rule="evenodd" fill="url(#SVGID_10_)" d="M410.815,245.649c2.064-2.52,4.573-4.477,7.417-5.763
		c6.108-2.769,12.323-5.266,18.511-7.872c0.227-0.097,0.486-0.118,0.746-0.184c0.064,0.087,0.141,0.173,0.213,0.271
		c-0.84,0.735-1.575,1.633-2.541,2.162c-2.235,1.168-4.57,2.131-6.841,3.201c-5.449,2.551-10.899,5.113-16.338,7.654
		C411.604,245.304,411.204,245.466,410.815,245.649z"/>
	<linearGradient id="SVGID_11_" gradientUnits="userSpaceOnUse" x1="403.4028" y1="289.4297" x2="391.0289" y2="310.8619">
		<stop  offset="0" style="stop-color:#2EC425"/>
		<stop  offset="0.1756" style="stop-color:#2CBE27"/>
		<stop  offset="0.4049" style="stop-color:#28AE2B"/>
		<stop  offset="0.6638" style="stop-color:#209332"/>
		<stop  offset="0.9427" style="stop-color:#156E3D"/>
		<stop  offset="1" style="stop-color:#13653F"/>
	</linearGradient>
	<path fill-rule="evenodd" clip-rule="evenodd" fill="url(#SVGID_11_)" d="M399.019,289.396c-0.691,0.075-1.405,0.14-2.184,0.216
		c-0.162-1.049,0.278-1.979,1.146-2.325c0.627-0.248,1.676-0.086,2.26,0.325c1.428,0.983,2.336,2.411,2.466,4.254
		c0.054,0.882-0.249,1.163-1.125,1.098c-1.578-0.119-3.136-0.216-4.706-0.173c-1.997,0.043-2.549,0.563-2.333,2.476
		c0.466,3.937,1.157,7.839,1.622,11.775c0.257,2.211,0.257,4.476,0.4,7.017c-0.919-5.535-1.816-10.747-2.616-15.948
		c-0.195-1.232-0.012-2.53-0.087-3.8c-0.087-1.703,0.8-2.688,2.26-3.282c0.981-0.421,1.989-0.768,2.995-1.156
		C399.095,289.721,399.051,289.559,399.019,289.396z"/>
	<linearGradient id="SVGID_12_" gradientUnits="userSpaceOnUse" x1="373.6104" y1="265.2148" x2="366.4285" y2="277.6542">
		<stop  offset="0" style="stop-color:#2EC425"/>
		<stop  offset="0.1756" style="stop-color:#2CBE27"/>
		<stop  offset="0.4049" style="stop-color:#28AE2B"/>
		<stop  offset="0.6638" style="stop-color:#209332"/>
		<stop  offset="0.9427" style="stop-color:#156E3D"/>
		<stop  offset="1" style="stop-color:#13653F"/>
	</linearGradient>
	<path fill-rule="evenodd" clip-rule="evenodd" fill="url(#SVGID_12_)" d="M371.545,277.005c0.227-1.719,0.419-3.438,0.681-5.146
		c0.249-1.654,0.249-3.417,1.535-4.763c1.017-1.044,2.92-0.708,3.285,0.654c0.11,0.422-0.012,1.038-0.257,1.427
		c-0.13,0.184-0.812,0.119-1.179,0c-1.428-0.465-1.968-0.249-2.304,1.309c-0.529,2.433-0.896,4.876-1.343,7.331
		c-0.16,0.832-0.387,1.654-0.873,2.529c-0.411-0.973-0.812-1.979-1.211-2.951c-0.541-1.276-1.049-2.573-1.654-3.828
		c-0.39-0.8-0.952-1.081-1.903-0.497c-1.352,0.838-2.228,0.368-2.184-1.211c0.021-0.811,0.303-1.822,0.864-2.313
		c0.347-0.303,1.568-0.033,2.098,0.367c0.865,0.648,1.654,1.535,2.152,2.487c0.778,1.465,1.308,3.092,1.935,4.638
		C371.307,277.037,371.426,277.026,371.545,277.005z"/>
	<linearGradient id="SVGID_13_" gradientUnits="userSpaceOnUse" x1="475.4854" y1="240.7998" x2="468.5022" y2="252.895">
		<stop  offset="0" style="stop-color:#2EC425"/>
		<stop  offset="0.1756" style="stop-color:#2CBE27"/>
		<stop  offset="0.4049" style="stop-color:#28AE2B"/>
		<stop  offset="0.6638" style="stop-color:#209332"/>
		<stop  offset="0.9427" style="stop-color:#156E3D"/>
		<stop  offset="1" style="stop-color:#13653F"/>
	</linearGradient>
	<path fill-rule="evenodd" clip-rule="evenodd" fill="url(#SVGID_13_)" d="M472.283,255.078c-0.228-1.061-0.454-2.114-0.692-3.168
		c-0.616-2.574-1.914-4.596-4.552-5.45c-0.811-0.265-0.682-0.757-0.563-1.335c0.162-0.622,0.184-1.324,1.146-1.292
		c1.341,0.021,2.725,1.06,3.266,2.616c0.54,1.568,0.994,3.168,1.502,4.758c0.149,0.476,0.347,0.951,0.53,1.438
		c0.119,0,0.249,0.012,0.367,0.033c0.314-1.438,0.595-2.854,0.941-4.25c0.41-1.697,0.8-3.4,1.295-5.049
		c0.338-1.049,1.156-1.319,2.208-1.07c1.168,0.281,2.032,0.865,2.195,2.119c0.043,0.271-0.13,0.729-0.368,0.887
		c-0.216,0.141-0.67,0.021-0.94-0.108c-2.108-1.103-2.876-0.854-3.492,1.486c-0.498,1.936-0.692,3.969-1.168,5.903
		c-0.228,0.925-0.778,1.758-1.168,2.633C472.629,255.175,472.456,255.121,472.283,255.078z"/>
	<linearGradient id="SVGID_14_" gradientUnits="userSpaceOnUse" x1="357.1387" y1="205.1504" x2="350.297" y2="217.0005">
		<stop  offset="0" style="stop-color:#2EC425"/>
		<stop  offset="0.1756" style="stop-color:#2CBE27"/>
		<stop  offset="0.4049" style="stop-color:#28AE2B"/>
		<stop  offset="0.6638" style="stop-color:#209332"/>
		<stop  offset="0.9427" style="stop-color:#156E3D"/>
		<stop  offset="1" style="stop-color:#13653F"/>
	</linearGradient>
	<path fill-rule="evenodd" clip-rule="evenodd" fill="url(#SVGID_14_)" d="M349.941,210.12c0.336,1.611,0.581,3.243,1.049,4.822
		c0.173,0.616,1.006,1.633,1.244,1.557c0.757-0.254,1.708-0.8,1.965-1.454c0.598-1.67,0.749-3.486,1.289-5.185
		c0.433-1.33,1.168-2.552,1.795-3.816c0.054-0.108,0.292-0.136,0.841-0.324c-0.246,0.908-0.246,1.74-0.646,2.173
		c-1.729,1.838-1.946,4.119-2.313,6.401c-0.13,0.843-0.263,1.719-0.519,2.552c-0.52,1.61-2.163,1.968-3.18,0.6
		C349.801,215.245,349.582,212.704,349.941,210.12z"/>
	<linearGradient id="SVGID_15_" gradientUnits="userSpaceOnUse" x1="363.7861" y1="247.207" x2="360.8601" y2="252.2751">
		<stop  offset="0" style="stop-color:#2EC425"/>
		<stop  offset="0.1756" style="stop-color:#2CBE27"/>
		<stop  offset="0.4049" style="stop-color:#28AE2B"/>
		<stop  offset="0.6638" style="stop-color:#209332"/>
		<stop  offset="0.9427" style="stop-color:#156E3D"/>
		<stop  offset="1" style="stop-color:#13653F"/>
	</linearGradient>
	<path fill-rule="evenodd" clip-rule="evenodd" fill="url(#SVGID_15_)" d="M360.603,249.185c1.049,0.055,2.228,0.411,2.703-1.081
		c0.043-0.13,0.541-0.194,0.811-0.151c0.454,0.087,0.92,0.281,1.374,0.433c0.54,0.173,1.329,0.194,0.93,1.136
		c-0.292,0.724-0.498,1.578-1.633,1.016c-0.379-0.194-0.833-0.243-1.232-0.421c-0.735-0.347-1.179-0.174-1.579,0.562
		c-0.595,1.136-2.922,1.07-3.614-0.054c-0.407-0.67,0-1.471,0.792-1.53C359.63,249.077,360.116,249.152,360.603,249.185z"/>
	<linearGradient id="SVGID_16_" gradientUnits="userSpaceOnUse" x1="468.0625" y1="223.1934" x2="465.3721" y2="227.8533">
		<stop  offset="0" style="stop-color:#2EC425"/>
		<stop  offset="0.1756" style="stop-color:#2CBE27"/>
		<stop  offset="0.4049" style="stop-color:#28AE2B"/>
		<stop  offset="0.6638" style="stop-color:#209332"/>
		<stop  offset="0.9427" style="stop-color:#156E3D"/>
		<stop  offset="1" style="stop-color:#13653F"/>
	</linearGradient>
	<path fill-rule="evenodd" clip-rule="evenodd" fill="url(#SVGID_16_)" d="M464.952,221.397c0.26,1.298,0.454,2.271,0.627,3.249
		c0.379,2.027,1.72,2.768,3.601,1.984c0.249-0.098,0.454-0.249,0.692-0.39c0.227,1.427-0.735,2.52-2.163,2.454
		c-1.676-0.054-2.725-1.081-3.449-2.454C463.428,224.641,463.763,223.138,464.952,221.397z"/>
	<linearGradient id="SVGID_17_" gradientUnits="userSpaceOnUse" x1="341.0596" y1="280.3359" x2="338.7214" y2="284.3857">
		<stop  offset="0" style="stop-color:#2EC425"/>
		<stop  offset="0.1756" style="stop-color:#2CBE27"/>
		<stop  offset="0.4049" style="stop-color:#28AE2B"/>
		<stop  offset="0.6638" style="stop-color:#209332"/>
		<stop  offset="0.9427" style="stop-color:#156E3D"/>
		<stop  offset="1" style="stop-color:#13653F"/>
	</linearGradient>
	<path fill-rule="evenodd" clip-rule="evenodd" fill="url(#SVGID_17_)" d="M343.703,281.903c-0.552,0.93-1.006,1.957-1.697,2.789
		c-0.703,0.876-3.082,0.313-3.622-0.854c-0.714-1.514-0.833-3.124-0.13-4.844c0.205,0.52,0.476,1.027,0.616,1.558
		c0.714,2.519,2.119,2.974,4.185,1.384c0.129-0.076,0.28-0.151,0.399-0.217C343.541,281.773,343.627,281.838,343.703,281.903z"/>
	<linearGradient id="SVGID_18_" gradientUnits="userSpaceOnUse" x1="428.8213" y1="187.1035" x2="426.193" y2="191.6559">
		<stop  offset="0" style="stop-color:#2EC425"/>
		<stop  offset="0.1756" style="stop-color:#2CBE27"/>
		<stop  offset="0.4049" style="stop-color:#28AE2B"/>
		<stop  offset="0.6638" style="stop-color:#209332"/>
		<stop  offset="0.9427" style="stop-color:#156E3D"/>
		<stop  offset="1" style="stop-color:#13653F"/>
	</linearGradient>
	<path fill-rule="evenodd" clip-rule="evenodd" fill="url(#SVGID_18_)" d="M426.082,185.522c0.119,0.897,0.227,1.772,0.346,2.648
		c0.249,2.055,0.638,2.347,2.735,2.022c0.379-0.06,0.769-0.108,1.309-0.174c-0.292,1.125-0.619,2.174-1.708,2.466
		c-1.168,0.324-1.989-0.422-2.53-1.417C425.271,189.296,424.741,187.463,426.082,185.522z"/>
	<linearGradient id="SVGID_19_" gradientUnits="userSpaceOnUse" x1="381.3164" y1="185.8711" x2="379.3507" y2="189.2758">
		<stop  offset="0" style="stop-color:#2EC425"/>
		<stop  offset="0.1756" style="stop-color:#2CBE27"/>
		<stop  offset="0.4049" style="stop-color:#28AE2B"/>
		<stop  offset="0.6638" style="stop-color:#209332"/>
		<stop  offset="0.9427" style="stop-color:#156E3D"/>
		<stop  offset="1" style="stop-color:#13653F"/>
	</linearGradient>
	<path fill-rule="evenodd" clip-rule="evenodd" fill="url(#SVGID_19_)" d="M379.11,184.598c1.604,3.443,1.917,3.682,3.906,2.697
		c0.346,1.006-0.194,2.087-1.232,2.498c-0.984,0.389-2.292-0.076-2.552-1.136c-0.313-1.308-0.349-2.681-0.476-4.032
		C378.875,184.614,378.994,184.598,379.11,184.598z"/>
	<linearGradient id="SVGID_20_" gradientUnits="userSpaceOnUse" x1="348.0142" y1="234.2021" x2="346.1321" y2="237.462">
		<stop  offset="0" style="stop-color:#2EC425"/>
		<stop  offset="0.1756" style="stop-color:#2CBE27"/>
		<stop  offset="0.4049" style="stop-color:#28AE2B"/>
		<stop  offset="0.6638" style="stop-color:#209332"/>
		<stop  offset="0.9427" style="stop-color:#156E3D"/>
		<stop  offset="1" style="stop-color:#13653F"/>
	</linearGradient>
	<path fill-rule="evenodd" clip-rule="evenodd" fill="url(#SVGID_20_)" d="M348.558,236.265c0.032,0.875-0.249,1.292-1.081,1.113
		c-0.335-0.075-0.703-0.092-1.027-0.075c-1.179,0-1.763-0.671-1.286-1.741c0.356-0.778,1.016-1.417,1.535-2.119
		c0.573,0.702,1.146,1.362,1.665,2.076C348.536,235.745,348.515,236.102,348.558,236.265z M345.52,235.346
		c0.811,0.529,1.471,0.951,2.26,1.47C347.66,235.323,347.044,234.924,345.52,235.346z"/>
	<linearGradient id="SVGID_21_" gradientUnits="userSpaceOnUse" x1="373.1211" y1="237.748" x2="370.9124" y2="241.5737">
		<stop  offset="0" style="stop-color:#2EC425"/>
		<stop  offset="0.1756" style="stop-color:#2CBE27"/>
		<stop  offset="0.4049" style="stop-color:#28AE2B"/>
		<stop  offset="0.6638" style="stop-color:#209332"/>
		<stop  offset="0.9427" style="stop-color:#156E3D"/>
		<stop  offset="1" style="stop-color:#13653F"/>
	</linearGradient>
	<path fill-rule="evenodd" clip-rule="evenodd" fill="url(#SVGID_21_)" d="M373.891,238.254c-0.486,1.405-0.973,2.8-1.462,4.195
		c-0.732-0.757-1.622-1.72-2.517-2.649c0.983-0.584,1.33-0.433,2.065,1.124c0.54-1.016,1.06-1.979,1.589-2.919
		C373.675,238.092,373.783,238.178,373.891,238.254z"/>
	<linearGradient id="SVGID_22_" gradientUnits="userSpaceOnUse" x1="339.1475" y1="255.002" x2="336.8364" y2="259.0048">
		<stop  offset="0" style="stop-color:#2EC425"/>
		<stop  offset="0.1756" style="stop-color:#2CBE27"/>
		<stop  offset="0.4049" style="stop-color:#28AE2B"/>
		<stop  offset="0.6638" style="stop-color:#209332"/>
		<stop  offset="0.9427" style="stop-color:#156E3D"/>
		<stop  offset="1" style="stop-color:#13653F"/>
	</linearGradient>
	<path fill-rule="evenodd" clip-rule="evenodd" fill="url(#SVGID_22_)" d="M335.67,257.396c1.135-1.519,1.783-0.502,2.443-0.129
		c0.595-0.644,1.156-1.26,1.708-1.876c0.162,0.13,0.311,0.27,0.486,0.399c-0.421,0.498-0.962,0.952-1.222,1.535
		c-0.324,0.692-0.411,1.504-0.681,2.585C337.583,258.786,337.875,256.927,335.67,257.396z"/>
	<linearGradient id="SVGID_23_" gradientUnits="userSpaceOnUse" x1="347.0522" y1="217.5078" x2="345.0002" y2="221.062">
		<stop  offset="0" style="stop-color:#2EC425"/>
		<stop  offset="0.1756" style="stop-color:#2CBE27"/>
		<stop  offset="0.4049" style="stop-color:#28AE2B"/>
		<stop  offset="0.6638" style="stop-color:#209332"/>
		<stop  offset="0.9427" style="stop-color:#156E3D"/>
		<stop  offset="1" style="stop-color:#13653F"/>
	</linearGradient>
	<path fill-rule="evenodd" clip-rule="evenodd" fill="url(#SVGID_23_)" d="M344.644,220.856c-0.064-0.854-0.086-1.438-0.133-2.13
		c0.76,0.346,1.396,0.648,2.209,1.021c0.043-0.827,0.086-1.443,0.105-2.049c0.165-0.021,0.316-0.043,0.465-0.054
		c0.067,0.833,0.489,2.055,0.11,2.411C346.806,220.608,345.668,220.598,344.644,220.856z"/>
	<linearGradient id="SVGID_24_" gradientUnits="userSpaceOnUse" x1="340.7227" y1="249.1094" x2="337.0171" y2="255.5276">
		<stop  offset="0" style="stop-color:#2EC425"/>
		<stop  offset="0.1756" style="stop-color:#2CBE27"/>
		<stop  offset="0.4049" style="stop-color:#28AE2B"/>
		<stop  offset="0.6638" style="stop-color:#209332"/>
		<stop  offset="0.9427" style="stop-color:#156E3D"/>
		<stop  offset="1" style="stop-color:#13653F"/>
	</linearGradient>
	<path fill-rule="evenodd" clip-rule="evenodd" fill="url(#SVGID_24_)" d="M334.632,253.867c2.725-1.179,5.471-2.357,8.206-3.536
		c0.063,0.173,0.151,0.346,0.217,0.53c-2.726,1.135-5.452,2.281-8.186,3.427C334.794,254.147,334.707,254.007,334.632,253.867z"/>
	<linearGradient id="SVGID_25_" gradientUnits="userSpaceOnUse" x1="345.8252" y1="212.3398" x2="342.0757" y2="218.8342">
		<stop  offset="0" style="stop-color:#2EC425"/>
		<stop  offset="0.1756" style="stop-color:#2CBE27"/>
		<stop  offset="0.4049" style="stop-color:#28AE2B"/>
		<stop  offset="0.6638" style="stop-color:#209332"/>
		<stop  offset="0.9427" style="stop-color:#156E3D"/>
		<stop  offset="1" style="stop-color:#13653F"/>
	</linearGradient>
	<path fill-rule="evenodd" clip-rule="evenodd" fill="url(#SVGID_25_)" d="M339.94,217.272c2.595-1.271,5.168-2.568,7.752-3.854
		c0.087,0.184,0.174,0.346,0.249,0.519c-2.595,1.266-5.179,2.53-7.774,3.796C340.081,217.57,340.016,217.44,339.94,217.272z"/>
	<linearGradient id="SVGID_26_" gradientUnits="userSpaceOnUse" x1="374.0425" y1="256.6816" x2="372.1794" y2="259.9085">
		<stop  offset="0" style="stop-color:#2EC425"/>
		<stop  offset="0.1756" style="stop-color:#2CBE27"/>
		<stop  offset="0.4049" style="stop-color:#28AE2B"/>
		<stop  offset="0.6638" style="stop-color:#209332"/>
		<stop  offset="0.9427" style="stop-color:#156E3D"/>
		<stop  offset="1" style="stop-color:#13653F"/>
	</linearGradient>
	<path fill-rule="evenodd" clip-rule="evenodd" fill="url(#SVGID_26_)" d="M372.053,259.835c-0.13-1.644-0.249-2.919-0.346-4.195
		c0.151-0.011,0.324-0.021,0.476-0.032c0.032,0.584,0.087,1.146,0.098,1.719c0.011,1.709,0.375,1.979,2.043,1.622
		c0.379-0.081,0.768-0.13,1.136-0.205c0.032,0.141,0.054,0.271,0.086,0.422C374.453,259.37,373.348,259.575,372.053,259.835z"/>
	<linearGradient id="SVGID_27_" gradientUnits="userSpaceOnUse" x1="353.2656" y1="197.2197" x2="352.0498" y2="199.3256">
		<stop  offset="0" style="stop-color:#2EC425"/>
		<stop  offset="0.1756" style="stop-color:#2CBE27"/>
		<stop  offset="0.4049" style="stop-color:#28AE2B"/>
		<stop  offset="0.6638" style="stop-color:#209332"/>
		<stop  offset="0.9427" style="stop-color:#156E3D"/>
		<stop  offset="1" style="stop-color:#13653F"/>
	</linearGradient>
	<path fill-rule="evenodd" clip-rule="evenodd" fill="url(#SVGID_27_)" d="M352.418,197.664c-0.119-0.232-0.249-0.465-0.368-0.702
		c0.084-0.093,0.185-0.185,0.281-0.281c0.281,0.248,0.692,0.443,0.812,0.768c0.28,0.746,0.864,1.601-0.206,2.39
		c-0.476-0.541-0.919-1.06-1.416-1.644C351.855,198,352.123,197.837,352.418,197.664z"/>
	<linearGradient id="SVGID_28_" gradientUnits="userSpaceOnUse" x1="377.3442" y1="245.3691" x2="374.3552" y2="250.5463">
		<stop  offset="0" style="stop-color:#2EC425"/>
		<stop  offset="0.1756" style="stop-color:#2CBE27"/>
		<stop  offset="0.4049" style="stop-color:#28AE2B"/>
		<stop  offset="0.6638" style="stop-color:#209332"/>
		<stop  offset="0.9427" style="stop-color:#156E3D"/>
		<stop  offset="1" style="stop-color:#13653F"/>
	</linearGradient>
	<path fill-rule="evenodd" clip-rule="evenodd" fill="url(#SVGID_28_)" d="M379.341,246.817c-2.26,0.897-4.531,1.784-6.802,2.681
		c-0.043-0.141-0.11-0.303-0.162-0.432c2.271-0.887,4.53-1.773,6.801-2.639C379.232,246.568,379.286,246.688,379.341,246.817z"/>
	<linearGradient id="SVGID_29_" gradientUnits="userSpaceOnUse" x1="382.6958" y1="228.2246" x2="380.0569" y2="232.7953">
		<stop  offset="0" style="stop-color:#2EC425"/>
		<stop  offset="0.1756" style="stop-color:#2CBE27"/>
		<stop  offset="0.4049" style="stop-color:#28AE2B"/>
		<stop  offset="0.6638" style="stop-color:#209332"/>
		<stop  offset="0.9427" style="stop-color:#156E3D"/>
		<stop  offset="1" style="stop-color:#13653F"/>
	</linearGradient>
	<path fill-rule="evenodd" clip-rule="evenodd" fill="url(#SVGID_29_)" d="M378.281,231.475c1.986-0.789,3.989-1.568,5.979-2.347
		c0.065,0.151,0.119,0.303,0.195,0.449c-1.99,0.794-3.969,1.552-5.937,2.33C378.43,231.767,378.367,231.615,378.281,231.475z"/>
	<linearGradient id="SVGID_30_" gradientUnits="userSpaceOnUse" x1="365.8872" y1="196.0889" x2="364.0413" y2="199.2861">
		<stop  offset="0" style="stop-color:#2EC425"/>
		<stop  offset="0.1756" style="stop-color:#2CBE27"/>
		<stop  offset="0.4049" style="stop-color:#28AE2B"/>
		<stop  offset="0.6638" style="stop-color:#209332"/>
		<stop  offset="0.9427" style="stop-color:#156E3D"/>
		<stop  offset="1" style="stop-color:#13653F"/>
	</linearGradient>
	<path fill-rule="evenodd" clip-rule="evenodd" fill="url(#SVGID_30_)" d="M365.263,195.729c0.292,0.876,0.595,1.763,0.938,2.779
		c-1.252,0.06-2.247,0.119-3.209,0.173c-0.043-0.113-0.087-0.243-0.108-0.356c0.746-0.271,1.514-0.541,2.509-0.893
		c-0.13-0.34-0.335-0.93-0.53-1.519C365.003,195.858,365.133,195.794,365.263,195.729z"/>
	<linearGradient id="SVGID_31_" gradientUnits="userSpaceOnUse" x1="369.1582" y1="230.4824" x2="366.8508" y2="234.4789">
		<stop  offset="0" style="stop-color:#2EC425"/>
		<stop  offset="0.1756" style="stop-color:#2CBE27"/>
		<stop  offset="0.4049" style="stop-color:#28AE2B"/>
		<stop  offset="0.6638" style="stop-color:#209332"/>
		<stop  offset="0.9427" style="stop-color:#156E3D"/>
		<stop  offset="1" style="stop-color:#13653F"/>
	</linearGradient>
	<path fill-rule="evenodd" clip-rule="evenodd" fill="url(#SVGID_31_)" d="M370.593,231.615c-1.643,0.725-3.286,1.459-4.919,2.184
		c-0.076-0.173-0.165-0.335-0.228-0.508c1.654-0.692,3.309-1.395,4.963-2.087C370.464,231.345,370.518,231.475,370.593,231.615z"/>
	<linearGradient id="SVGID_32_" gradientUnits="userSpaceOnUse" x1="359.4678" y1="195.2871" x2="357.7351" y2="198.2882">
		<stop  offset="0" style="stop-color:#2EC425"/>
		<stop  offset="0.1756" style="stop-color:#2CBE27"/>
		<stop  offset="0.4049" style="stop-color:#28AE2B"/>
		<stop  offset="0.6638" style="stop-color:#209332"/>
		<stop  offset="0.9427" style="stop-color:#156E3D"/>
		<stop  offset="1" style="stop-color:#13653F"/>
	</linearGradient>
	<path fill-rule="evenodd" clip-rule="evenodd" fill="url(#SVGID_32_)" d="M359.705,197.334c-0.962,0.179-1.87,0.33-2.789,0.481
		c-0.033-0.151-0.055-0.292-0.087-0.421c0.648-0.249,1.295-0.498,2.033-0.79c-0.098-0.529-0.217-1.103-0.336-1.654
		c0.076-0.032,0.141-0.043,0.228-0.075C359.024,195.61,359.316,196.346,359.705,197.334z"/>
	<linearGradient id="SVGID_33_" gradientUnits="userSpaceOnUse" x1="346.1592" y1="210.2822" x2="344.1406" y2="213.7785">
		<stop  offset="0" style="stop-color:#2EC425"/>
		<stop  offset="0.1756" style="stop-color:#2CBE27"/>
		<stop  offset="0.4049" style="stop-color:#28AE2B"/>
		<stop  offset="0.6638" style="stop-color:#209332"/>
		<stop  offset="0.9427" style="stop-color:#156E3D"/>
		<stop  offset="1" style="stop-color:#13653F"/>
	</linearGradient>
	<path fill-rule="evenodd" clip-rule="evenodd" fill="url(#SVGID_33_)" d="M343.055,212.953c1.318-0.725,2.627-1.46,3.946-2.185
		c0.064,0.13,0.141,0.249,0.216,0.39c-1.286,0.725-2.573,1.449-3.87,2.162C343.26,213.201,343.151,213.072,343.055,212.953z"/>
	<linearGradient id="SVGID_34_" gradientUnits="userSpaceOnUse" x1="340.249" y1="272.8818" x2="338.1577" y2="276.5041">
		<stop  offset="0" style="stop-color:#2EC425"/>
		<stop  offset="0.1756" style="stop-color:#2CBE27"/>
		<stop  offset="0.4049" style="stop-color:#28AE2B"/>
		<stop  offset="0.6638" style="stop-color:#209332"/>
		<stop  offset="0.9427" style="stop-color:#156E3D"/>
		<stop  offset="1" style="stop-color:#13653F"/>
	</linearGradient>
	<path fill-rule="evenodd" clip-rule="evenodd" fill="url(#SVGID_34_)" d="M340.07,272.799c-0.443,1.309-0.887,2.628-1.33,3.936
		c-0.173-0.075-0.335-0.129-0.52-0.194c0.509-1.319,0.992-2.638,1.492-3.968C339.832,272.647,339.94,272.734,340.07,272.799z"/>
	<linearGradient id="SVGID_35_" gradientUnits="userSpaceOnUse" x1="337.1587" y1="240.0352" x2="335.665" y2="242.6222">
		<stop  offset="0" style="stop-color:#2EC425"/>
		<stop  offset="0.1756" style="stop-color:#2CBE27"/>
		<stop  offset="0.4049" style="stop-color:#28AE2B"/>
		<stop  offset="0.6638" style="stop-color:#209332"/>
		<stop  offset="0.9427" style="stop-color:#156E3D"/>
		<stop  offset="1" style="stop-color:#13653F"/>
	</linearGradient>
	<path fill-rule="evenodd" clip-rule="evenodd" fill="url(#SVGID_35_)" d="M336.135,239.443c0.28,1.395,0.508,2.443,0.713,3.492
		C335.767,243.141,335.647,242.687,336.135,239.443z"/>
	<linearGradient id="SVGID_36_" gradientUnits="userSpaceOnUse" x1="341.0542" y1="224.3398" x2="340.2338" y2="225.7609">
		<stop  offset="0" style="stop-color:#2EC425"/>
		<stop  offset="0.1756" style="stop-color:#2CBE27"/>
		<stop  offset="0.4049" style="stop-color:#28AE2B"/>
		<stop  offset="0.6638" style="stop-color:#209332"/>
		<stop  offset="0.9427" style="stop-color:#156E3D"/>
		<stop  offset="1" style="stop-color:#13653F"/>
	</linearGradient>
	<path fill-rule="evenodd" clip-rule="evenodd" fill="url(#SVGID_36_)" d="M341.486,226.484c-0.67-0.968-1.222-1.768-1.819-2.633
		C341,223.928,341.541,224.674,341.486,226.484z"/>
	<linearGradient id="SVGID_37_" gradientUnits="userSpaceOnUse" x1="362.7524" y1="189.374" x2="362.1022" y2="190.5003">
		<stop  offset="0" style="stop-color:#2EC425"/>
		<stop  offset="0.1756" style="stop-color:#2CBE27"/>
		<stop  offset="0.4049" style="stop-color:#28AE2B"/>
		<stop  offset="0.6638" style="stop-color:#209332"/>
		<stop  offset="0.9427" style="stop-color:#156E3D"/>
		<stop  offset="1" style="stop-color:#13653F"/>
	</linearGradient>
	<path fill-rule="evenodd" clip-rule="evenodd" fill="url(#SVGID_37_)" d="M363.349,191.221c-0.638-0.812-1.275-1.628-1.913-2.444
		C362.754,189.068,363.306,189.966,363.349,191.221z"/>
	<linearGradient id="SVGID_38_" gradientUnits="userSpaceOnUse" x1="357.2646" y1="233.2969" x2="353.6335" y2="239.5861">
		<stop  offset="0" style="stop-color:#2EC425"/>
		<stop  offset="0.1756" style="stop-color:#2CBE27"/>
		<stop  offset="0.4049" style="stop-color:#28AE2B"/>
		<stop  offset="0.6638" style="stop-color:#209332"/>
		<stop  offset="0.9427" style="stop-color:#156E3D"/>
		<stop  offset="1" style="stop-color:#13653F"/>
	</linearGradient>
	<path fill-rule="evenodd" clip-rule="evenodd" fill="url(#SVGID_38_)" d="M353.291,239.389c1.6-1.049,2.9-1.902,4.295-2.811
		c-1.395-1.535-2.746-0.336-4.119-0.162c-0.206-1.309,0.562-1.936,1.481-2.368c1.124-0.53,2.595-1.017,3.373-0.011
		c0.4,0.54-0.197,2.108-0.671,3.027C356.938,238.438,355.11,239.356,353.291,239.389z"/>
	<linearGradient id="SVGID_39_" gradientUnits="userSpaceOnUse" x1="357.5361" y1="229.0518" x2="355.3035" y2="232.9189">
		<stop  offset="0" style="stop-color:#2EC425"/>
		<stop  offset="0.1756" style="stop-color:#2CBE27"/>
		<stop  offset="0.4049" style="stop-color:#28AE2B"/>
		<stop  offset="0.6638" style="stop-color:#209332"/>
		<stop  offset="0.9427" style="stop-color:#156E3D"/>
		<stop  offset="1" style="stop-color:#13653F"/>
	</linearGradient>
	<path fill-rule="evenodd" clip-rule="evenodd" fill="url(#SVGID_39_)" d="M358.851,230.183c-1.567,0.697-3.124,1.389-4.682,2.081
		c-0.075-0.13-0.141-0.281-0.205-0.433c1.557-0.719,3.104-1.438,4.66-2.151C358.711,229.842,358.775,230.004,358.851,230.183z"/>
</g>
</svg>
