<?xml version="1.0" encoding="utf-8"?>
<!-- Generator: Adobe Illustrator 16.0.0, SVG Export Plug-In . SVG Version: 6.00 Build 0)  -->
<!DOCTYPE svg PUBLIC "-//W3C//DTD SVG 1.1//EN" "http://www.w3.org/Graphics/SVG/1.1/DTD/svg11.dtd">
<svg version="1.1" id="Layer_1" xmlns="http://www.w3.org/2000/svg" xmlns:xlink="http://www.w3.org/1999/xlink" x="0px" y="0px"
	 width="811.574px" height="560px" viewBox="0 0 811.574 560" enable-background="new 0 0 811.574 560" xml:space="preserve">
<linearGradient id="SVGID_1_" gradientUnits="userSpaceOnUse" x1="394.252" y1="93.2627" x2="130.3997" y2="550.2681">
	<stop  offset="0" style="stop-color:#2EC425"/>
	<stop  offset="0.1756" style="stop-color:#2CBE27"/>
	<stop  offset="0.4049" style="stop-color:#28AE2B"/>
	<stop  offset="0.6638" style="stop-color:#209332"/>
	<stop  offset="0.9427" style="stop-color:#156E3D"/>
	<stop  offset="1" style="stop-color:#13653F"/>
</linearGradient>
<path fill="url(#SVGID_1_)" d="M384.035,119.413c-5.375-6.507-15.168-9.821-29.107-9.821c-10.236,0-18.346,1.654-24.332,4.896
	l-0.029-42.378c0.213-2.018,0.428-8.667-4.547-14.504c-4.848-5.659-12.771-8.531-23.605-8.531c-7.74,0-14.012,1.454-18.945,4.119
	V41.741c0.244-2.024,0.414-7.812-4.076-13.278c-5.373-6.507-15.166-9.821-29.094-9.821c-14.311,0-24.574,3.2-30.504,9.508
	c-5.23,5.566-5.031,11.468-5.018,11.796v13.449c-5.502-2.844-12.844-4.319-22.023-4.319c-14.324,0-24.588,3.2-30.533,9.515
	c-5.23,5.545-5.031,11.453-5.002,11.767v114.784c-2.467-0.841-4.975-1.497-7.527-1.753c-19.215-1.996-32.828,13.699-33.383,14.354
	l-1.34,1.583V381.78l55.549,55.557v23.385h-55.549v80.637h11.232v-69.391h44.316h188.928h17.533v69.391h11.232v-80.637h-28.809
	l-0.07-16.344c20.969-3.841,28.309-28.529,28.65-29.67l0.229-0.784l-0.1-281.232C388.354,130.674,388.539,124.873,384.035,119.413z
	 M376.979,131.23l-0.1,0.534l0.1,280.506c-1.297,3.728-8.168,21.396-23.277,21.396h-5.645l0.113,27.056H181.75v-28.046
	l-55.549-55.557V203.643c3.178-3.093,11.717-10.092,22.379-9.08c10.891,1.069,21.381,10.349,31.174,27.54v93.83l81.621,0.763
	c3.08,1.098,17.676,7.263,30.305,27.945l9.58-5.857c-16.621-27.24-36.648-32.893-37.49-33.128l-72.768-0.848v-85.641l-0.713-1.255
	c-7.67-13.819-16.107-23.498-25.145-29.064h3.307V70.229c0.057-3.428,5.217-9.928,24.303-9.928c9.951,0,17.148,1.989,20.27,5.574
	c1.512,1.739,1.74,3.506,1.754,4.34v0.506l-0.1,0.527l0.1,145.352l5.631-0.014h5.615v-0.015l0,0l0,0L226.01,39.795
	c0.057-3.428,5.217-9.928,24.289-9.928c9.936,0,17.164,1.988,20.285,5.573c2.066,2.352,1.754,4.847,1.754,4.847l-0.102,0.542
	l0.102,175.757h11.232l-0.016-27.739h0.016V70.214c0-0.122,0.027-2.801,2.465-5.246c3.037-3.043,8.695-4.668,16.379-4.668
	c7.197,0,12.373,1.561,14.967,4.49c2.408,2.73,2.023,6.072,2.023,6.072l-0.07,0.485l0.07,145.238h11.248l-0.016-85.869
	c0.072-3.421,5.219-9.878,24.291-9.878c9.963,0,17.176,1.967,20.297,5.545C377.293,128.75,376.979,131.23,376.979,131.23z"/>
<linearGradient id="SVGID_2_" gradientUnits="userSpaceOnUse" x1="164.874" y1="497.5303" x2="153.2004" y2="517.7495">
	<stop  offset="0" style="stop-color:#2EC425"/>
	<stop  offset="0.1756" style="stop-color:#2CBE27"/>
	<stop  offset="0.4049" style="stop-color:#28AE2B"/>
	<stop  offset="0.6638" style="stop-color:#209332"/>
	<stop  offset="0.9427" style="stop-color:#156E3D"/>
	<stop  offset="1" style="stop-color:#13653F"/>
</linearGradient>
<rect x="150.49" y="499.094" fill="url(#SVGID_2_)" width="17.092" height="17.091"/>
<linearGradient id="SVGID_3_" gradientUnits="userSpaceOnUse" x1="701.9443" y1="87.8516" x2="435.9206" y2="548.618">
	<stop  offset="0" style="stop-color:#2EC425"/>
	<stop  offset="0.1756" style="stop-color:#2CBE27"/>
	<stop  offset="0.4049" style="stop-color:#28AE2B"/>
	<stop  offset="0.6638" style="stop-color:#209332"/>
	<stop  offset="0.9427" style="stop-color:#156E3D"/>
	<stop  offset="1" style="stop-color:#13653F"/>
</linearGradient>
<path fill="url(#SVGID_3_)" d="M696.605,381.78V199.324l-1.354-1.583c-0.557-0.655-14.055-16.35-33.385-14.354
	c-2.551,0.256-5.047,0.913-7.525,1.739l-0.016-114.435c0.029-0.655,0.242-6.557-4.988-12.102
	c-5.943-6.314-16.223-9.515-30.533-9.515c-9.193,0-16.535,1.475-22.051,4.319V40.273c0.043-0.656,0.242-6.557-4.99-12.117
	c-5.916-6.314-16.207-9.515-30.518-9.515c-13.928,0-23.705,3.314-29.064,9.807c-4.506,5.481-4.32,11.268-4.092,13.292l-0.014,11.453
	c-4.918-2.666-11.219-4.119-18.945-4.119c-10.832,0-18.758,2.872-23.59,8.531c-4.99,5.837-4.762,12.486-4.563,14.504l-0.027,42.378
	c-5.988-3.243-14.113-4.896-24.348-4.896c-13.926,0-23.705,3.314-29.078,9.821c-4.506,5.474-4.305,11.261-4.063,13.278l-0.1,280.463
	l0.227,1.554c0.328,1.141,7.684,25.829,28.623,29.67l-0.057,16.344h-28.809v80.637h11.219v-69.391h17.547h188.928h44.318v69.391
	h11.246v-80.637h-55.564v-23.385L696.605,381.78z M463.375,460.722l0.127-27.056h-5.645c-15.123,0-21.994-17.668-23.277-21.396
	l0.115-279.957l-0.1-0.948c-0.016-0.107-0.328-2.602,1.738-4.982c3.121-3.578,10.32-5.545,20.27-5.545
	c19.072,0,24.246,6.457,24.305,10.035v85.712h11.232l0.07-144.797l-0.057-0.784c-0.014-0.143-0.398-3.485,2.023-6.215
	c2.58-2.929,7.756-4.49,14.953-4.49c8.154,0,13.998,1.81,16.893,5.21c1.967,2.274,1.967,4.611,1.967,4.846v118.49h0.014
	l-0.014,27.739h11.232l0.113-175.229l-0.113-1.069c0,0-0.271-2.388,1.611-4.689c3.049-3.692,10.291-5.73,20.412-5.73
	c19.072,0,24.232,6.5,24.289,10.078v176.641h5.615l5.617,0.014l0.113-144.796l-0.1-0.955c0-0.1-0.328-2.595,1.74-4.975
	c3.135-3.585,10.334-5.574,20.283-5.574c19.072,0,24.232,6.5,24.305,10.056v118.49h3.291c-9.037,5.566-17.461,15.245-25.129,29.064
	l-0.699,1.255v85.641l-71.387,0.655l-1.396,0.192c-0.84,0.235-20.869,5.888-37.504,33.128l9.58,5.857
	c12.658-20.739,27.311-26.876,30.305-27.945l81.635-0.763v-93.83c9.75-17.155,20.242-26.427,31.117-27.54
	c10.619-1.098,19.244,6.016,22.438,9.102v173.455l-55.564,55.557v28.046H463.375z"/>
<linearGradient id="SVGID_4_" gradientUnits="userSpaceOnUse" x1="658.3604" y1="497.5303" x2="646.6873" y2="517.7487">
	<stop  offset="0" style="stop-color:#2EC425"/>
	<stop  offset="0.1756" style="stop-color:#2CBE27"/>
	<stop  offset="0.4049" style="stop-color:#28AE2B"/>
	<stop  offset="0.6638" style="stop-color:#209332"/>
	<stop  offset="0.9427" style="stop-color:#156E3D"/>
	<stop  offset="1" style="stop-color:#13653F"/>
</linearGradient>
<rect x="643.979" y="499.094" fill="url(#SVGID_4_)" width="17.09" height="17.091"/>
</svg>
