<?xml version="1.0" encoding="utf-8"?>
<!-- Generator: Adobe Illustrator 16.0.0, SVG Export Plug-In . SVG Version: 6.00 Build 0)  -->
<!DOCTYPE svg PUBLIC "-//W3C//DTD SVG 1.1//EN" "http://www.w3.org/Graphics/SVG/1.1/DTD/svg11.dtd">
<svg version="1.1" id="Layer_1" xmlns="http://www.w3.org/2000/svg" xmlns:xlink="http://www.w3.org/1999/xlink" x="0px" y="0px"
	 width="811.574px" height="560px" viewBox="0 0 811.574 560" enable-background="new 0 0 811.574 560" xml:space="preserve">
<linearGradient id="SVGID_1_" gradientUnits="userSpaceOnUse" x1="532.002" y1="61.3682" x2="279.5669" y2="498.5985">
	<stop  offset="0" style="stop-color:#2EC425"/>
	<stop  offset="0.1756" style="stop-color:#2CBE27"/>
	<stop  offset="0.4049" style="stop-color:#28AE2B"/>
	<stop  offset="0.6638" style="stop-color:#209332"/>
	<stop  offset="0.9427" style="stop-color:#156E3D"/>
	<stop  offset="1" style="stop-color:#13653F"/>
</linearGradient>
<path fill="url(#SVGID_1_)" d="M590.584,203.463V95.191H482.347l-76.56-76.549l-76.56,76.549H220.979V203.43l-76.536,76.559
	l76.536,76.537v108.248l108.261,0.012l76.548,76.572l76.536-76.572h108.261v-108.26L667.132,280L590.584,203.463z M578.844,351.682
	v16.594v84.781h-84.758l-16.616-0.012l-11.752,11.74l-59.931,59.955l-59.942-59.955l-11.74-11.74h-16.616H232.73v-84.781v-16.605
	l-11.752-11.738l-59.942-59.932l59.942-59.941l11.752-11.74v-16.605v-84.746h84.758h16.594l11.751-11.764l59.954-59.941
	l59.942,59.941l11.751,11.764h16.605h84.758v84.746v16.617l11.74,11.74L650.526,280l-59.942,59.932L578.844,351.682z"/>
<g>
	<linearGradient id="SVGID_2_" gradientUnits="userSpaceOnUse" x1="423.166" y1="259.9541" x2="334.275" y2="413.9178">
		<stop  offset="0" style="stop-color:#2EC425"/>
		<stop  offset="0.1756" style="stop-color:#2CBE27"/>
		<stop  offset="0.4049" style="stop-color:#28AE2B"/>
		<stop  offset="0.6638" style="stop-color:#209332"/>
		<stop  offset="0.9427" style="stop-color:#156E3D"/>
		<stop  offset="1" style="stop-color:#13653F"/>
	</linearGradient>
	<path fill-rule="evenodd" clip-rule="evenodd" fill="url(#SVGID_2_)" d="M455.43,299.369c3.31,2.496,5.48,4.088,7.641,5.701
		c0.371-0.301,0.731-0.615,1.104-0.904c-3.287-10.875-8.872-20.514-15.84-29.682c-6.235,4.135-7.152,9.854-5.898,15.596
		c3.449,15.955,7.211,31.816,11.311,47.609c2.264,8.715,5.689,17.146,8.059,25.873c1.567,5.736-0.232,8.105-5.911,9.904
		c-9.951,3.111-23.909-3.496-28.438-13.877c-2.09-4.76-4.063-9.801-4.795-14.922c-1.719-11.902-2.369-23.99-3.972-35.939
		c-1.498-11.09-4.401-21.865-9.998-31.98c-6.805,13.854-7.792,17.418-5.296,27.092c4.053,15.734,5.075,31.713,4.181,47.762
		c-0.337,5.887-1.254,12.506-4.284,17.279c-11.009,17.197-34.338,16.385-45.137-1c-0.535-0.859-0.604-2.09-0.558-3.146
		c0.522-12.391,1.23-24.781,1.672-37.193c0.278-7.617,0.302-15.271,0.163-22.9c-0.023-1.521-0.918-3.867-1.998-4.285
		c-1.23-0.43-3.611,0.418-4.609,1.51c-2.566,2.764-5.04,5.754-6.863,9.059c-6.526,11.949-9.73,25.012-12.355,38.273
		c-2.125,10.73-3.925,21.576-7.037,32.051c-2.845,9.568-10.266,10.834-16.756,3.088c-3.449-4.156-6.004-9.359-7.851-14.492
		c-4.761-13.371-4.018-27.254-2.845-41.096c0.313-3.646,2.602-5.574,6.154-6.27c2.148-0.453,4.378-0.93,6.306-1.906
		c3.438-1.695,4.726-4.68,2.09-7.768c-3.553-4.191-7.466-8.123-11.565-11.764c-2.299-2.043-5.261-1.486-5.992,1.719
		c-1.126,4.859-3.054,10.381-1.753,14.725c1.567,5.225-0.465,7.57-3.658,9.76c-8.105,5.568-16.454,10.76-24.688,16.17
		c-2.497,1.615-4.936,3.299-7.397,4.971c0.303,0.504,0.604,0.986,0.918,1.51c10.613-5.318,21.238-10.59,32.955-16.432
		c-2.38,14.26-0.058,26.709,3.008,39.063c2.856,11.486,7.246,22.088,17.558,29.078c7.467,5.063,14.713,2.949,17.94-5.271
		c1.44-3.693,2.764-7.467,3.635-11.322c3.321-14.83,6.189-29.773,9.72-44.568c1.382-5.84,4.019-11.402,6.491-18.172
		c-0.964,14.084-2.264,26.73-2.508,39.389c-0.209,11.738,2.88,22.689,11.774,31.178c5.376,5.156,11.508,8.256,19.323,7.09
		c13.876-2.107,22.33-10.816,27.66-22.963c2.392-5.412,3.646-11.299,5.539-17.35c1.277,2.869,2.438,5.447,3.541,8.082
		c3.333,7.92,7.932,14.84,15.097,19.834c13.702,9.568,31.144,5.701,36.357-8.686c2.218-6.119,3.077-13.041,3.065-19.578
		c-0.046-12.658-3.193-24.816-7.605-36.643C460.388,315.371,458.229,307.975,455.43,299.369z M296.83,310.135
		c1.822,0.451,3.646,0.852,5.399,1.486c0.104,0.021-0.396,1.775-0.604,2.734c-1.822-0.529-3.646-1.051-5.457-1.551
		C296.389,311.91,296.609,311.016,296.83,310.135z"/>
	<linearGradient id="SVGID_3_" gradientUnits="userSpaceOnUse" x1="553.6631" y1="187.2656" x2="450.2795" y2="366.3312">
		<stop  offset="0" style="stop-color:#2EC425"/>
		<stop  offset="0.1756" style="stop-color:#2CBE27"/>
		<stop  offset="0.4049" style="stop-color:#28AE2B"/>
		<stop  offset="0.6638" style="stop-color:#209332"/>
		<stop  offset="0.9427" style="stop-color:#156E3D"/>
		<stop  offset="1" style="stop-color:#13653F"/>
	</linearGradient>
	<path fill-rule="evenodd" clip-rule="evenodd" fill="url(#SVGID_3_)" d="M510.518,277.875c-1.242-16.965-2.682-33.908-4.11-50.838
		c-0.836-9.871-1.812-19.73-2.811-30.391c3.635,3.938,6.654,7.201,9.661,10.451c0.488-0.266,0.953-0.557,1.417-0.848
		c-3.937-17.256-9.533-34-15.78-50.605c-0.906,0.348-1.267,0.365-1.476,0.58c-0.464,0.418-0.848,0.936-1.219,1.453
		c-5.539,7.488-6.562,15.932-5.679,24.941c1.358,13.75,2.671,27.533,3.704,41.293c1.661,22.041,3.229,44.104,4.587,66.156
		c1.498,24.605,2.659,49.246,4.088,73.848c0.662,11.42,1.614,22.801,2.438,34.203c0.441,0,0.883,0.023,1.335,0.035
		c0.488-1.127,1.092-2.207,1.452-3.367c5.76-18.568,7.978-37.52,6.503-56.947C513.107,317.855,511.98,297.859,510.518,277.875z"/>
	<linearGradient id="SVGID_4_" gradientUnits="userSpaceOnUse" x1="317.4971" y1="222.4824" x2="275.5502" y2="295.1366">
		<stop  offset="0" style="stop-color:#2EC425"/>
		<stop  offset="0.1756" style="stop-color:#2CBE27"/>
		<stop  offset="0.4049" style="stop-color:#28AE2B"/>
		<stop  offset="0.6638" style="stop-color:#209332"/>
		<stop  offset="0.9427" style="stop-color:#156E3D"/>
		<stop  offset="1" style="stop-color:#13653F"/>
	</linearGradient>
	<path fill-rule="evenodd" clip-rule="evenodd" fill="url(#SVGID_4_)" d="M282.105,289.986c3.623-1.904,6.862-4.586,10.114-7.105
		c4.075-3.137,7.989-6.48,11.786-9.57c3.438,4.844,6.445,9.082,9.406,13.238c9.104-5.045,17.302-10.287,26.104-14.189
		c5.527-2.451,8.663-4.889,8.442-11.461c-0.104-3.146-0.592-4.912-3.402-5.639c-6.444-1.619-12.89-3.727-19.462-4.383
		c-12.1-1.289-12.391-1.73-17.883,7.861c-0.104,0.174-0.522,0.174-1.104,0.383c-1.997-15.49,0.314-31.457-5.644-46.473
		c-0.836,2.713-1.428,5.494-1.439,8.234c-0.104,11.938-0.244,23.896,0.046,35.834c0.105,4.379-1.033,7.41-4.609,10.092
		c-4.553,3.496-8.535,7.676-12.785,11.543c0.313,0.324,0.627,0.674,0.94,1.021c8.896-2.078,14.516-8.361,19.647-15.643
		c-0.012,2.045-0.243,3.955-1.289,5.244c-6.607,8.18-14.91,13.824-25.396,15.682c-6.886,1.219-12.39-3.229-13.006-10.057
		c-0.313-3.576,1.185-6.34,4.378-7.756c3.065-1.324,5.98-0.768,7.943,2.264c2.473,3.867,6.166,2.729,9.486,2.045
		c3.136-0.617,5.354-2.578,5.574-6.213c0.268-4.488,0.709-8.977,1.068-13.459c0.511-0.348,1.021-0.738,1.521-1.092
		c1.138,2.264,2.252,4.506,3.379,6.729c0.767-0.574,1.545-1.154,2.311-1.746c-1.812-3.322-3.379-6.816-5.504-9.906
		c-3.286-4.771-4.981-9.904-4.912-15.641c0.059-3.043,0.406-6.127-0.104-9.047c-0.487-2.752-1.916-5.318-2.915-7.953
		c-0.592,0.168-1.172,0.359-1.753,0.545c0,5.551,0.046,11.078-0.035,16.582c-0.022,0.998-0.546,2.055-1.091,2.914
		c-0.128,0.197-1.789-0.08-1.986-0.521c-1.997-4.25-4.471-8.465-5.446-12.971c-0.43-2.021,1.963-4.959,3.658-6.99
		c3.972-4.809,3.913-9.012-1.429-13.1c-0.499,2.242-0.836,4.123-1.347,5.957c-1.313,4.738-1.394,10.313-8.466,10.787
		c-1.021,0.094-2.206,2.799-2.658,4.471c-0.268,0.947,0.464,2.59,1.266,3.387c4.064,4.244,8.697,7.971,12.39,12.5
		c5.377,6.619,9.104,14.166,9.197,23.027c0.046,3.541-0.534,6.852-5.052,7.211c-3.391,0.273-5.782-2.566-5.98-7.119
		c-0.139-3.029,0.128-6.061-0.092-9.08c-0.244-3.193-1.068-6.213-4.646-6.887c-1.498,3.623-2.032,7.74-4.366,10.057
		c-7.711,7.676-7.78,16.711-5.957,26.197C263.166,290.996,272.003,295.281,282.105,289.986z M334.43,268.354
		c-5.295,4.436-11.136,7.676-18.185,8.197c-0.186-0.418-0.383-0.848-0.558-1.254c6.051-2.752,12.111-5.492,18.174-8.244
		C334.047,267.494,334.244,267.936,334.43,268.354z M313.505,267.139c0-0.818,0-1.643,0-2.473c3.483-0.215,6.979-0.453,10.474-0.691
		c0.059,0.859,0.105,1.742,0.151,2.613C320.588,266.773,317.047,266.936,313.505,267.139z M332.247,259.295
		c-6.434-0.498-12.866-0.963-20.565-1.533C316.547,254.197,320.576,254.547,332.247,259.295z M272.27,254.93
		c-0.256,4.262-2.09,6.258-6.398,7.037C265.744,257.402,267.834,255.627,272.27,254.93z"/>
	<linearGradient id="SVGID_5_" gradientUnits="userSpaceOnUse" x1="435.2119" y1="128.6875" x2="379.9692" y2="224.3706">
		<stop  offset="0" style="stop-color:#2EC425"/>
		<stop  offset="0.1756" style="stop-color:#2CBE27"/>
		<stop  offset="0.4049" style="stop-color:#28AE2B"/>
		<stop  offset="0.6638" style="stop-color:#209332"/>
		<stop  offset="0.9427" style="stop-color:#156E3D"/>
		<stop  offset="1" style="stop-color:#13653F"/>
	</linearGradient>
	<path fill-rule="evenodd" clip-rule="evenodd" fill="url(#SVGID_5_)" d="M340.271,199.551c0.243,0.754,0.487,1.545,0.73,2.322
		c44.661-16.164,89.334-32.363,133.994-48.516c-0.256-0.732-0.522-1.428-0.767-2.143
		C427.664,162.09,383.189,178.607,340.271,199.551z"/>
	<linearGradient id="SVGID_6_" gradientUnits="userSpaceOnUse" x1="438.7197" y1="169.4814" x2="392.031" y2="250.3487">
		<stop  offset="0" style="stop-color:#2EC425"/>
		<stop  offset="0.1756" style="stop-color:#2CBE27"/>
		<stop  offset="0.4049" style="stop-color:#28AE2B"/>
		<stop  offset="0.6638" style="stop-color:#209332"/>
		<stop  offset="0.9427" style="stop-color:#156E3D"/>
		<stop  offset="1" style="stop-color:#13653F"/>
	</linearGradient>
	<path fill-rule="evenodd" clip-rule="evenodd" fill="url(#SVGID_6_)" d="M469.794,187.422c-4.239,0.818-8.651,1.143-12.657,2.578
		c-22.389,8.006-44.766,16.064-66.968,24.531c-8.872,3.402-17.349,7.814-25.872,12.064c-1.557,0.76-2.438,2.926-4.297,5.26
		c37.729-14.619,73.889-28.676,110.061-42.686C469.968,188.588,469.875,188.02,469.794,187.422z"/>
	<linearGradient id="SVGID_7_" gradientUnits="userSpaceOnUse" x1="412.585" y1="239.2813" x2="398.6996" y2="263.3314">
		<stop  offset="0" style="stop-color:#2EC425"/>
		<stop  offset="0.1756" style="stop-color:#2CBE27"/>
		<stop  offset="0.4049" style="stop-color:#28AE2B"/>
		<stop  offset="0.6638" style="stop-color:#209332"/>
		<stop  offset="0.9427" style="stop-color:#156E3D"/>
		<stop  offset="1" style="stop-color:#13653F"/>
	</linearGradient>
	<path fill-rule="evenodd" clip-rule="evenodd" fill="url(#SVGID_7_)" d="M405.229,238.371c-3.972,5.758,0.023,13.354-6.015,19.52
		c-1.975-4.936-3.554-8.871-5.133-12.82c-0.302,0.035-0.627,0.047-0.94,0.047c0.255,3.564,0.302,7.158,0.778,10.672
		c0.43,3.123,0.998,6.979,5.051,6.885c2.717-0.068,5.399-1.949,8.105-3.018c1.115-0.639,2.508,0.4,4.088,1.068
		c3.309,1.381,6.212,0.162,6.34-3.275c0.162-4.797-0.674-9.662-1.51-14.439c-0.221-1.271-1.951-2.328-2.996-3.49
		c-0.639,0.262-1.277,0.559-1.916,0.813c1.045,4.518,2.091,9,3.345,14.389C406.67,251.445,409.944,242.898,405.229,238.371z"/>
	<linearGradient id="SVGID_8_" gradientUnits="userSpaceOnUse" x1="547.7402" y1="269.418" x2="534.0405" y2="293.1465">
		<stop  offset="0" style="stop-color:#2EC425"/>
		<stop  offset="0.1756" style="stop-color:#2CBE27"/>
		<stop  offset="0.4049" style="stop-color:#28AE2B"/>
		<stop  offset="0.6638" style="stop-color:#209332"/>
		<stop  offset="0.9427" style="stop-color:#156E3D"/>
		<stop  offset="1" style="stop-color:#13653F"/>
	</linearGradient>
	<path fill-rule="evenodd" clip-rule="evenodd" fill="url(#SVGID_8_)" d="M540.024,277.154c0.035-0.754,0.081-1.51,0.128-2.287
		c1.254-0.244,3.158-0.07,3.658-0.824c1.057-1.596,1.893-3.705,1.753-5.516c-0.069-0.744-3.03-2.102-4.354-1.801
		c-3.519,0.848-9.221,9.418-9.418,13.1c-0.186,3.867-0.522,7.723-0.789,11.566c4.842,0.242,19.799-7.387,21.947-11.973
		C548.617,278.652,544.321,277.893,540.024,277.154z"/>
	<linearGradient id="SVGID_9_" gradientUnits="userSpaceOnUse" x1="416.2422" y1="398.415" x2="402.998" y2="421.3546">
		<stop  offset="0" style="stop-color:#2EC425"/>
		<stop  offset="0.1756" style="stop-color:#2CBE27"/>
		<stop  offset="0.4049" style="stop-color:#28AE2B"/>
		<stop  offset="0.6638" style="stop-color:#209332"/>
		<stop  offset="0.9427" style="stop-color:#156E3D"/>
		<stop  offset="1" style="stop-color:#13653F"/>
	</linearGradient>
	<path fill-rule="evenodd" clip-rule="evenodd" fill="url(#SVGID_9_)" d="M422.463,402.092c-1.324-0.279-3.426,0.012-4.146,0.904
		c-1.765,2.16-2.996,4.785-4.296,7.305c-0.883,1.684-1.521,3.484-2.416,5.627c-3.298-5.824-5.318-11.908-13.308-13.146
		c0.291,2.398-0.081,4.453,0.79,5.615c4.668,6.271,9.638,12.32,15.479,19.637c0.43-3.961,0.975-7.281,1.114-10.625
		c0.175-4.482,1.185-8.049,6.178-9.477c1.208-0.359,2.357-2.031,2.868-3.344C424.924,404.076,423.392,402.254,422.463,402.092z"/>
	<linearGradient id="SVGID_10_" gradientUnits="userSpaceOnUse" x1="334.5537" y1="157.1104" x2="325.3351" y2="173.0775">
		<stop  offset="0" style="stop-color:#2EC425"/>
		<stop  offset="0.1756" style="stop-color:#2CBE27"/>
		<stop  offset="0.4049" style="stop-color:#28AE2B"/>
		<stop  offset="0.6638" style="stop-color:#209332"/>
		<stop  offset="0.9427" style="stop-color:#156E3D"/>
		<stop  offset="1" style="stop-color:#13653F"/>
	</linearGradient>
	<path fill-rule="evenodd" clip-rule="evenodd" fill="url(#SVGID_10_)" d="M331.004,174.213c5.424-1.336,8.094-7.188,5.028-11.834
		c-2.021-3.1-4.796-5.748-7.234-8.592c-0.58,0.012-1.173,0.012-1.729,0.041c-1.139,5.045-2.729,10.072-3.264,15.193
		C323.422,172.762,327.277,175.131,331.004,174.213z M326.848,164.365c1.857,0.58,3.738,1.139,5.539,1.869
		c0.092,0.059-0.5,1.801-0.79,2.74c-1.882-0.695-3.751-1.41-5.632-2.102C326.255,166.037,326.533,165.213,326.848,164.365z"/>
	<linearGradient id="SVGID_11_" gradientUnits="userSpaceOnUse" x1="392.1758" y1="138.1406" x2="384.0067" y2="152.2899">
		<stop  offset="0" style="stop-color:#2EC425"/>
		<stop  offset="0.1756" style="stop-color:#2CBE27"/>
		<stop  offset="0.4049" style="stop-color:#28AE2B"/>
		<stop  offset="0.6638" style="stop-color:#209332"/>
		<stop  offset="0.9427" style="stop-color:#156E3D"/>
		<stop  offset="1" style="stop-color:#13653F"/>
	</linearGradient>
	<path fill-rule="evenodd" clip-rule="evenodd" fill="url(#SVGID_11_)" d="M393.792,157.678c0.104,0.545,1.707,1.23,2.589,1.195
		c0.5-0.023,0.987-1.289,0.883-1.115c-0.58-10.01-5.829-16.455-12.054-22.283c-1.812-1.707-3.286-5.035-6.363-2.764
		c-0.487,0.324,1.138,4.4,2.485,6.252C385.709,145.055,392.515,149.467,393.792,157.678z"/>
	<linearGradient id="SVGID_12_" gradientUnits="userSpaceOnUse" x1="467.1309" y1="223.5566" x2="453.7371" y2="246.7554">
		<stop  offset="0" style="stop-color:#2EC425"/>
		<stop  offset="0.1756" style="stop-color:#2CBE27"/>
		<stop  offset="0.4049" style="stop-color:#28AE2B"/>
		<stop  offset="0.6638" style="stop-color:#209332"/>
		<stop  offset="0.9427" style="stop-color:#156E3D"/>
		<stop  offset="1" style="stop-color:#13653F"/>
	</linearGradient>
	<path fill-rule="evenodd" clip-rule="evenodd" fill="url(#SVGID_12_)" d="M461.143,220.498c-4.227,6.631-7.084,13.82-7.711,21.773
		c-0.127,1.707,0.744,3.879,1.894,5.203c0.894,1.033,3.402,1.939,4.366,1.404c1.37-0.801,2.357-2.811,2.787-4.494
		c0.139-0.498-2.125-1.73-3.392-2.426c-0.789-0.406-1.8-0.373-3.321-0.65c2.451-7.178,4.703-13.75,6.934-20.311
		C462.176,220.824,461.665,220.662,461.143,220.498z"/>
	<linearGradient id="SVGID_13_" gradientUnits="userSpaceOnUse" x1="268.1504" y1="232.8496" x2="259.2422" y2="248.2791">
		<stop  offset="0" style="stop-color:#2EC425"/>
		<stop  offset="0.1756" style="stop-color:#2CBE27"/>
		<stop  offset="0.4049" style="stop-color:#28AE2B"/>
		<stop  offset="0.6638" style="stop-color:#209332"/>
		<stop  offset="0.9427" style="stop-color:#156E3D"/>
		<stop  offset="1" style="stop-color:#13653F"/>
	</linearGradient>
	<path fill-rule="evenodd" clip-rule="evenodd" fill="url(#SVGID_13_)" d="M268.972,233.424c-0.79-0.836-2.578-1.115-3.878-1
		c-0.627,0.047-1.464,1.412-1.695,2.336c-1.162,4.424-2.16,8.883-3.356,13.98c3.298-3.949,6.55-7.605,9.417-11.531
		C270.04,236.408,269.703,234.195,268.972,233.424z"/>
	<linearGradient id="SVGID_14_" gradientUnits="userSpaceOnUse" x1="329.0537" y1="228.0264" x2="317.478" y2="248.076">
		<stop  offset="0" style="stop-color:#2EC425"/>
		<stop  offset="0.1756" style="stop-color:#2CBE27"/>
		<stop  offset="0.4049" style="stop-color:#28AE2B"/>
		<stop  offset="0.6638" style="stop-color:#209332"/>
		<stop  offset="0.9427" style="stop-color:#156E3D"/>
		<stop  offset="1" style="stop-color:#13653F"/>
	</linearGradient>
	<path fill-rule="evenodd" clip-rule="evenodd" fill="url(#SVGID_14_)" d="M311.287,244.502c8.965-2.393,17.104-6.643,25.047-11.369
		c-0.278-0.453-0.568-0.918-0.848-1.393c-8.349,3.611-16.698,7.211-25.047,10.811C310.729,243.201,311.008,243.852,311.287,244.502z
		"/>
	<linearGradient id="SVGID_15_" gradientUnits="userSpaceOnUse" x1="306.5078" y1="197.3896" x2="296.1697" y2="215.2958">
		<stop  offset="0" style="stop-color:#2EC425"/>
		<stop  offset="0.1756" style="stop-color:#2CBE27"/>
		<stop  offset="0.4049" style="stop-color:#28AE2B"/>
		<stop  offset="0.6638" style="stop-color:#209332"/>
		<stop  offset="0.9427" style="stop-color:#156E3D"/>
		<stop  offset="1" style="stop-color:#13653F"/>
	</linearGradient>
	<path fill-rule="evenodd" clip-rule="evenodd" fill="url(#SVGID_15_)" d="M312.123,201.826c-0.313-0.586-0.615-1.16-0.93-1.73
		c-7.315,2.752-14.771,5.25-20.635,10.754c0.303,0.568,0.615,1.16,0.906,1.73C298.351,208.992,305.236,205.414,312.123,201.826z"/>
	<linearGradient id="SVGID_16_" gradientUnits="userSpaceOnUse" x1="317.4766" y1="213.7217" x2="312.1976" y2="222.8651">
		<stop  offset="0" style="stop-color:#2EC425"/>
		<stop  offset="0.1756" style="stop-color:#2CBE27"/>
		<stop  offset="0.4049" style="stop-color:#28AE2B"/>
		<stop  offset="0.6638" style="stop-color:#209332"/>
		<stop  offset="0.9427" style="stop-color:#156E3D"/>
		<stop  offset="1" style="stop-color:#13653F"/>
	</linearGradient>
	<path fill-rule="evenodd" clip-rule="evenodd" fill="url(#SVGID_16_)" d="M310.822,221.357c0.477,0.512,0.964,1.035,1.439,1.545
		c2.625-2.031,5.272-4.07,7.896-6.096c-1.672-1.475-4.087-4.506-4.877-4.111C311.891,214.311,310.346,217.504,310.822,221.357z"/>
	<linearGradient id="SVGID_17_" gradientUnits="userSpaceOnUse" x1="329.7813" y1="216.6094" x2="317.8582" y2="237.2608">
		<stop  offset="0" style="stop-color:#2EC425"/>
		<stop  offset="0.1756" style="stop-color:#2CBE27"/>
		<stop  offset="0.4049" style="stop-color:#28AE2B"/>
		<stop  offset="0.6638" style="stop-color:#209332"/>
		<stop  offset="0.9427" style="stop-color:#156E3D"/>
		<stop  offset="1" style="stop-color:#13653F"/>
	</linearGradient>
	<path fill-rule="evenodd" clip-rule="evenodd" fill="url(#SVGID_17_)" d="M335.695,220.023c-8.303,4.041-16.617,8.07-24.92,12.111
		c0.337,0.533,0.674,1.063,0.999,1.613c8.303-3.9,16.594-7.803,24.896-11.682C336.346,221.393,336.032,220.719,335.695,220.023z"/>
	<linearGradient id="SVGID_18_" gradientUnits="userSpaceOnUse" x1="338.9316" y1="239.1875" x2="333.8064" y2="248.0647">
		<stop  offset="0" style="stop-color:#2EC425"/>
		<stop  offset="0.1756" style="stop-color:#2CBE27"/>
		<stop  offset="0.4049" style="stop-color:#28AE2B"/>
		<stop  offset="0.6638" style="stop-color:#209332"/>
		<stop  offset="0.9427" style="stop-color:#156E3D"/>
		<stop  offset="1" style="stop-color:#13653F"/>
	</linearGradient>
	<path fill-rule="evenodd" clip-rule="evenodd" fill="url(#SVGID_18_)" d="M341.234,240.518c-2.764,0.152-5.376,0.256-9.707,0.477
		c2.717,3.785,4.621,6.434,7.048,9.824C339.702,246.453,340.41,243.711,341.234,240.518z"/>
	<linearGradient id="SVGID_19_" gradientUnits="userSpaceOnUse" x1="333.4854" y1="282.1738" x2="330.1176" y2="288.007">
		<stop  offset="0" style="stop-color:#2EC425"/>
		<stop  offset="0.1756" style="stop-color:#2CBE27"/>
		<stop  offset="0.4049" style="stop-color:#28AE2B"/>
		<stop  offset="0.6638" style="stop-color:#209332"/>
		<stop  offset="0.9427" style="stop-color:#156E3D"/>
		<stop  offset="1" style="stop-color:#13653F"/>
	</linearGradient>
	<path fill-rule="evenodd" clip-rule="evenodd" fill="url(#SVGID_19_)" d="M328.287,285.225c-0.059,1.104,2.311,3.449,2.892,3.24
		c1.638-0.58,2.892-2.217,4.284-3.449c-0.951-0.998-1.916-2.008-3.611-3.785C330.25,282.881,328.334,284.018,328.287,285.225z"/>
</g>
</svg>
