<?xml version="1.0" encoding="utf-8"?>
<!-- Generator: Adobe Illustrator 16.0.0, SVG Export Plug-In . SVG Version: 6.00 Build 0)  -->
<!DOCTYPE svg PUBLIC "-//W3C//DTD SVG 1.1//EN" "http://www.w3.org/Graphics/SVG/1.1/DTD/svg11.dtd">
<svg version="1.1" id="Layer_1" xmlns="http://www.w3.org/2000/svg" xmlns:xlink="http://www.w3.org/1999/xlink" x="0px" y="0px"
	 width="811.574px" height="560px" viewBox="0 0 811.574 560" enable-background="new 0 0 811.574 560" xml:space="preserve">
<g>
	<g>
		<path fill="#009245" d="M676.809,130.604c-1.254-4.776-5.421-8.521-11.284-7.02c-1.563,0.089-3.02,0.583-4.309,1.396
			c-12.043,4.185-24.087,8.37-36.13,12.547C573.15,57.929,480.652,13.128,382.928,19.186
			c-109.062,6.745-206.099,90.281-229.125,197.533c-3.567,16.626,21.923,23.698,25.499,7.02
			c19.416-90.388,94.087-158.286,183.389-175.592c91.509-17.73,185.102,23.893,236.736,98.298
			c-11.778,4.071-23.574,8.186-35.353,12.273c-6.816,2.375-10.896,11.894-4.574,17.341c26.824,23.195,53.666,46.391,80.489,69.586
			c5.404,4.68,15.752,3.664,17.342-4.583c6.648-34.814,13.332-69.655,20.008-104.506
			C677.763,134.331,677.497,132.353,676.809,130.604z"/>
		<path fill="#009245" d="M632.255,336.253c-19.425,90.387-94.087,158.286-183.406,175.592
			c-91.491,17.729-185.084-23.884-236.719-98.299c11.778-4.079,23.558-8.176,35.354-12.281c6.816-2.358,10.878-11.858,4.573-17.315
			c-26.823-23.213-53.647-46.39-80.48-69.594c-5.395-4.662-15.761-3.655-17.332,4.564c-6.676,34.842-13.351,69.674-20.008,104.488
			c-0.424,2.243-0.159,4.221,0.512,5.969c1.271,4.786,5.439,8.538,11.302,7.02c1.536-0.088,3.02-0.564,4.291-1.403
			c12.044-4.159,24.087-8.354,36.131-12.538c51.935,79.606,144.433,124.416,242.157,118.359
			c109.045-6.746,206.081-90.3,229.126-197.533C661.322,326.638,635.84,319.573,632.255,336.253z"/>
	</g>
	
		<text transform="matrix(1 0 0 1 280.5518 342.2334)" fill="#009245" font-family="'Roboto-Medium'" font-size="213.0113" letter-spacing="10">Rp</text>
</g>
</svg>
