<?xml version="1.0" encoding="utf-8"?>
<!-- Generator: Adobe Illustrator 16.0.0, SVG Export Plug-In . SVG Version: 6.00 Build 0)  -->
<!DOCTYPE svg PUBLIC "-//W3C//DTD SVG 1.1//EN" "http://www.w3.org/Graphics/SVG/1.1/DTD/svg11.dtd">
<svg version="1.1" id="Layer_1" xmlns="http://www.w3.org/2000/svg" xmlns:xlink="http://www.w3.org/1999/xlink" x="0px" y="0px"
	 width="811.574px" height="560px" viewBox="0 0 811.574 560" enable-background="new 0 0 811.574 560" xml:space="preserve">
<g>
	
		<linearGradient id="SVGID_1_" gradientUnits="userSpaceOnUse" x1="-662.0986" y1="-16031.2881" x2="-139.376" y2="-16031.2881" gradientTransform="matrix(0 1 -1 0 -15625.501 680.7368)">
		<stop  offset="0" style="stop-color:#2EC425"/>
		<stop  offset="0.1718" style="stop-color:#2CBC27"/>
		<stop  offset="0.4337" style="stop-color:#26A72D"/>
		<stop  offset="0.7514" style="stop-color:#1C8536"/>
		<stop  offset="1" style="stop-color:#13653F"/>
	</linearGradient>
	<path fill-rule="evenodd" clip-rule="evenodd" fill="url(#SVGID_1_)" d="M405.787,541.361
		c-144.341,0-261.357-117.017-261.357-261.357c0-144.345,117.017-261.365,261.357-261.365
		c144.346,0,261.357,117.021,261.357,261.365C667.145,424.345,550.133,541.361,405.787,541.361z"/>
	<g>
		<path fill-rule="evenodd" clip-rule="evenodd" fill="#FFFFFF" d="M283.354,120.24c5.094,0.604,10.205,1.063,15.266,1.854
			c7.568,1.19,14.823,3.482,21.635,7.041c13.561,7.076,22.563,18.089,27.779,32.334c2.476,6.77,3.993,13.76,4.687,20.921
			c0.314,3.283,0.37,6.591,0.544,9.882c0.013,0.264,0.03,0.527,0.056,0.919c16.796,0.128,33.546-0.025,50.304,0.739
			c0,17.749,0,35.388,0,53.204c-0.485,0-0.859-0.009-1.233,0c-15.831,0.114-31.662,0.238-47.488,0.357
			c-1.268,0.004-1.271,0.008-1.271,1.267c0.025,26.525,0.029,53.051,0.08,79.576c0.009,5.311,0.115,10.63,0.298,15.945
			c0.408,11.821,5.52,21.389,14.334,29.052c3.993,3.47,8.815,5.132,14.037,5.749c6.969,0.816,13.935,1.675,20.899,2.551
			c0.233,0.025,0.583,0.396,0.608,0.638c0.11,1.098,0.178,2.216,0.178,3.325c-0.033,17.783-0.076,35.565-0.123,53.349
			c0,0.229-0.034,0.468-0.055,0.816c-0.379,0-0.728,0.008-1.076,0c-6.723-0.179-13.458-0.204-20.168-0.57
			c-13.714-0.739-27.235-2.708-40.2-7.433c-26.177-9.529-43.726-27.605-52.932-53.85c-2.326-6.643-3.81-13.497-5.205-20.368
			c-0.255-1.259-0.374-2.56-0.378-3.836c-0.106-44.031-0.196-88.071-0.281-132.107c-0.063-31.628-0.123-63.256-0.187-94.888
			c0-0.477-0.068-0.948-0.106-1.425C283.354,123.6,283.354,121.916,283.354,120.24z"/>
		<path fill-rule="evenodd" clip-rule="evenodd" fill="#FFFFFF" d="M412,439.377c0-0.697,0-1.284,0-1.88
			c0.033-9.524,0.063-19.041,0.119-28.566c0.042-8.283,0.11-16.574,0.203-24.866c0.026-2.407-0.114-1.931,1.91-1.922
			c8.023,0.06,16.043,0.136,24.063,0.237c7.237,0.086,14.471,0.226,21.712,0.315c1.505,0.025,1.569,0.399,1.569-1.522
			c0-18.889,0.013-37.785-0.004-56.674c-0.009-10.877-0.03-21.745-0.111-32.623c-0.034-4.979-0.094-9.976-0.383-14.941
			c-0.468-8.012-3.346-15.002-9.418-20.445c-3.661-3.273-8.101-5.081-12.795-6.314c-4.385-1.152-8.861-1.773-13.395-2.028
			c-3.836-0.208-7.671-0.374-11.507-0.562c-0.298-0.013-0.604-0.085-0.901-0.076c-0.553,0-0.731-0.289-0.714-0.791
			c0.008-0.302-0.034-0.604-0.034-0.901c-0.077-14.84-0.145-29.672-0.195-44.512c-0.009-2.075,0.102-4.142,0.148-6.217
			c0.029-1.237,0.085-1.353,1.297-1.429c2.186-0.153,4.375-0.366,6.565-0.349c6.965,0.067,13.93,0.123,20.891,0.383
			c5.184,0.195,10.384,0.434,15.521,1.097c13.136,1.692,25.943,4.694,37.841,10.758c10.566,5.4,19.151,12.974,25.054,23.375
			c3.402,5.991,5.707,12.42,7.246,19.113c0.425,1.824,0.502,3.737,0.612,5.621c0.136,2.33,0.179,4.678,0.195,7.017
			c0.103,10.545,0.213,21.082,0.255,31.628c0.09,20.632,0.124,41.264,0.188,61.903c0.055,18.854,0.119,37.717,0.179,56.58
			c0.034,9.134,0.076,18.263,0.11,27.393c0.004,1.169,0,1.174-1.199,1.174c-37.964,0.008-75.928,0.017-113.899,0.025
			C412.799,439.377,412.467,439.377,412,439.377z"/>
	</g>
</g>
</svg>
