<?xml version="1.0" encoding="utf-8"?>
<!-- Generator: Adobe Illustrator 16.0.0, SVG Export Plug-In . SVG Version: 6.00 Build 0)  -->
<!DOCTYPE svg PUBLIC "-//W3C//DTD SVG 1.1//EN" "http://www.w3.org/Graphics/SVG/1.1/DTD/svg11.dtd">
<svg version="1.1" id="Layer_1" xmlns="http://www.w3.org/2000/svg" xmlns:xlink="http://www.w3.org/1999/xlink" x="0px" y="0px"
	 width="811.574px" height="560px" viewBox="0 0 811.574 560" enable-background="new 0 0 811.574 560" xml:space="preserve">
<path fill-rule="evenodd" clip-rule="evenodd" fill="#666666" d="M580.792,275.015c-9.068,0-14.99,5.921-14.99,15.637v217.307
	H458.654v-88.124c0-7.793-6.04-15.62-13.493-15.62h-77.37c-8.967,0-16.402,7.827-16.402,15.62v88.124H245.653V298.479
	c0-9.716-7.453-15.62-14.889-15.62c-8.95,0-14.872,5.904-14.872,15.62v227.125c0,7.81,5.921,15.756,14.872,15.756h137.026
	c7.419,0,13.357-7.946,13.357-15.756v-90.013h47.644v90.013c0,7.81,7.555,15.756,16.369,15.756h135.631
	c7.437,0,14.889-7.946,14.889-15.756V290.651C595.681,280.936,588.229,275.015,580.792,275.015L580.792,275.015z M662.604,286.738
	L662.604,286.738C564.287,180.986,503.286,116.463,415.418,24.442c-2.893-3.913-5.904-5.802-8.95-5.802
	c-4.407,0-8.95,1.889-11.843,5.802L148.835,284.85c-2.893,3.913-4.407,7.827-4.407,11.724c0,3.931,1.515,7.81,4.407,9.716
	c6.058,7.827,14.871,7.827,20.929,0L406.468,57.726l235.326,252.478c1.514,1.99,5.938,3.913,10.464,3.913
	c4.425,0,7.437-1.923,10.346-3.913C668.661,304.383,668.661,292.677,662.604,286.738L662.604,286.738z"/>
</svg>
