<?xml version="1.0" encoding="utf-8"?>
<!-- Generator: Adobe Illustrator 16.0.0, SVG Export Plug-In . SVG Version: 6.00 Build 0)  -->
<!DOCTYPE svg PUBLIC "-//W3C//DTD SVG 1.1//EN" "http://www.w3.org/Graphics/SVG/1.1/DTD/svg11.dtd">
<svg version="1.1" id="Layer_1" xmlns="http://www.w3.org/2000/svg" xmlns:xlink="http://www.w3.org/1999/xlink" x="0px" y="0px"
	 width="811.574px" height="560px" viewBox="0 0 811.574 560" enable-background="new 0 0 811.574 560" xml:space="preserve">
<g id="_1743178443616_8_">
	<g id="path18_8_">
		<linearGradient id="SVGID_1_" gradientUnits="userSpaceOnUse" x1="326.5039" y1="296.7695" x2="181.9004" y2="547.2302">
			<stop  offset="0" style="stop-color:#2EC425"/>
			<stop  offset="0.1756" style="stop-color:#2CBE27"/>
			<stop  offset="0.4049" style="stop-color:#28AE2B"/>
			<stop  offset="0.6638" style="stop-color:#209332"/>
			<stop  offset="0.9427" style="stop-color:#156E3D"/>
			<stop  offset="1" style="stop-color:#13653F"/>
		</linearGradient>
		<path fill="url(#SVGID_1_)" d="M322.682,541.357H184.734c-27.113,0-50.021-22.895-50.021-50.008V353.416
			c0-28.117,22.44-50.979,50.021-50.979h137.947c28.104,0,50.973,22.862,50.973,50.979V491.35
			C373.654,518.932,350.785,541.357,322.682,541.357z M184.734,331.585c-11.313,0-20.873,9.995-20.873,21.831V491.35
			c0,11.113,9.76,20.86,20.873,20.86h137.947c11.836,0,21.824-9.547,21.824-20.86V353.416c0-12.037-9.787-21.831-21.824-21.831
			H184.734z"/>
	</g>
	<g id="path20_8_">
		<linearGradient id="SVGID_2_" gradientUnits="userSpaceOnUse" x1="597.9531" y1="296.7002" x2="453.3734" y2="547.1196">
			<stop  offset="0" style="stop-color:#2EC425"/>
			<stop  offset="0.1756" style="stop-color:#2CBE27"/>
			<stop  offset="0.4049" style="stop-color:#28AE2B"/>
			<stop  offset="0.6638" style="stop-color:#209332"/>
			<stop  offset="0.9427" style="stop-color:#156E3D"/>
			<stop  offset="1" style="stop-color:#13653F"/>
		</linearGradient>
		<path fill="url(#SVGID_2_)" d="M594.721,541.357H456.773c-27.568,0-50.008-22.426-50.008-50.008V353.416
			c0-28.586,21.971-50.979,50.008-50.979h137.947c27.582,0,50.021,22.862,50.021,50.979V491.35
			C644.742,518.463,621.834,541.357,594.721,541.357z M456.773,331.585c-11.702,0-20.86,9.579-20.86,21.831V491.35
			c0,11.501,9.359,20.86,20.86,20.86h137.947c11.126,0,20.874-9.747,20.874-20.86V353.416c0-11.836-9.561-21.831-20.874-21.831
			H456.773z"/>
	</g>
	<g id="path22_17_">
		<linearGradient id="SVGID_3_" gradientUnits="userSpaceOnUse" x1="596.6035" y1="49.9941" x2="461.7578" y2="283.5537">
			<stop  offset="0" style="stop-color:#2EC425"/>
			<stop  offset="0.1756" style="stop-color:#2CBE27"/>
			<stop  offset="0.4049" style="stop-color:#28AE2B"/>
			<stop  offset="0.6638" style="stop-color:#209332"/>
			<stop  offset="0.9427" style="stop-color:#156E3D"/>
			<stop  offset="1" style="stop-color:#13653F"/>
		</linearGradient>
		<path fill="url(#SVGID_3_)" d="M528.739,314.574c-13.737,0-26.403-5.477-35.682-15.425l-97.285-96.334
			c-19.239-20.539-19.079-52.398-0.054-71.417l97.7-97.707c8.917-9.58,21.583-15.049,35.32-15.049
			c13.55,0,26.35,5.349,36.044,15.049l97.699,97.707c19.04,19.019,19.187,50.878,0.349,71.021l-98.089,97.145
			C555.089,309.225,542.289,314.574,528.739,314.574z M528.739,47.797c-5.557,0-10.657,2.169-14.353,6.132l-98.062,98.082
			c-7.899,7.893-7.739,21.857,0.348,30.493l97.312,96.348c8.342,8.931,21.945,8.328,30.192,0.054l97.754-96.796
			c7.698-8.241,7.846-22.206-0.054-30.092l-97.7-97.727C539.986,50.1,534.497,47.797,528.739,47.797z"/>
	</g>
	<g id="path22_16_">
		<linearGradient id="SVGID_4_" gradientUnits="userSpaceOnUse" x1="551.7178" y1="127.5361" x2="506.5059" y2="205.8455">
			<stop  offset="0" style="stop-color:#2EC425"/>
			<stop  offset="0.1756" style="stop-color:#2CBE27"/>
			<stop  offset="0.4049" style="stop-color:#28AE2B"/>
			<stop  offset="0.6638" style="stop-color:#209332"/>
			<stop  offset="0.9427" style="stop-color:#156E3D"/>
			<stop  offset="1" style="stop-color:#13653F"/>
		</linearGradient>
		<path fill="url(#SVGID_4_)" d="M528.994,216.117c-4.86,0-9.346-1.935-12.626-5.449l-31.599-31.29
			c-6.802-7.277-6.734-18.497-0.026-25.198l31.772-31.779c6.226-6.667,18.289-6.895,25.171,0l31.772,31.779
			c6.708,6.701,6.775,17.921,0.147,25.024l-31.933,31.632C538.272,214.236,533.761,216.117,528.994,216.117z M528.994,129.363
			c-1.42,0-2.731,0.549-3.669,1.56l-31.919,31.913c-2.009,2.021-1.941,5.757,0.146,7.993l31.612,31.297
			c2.263,2.417,5.717,2.162,7.859,0.021l31.799-31.484c1.928-2.069,1.995-5.805-0.027-7.826l-31.771-31.772
			C531.926,129.966,530.493,129.363,528.994,129.363z"/>
	</g>
	<g id="path24_8_">
		<linearGradient id="SVGID_5_" gradientUnits="userSpaceOnUse" x1="326.4375" y1="41.7832" x2="181.7312" y2="292.4219">
			<stop  offset="0" style="stop-color:#2EC425"/>
			<stop  offset="0.1756" style="stop-color:#2CBE27"/>
			<stop  offset="0.4049" style="stop-color:#28AE2B"/>
			<stop  offset="0.6638" style="stop-color:#209332"/>
			<stop  offset="0.9427" style="stop-color:#156E3D"/>
			<stop  offset="1" style="stop-color:#13653F"/>
		</linearGradient>
		<path fill="url(#SVGID_5_)" d="M322.682,286.551H184.734c-27.581,0-50.021-22.855-50.021-50.959V97.645
			c0-27.127,22.908-50.028,50.021-50.028h137.947c28.104,0,50.973,22.44,50.973,50.028v137.947
			C373.654,263.695,350.785,286.551,322.682,286.551z M184.734,76.764c-11.113,0-20.873,9.754-20.873,20.881v137.947
			c0,11.829,9.56,21.811,20.873,21.811h137.947c12.037,0,21.824-9.787,21.824-21.811V97.645c0-11.32-9.988-20.881-21.824-20.881
			H184.734z"/>
	</g>
</g>
</svg>
