<?xml version="1.0" encoding="UTF-8" standalone="no"?>
<svg
   xmlns:dc="http://purl.org/dc/elements/1.1/"
   xmlns:cc="http://creativecommons.org/ns#"
   xmlns:rdf="http://www.w3.org/1999/02/22-rdf-syntax-ns#"
   xmlns:svg="http://www.w3.org/2000/svg"
   xmlns="http://www.w3.org/2000/svg"
   id="svg24"
   viewBox="0 0 4531 5913"
   style="clip-rule:evenodd;fill-rule:evenodd;image-rendering:optimizeQuality;shape-rendering:geometricPrecision;text-rendering:geometricPrecision"
   version="1.1"
   height="5.9130001in"
   width="4.5310001in"
   xml:space="preserve"><metadata
   id="metadata28"><rdf:RDF><cc:Work
       rdf:about=""><dc:format>image/svg+xml</dc:format><dc:type
         rdf:resource="http://purl.org/dc/dcmitype/StillImage" /></cc:Work></rdf:RDF></metadata>
 <defs
   id="defs7">
  <style
   id="style2"
   type="text/css">
   <![CDATA[
    .fil1 {fill:none}
    .fil0 {fill:#FEFEFE}
   ]]>
  </style>
   <clipPath
   id="id0">
    <path
   id="path4"
   d="M 0,0 H 4531 V 5913 H 0 Z" />
   </clipPath>
 </defs>
 <g
   id="Layer_x0020_1">
  <metadata
   id="CorelCorpID_0Corel-Layer" />
  <g
   id="g10">
  </g>
  <g
   id="g19"
   clip-path="url(#id0)">
   <g
   id="g17">
    <g
   id="_1666363704096">
     <path
   style="fill:#fefefe"
   id="path12"
   d="m 332,45 z m 968,3236 v -924 l 463,-4 461,-3 v -486 c 0,-268 1,-490 4,-497 1,-6 -208,-11 -465,-14 l -470,-3 v -68 c 0,-37 -7,-118 -15,-178 C 1199,516 878,157 332,45 266,31 164,16 106,10 L 0,0 4,2178 9,4357 41,4507 c 81,385 241,685 486,915 347,327 811,477 1509,488 l 195,3 4,-539 c 1,-296 -1,-538 -7,-538 -7,0 -51,-7 -101,-14 -50,-8 -156,-20 -236,-27 -117,-11 -163,-23 -232,-56 -148,-72 -280,-250 -334,-446 -22,-80 -25,-172 -25,-1012 z"
   class="fil0" />
     <path
   style="fill:#fefefe"
   id="path14"
   d="m 3252,1385 z m 41,2485 v 984 l -454,-5 -455,-6 -5,531 -2,532 h 1076 1078 l -6,-1740 c -4,-1728 -4,-1739 -33,-1845 -64,-224 -142,-371 -272,-510 -210,-220 -517,-357 -968,-426 -206,-32 -857,-46 -868,-19 -5,11 -6,238 -5,505 l 5,486 187,9 c 431,20 624,141 701,438 18,67 21,237 21,1066 z"
   class="fil0" />
    </g>
   </g>
  </g>
  <polygon
   style="fill:none"
   id="polygon21"
   points="4531,5913 0,5913 0,0 4531,0 "
   class="fil1" />
 </g>
</svg>